G75*
%MOIN*%
%OFA0B0*%
%FSLAX24Y24*%
%IPPOS*%
%LPD*%
%AMOC8*
5,1,8,0,0,1.08239X$1,22.5*
%
%ADD10C,0.0000*%
%ADD11R,0.1450X0.0394*%
%ADD12C,0.0660*%
%ADD13R,0.1496X0.0551*%
%ADD14C,0.0039*%
%ADD15C,0.0700*%
%ADD16C,0.0320*%
%ADD17C,0.0320*%
%ADD18C,0.0330*%
%ADD19C,0.0280*%
%ADD20C,0.0160*%
D10*
X006380Y002193D02*
X022180Y002193D01*
X022224Y002195D01*
X022267Y002201D01*
X022309Y002210D01*
X022351Y002223D01*
X022391Y002240D01*
X022430Y002260D01*
X022467Y002283D01*
X022501Y002310D01*
X022534Y002339D01*
X022563Y002372D01*
X022590Y002406D01*
X022613Y002443D01*
X022633Y002482D01*
X022650Y002522D01*
X022663Y002564D01*
X022672Y002606D01*
X022678Y002649D01*
X022680Y002693D01*
X022680Y007293D01*
X022674Y007338D01*
X022664Y007383D01*
X022651Y007426D01*
X022634Y007469D01*
X022613Y007510D01*
X022590Y007549D01*
X022563Y007586D01*
X022533Y007620D01*
X022501Y007652D01*
X022466Y007681D01*
X022428Y007708D01*
X022389Y007731D01*
X022348Y007750D01*
X022305Y007766D01*
X022261Y007779D01*
X022217Y007788D01*
X022171Y007793D01*
X022126Y007795D01*
X022080Y007793D01*
X006280Y007793D01*
X006241Y007791D01*
X006202Y007785D01*
X006164Y007776D01*
X006127Y007763D01*
X006091Y007746D01*
X006058Y007726D01*
X006026Y007702D01*
X005997Y007676D01*
X005971Y007647D01*
X005947Y007615D01*
X005927Y007582D01*
X005910Y007546D01*
X005897Y007509D01*
X005888Y007471D01*
X005882Y007432D01*
X005880Y007393D01*
X005880Y002693D01*
X005882Y002649D01*
X005888Y002606D01*
X005897Y002564D01*
X005910Y002522D01*
X005927Y002482D01*
X005947Y002443D01*
X005970Y002406D01*
X005997Y002372D01*
X006026Y002339D01*
X006059Y002310D01*
X006093Y002283D01*
X006130Y002260D01*
X006169Y002240D01*
X006209Y002223D01*
X006251Y002210D01*
X006293Y002201D01*
X006336Y002195D01*
X006380Y002193D01*
X006609Y002690D02*
X006611Y002715D01*
X006617Y002739D01*
X006626Y002761D01*
X006639Y002782D01*
X006655Y002801D01*
X006674Y002817D01*
X006695Y002830D01*
X006717Y002839D01*
X006741Y002845D01*
X006766Y002847D01*
X006791Y002845D01*
X006815Y002839D01*
X006837Y002830D01*
X006858Y002817D01*
X006877Y002801D01*
X006893Y002782D01*
X006906Y002761D01*
X006915Y002739D01*
X006921Y002715D01*
X006923Y002690D01*
X006921Y002665D01*
X006915Y002641D01*
X006906Y002619D01*
X006893Y002598D01*
X006877Y002579D01*
X006858Y002563D01*
X006837Y002550D01*
X006815Y002541D01*
X006791Y002535D01*
X006766Y002533D01*
X006741Y002535D01*
X006717Y002541D01*
X006695Y002550D01*
X006674Y002563D01*
X006655Y002579D01*
X006639Y002598D01*
X006626Y002619D01*
X006617Y002641D01*
X006611Y002665D01*
X006609Y002690D01*
X006766Y002690D02*
X006768Y002715D01*
X006774Y002739D01*
X006783Y002761D01*
X006796Y002782D01*
X006812Y002801D01*
X006831Y002817D01*
X006852Y002830D01*
X006874Y002839D01*
X006898Y002845D01*
X006923Y002847D01*
X006948Y002845D01*
X006972Y002839D01*
X006994Y002830D01*
X007015Y002817D01*
X007034Y002801D01*
X007050Y002782D01*
X007063Y002761D01*
X007072Y002739D01*
X007078Y002715D01*
X007080Y002690D01*
X007078Y002665D01*
X007072Y002641D01*
X007063Y002619D01*
X007050Y002598D01*
X007034Y002579D01*
X007015Y002563D01*
X006994Y002550D01*
X006972Y002541D01*
X006948Y002535D01*
X006923Y002533D01*
X006898Y002535D01*
X006874Y002541D01*
X006852Y002550D01*
X006831Y002563D01*
X006812Y002579D01*
X006796Y002598D01*
X006783Y002619D01*
X006774Y002641D01*
X006768Y002665D01*
X006766Y002690D01*
X007081Y002690D02*
X007083Y002715D01*
X007089Y002739D01*
X007098Y002761D01*
X007111Y002782D01*
X007127Y002801D01*
X007146Y002817D01*
X007167Y002830D01*
X007189Y002839D01*
X007213Y002845D01*
X007238Y002847D01*
X007263Y002845D01*
X007287Y002839D01*
X007309Y002830D01*
X007330Y002817D01*
X007349Y002801D01*
X007365Y002782D01*
X007378Y002761D01*
X007387Y002739D01*
X007393Y002715D01*
X007395Y002690D01*
X007393Y002665D01*
X007387Y002641D01*
X007378Y002619D01*
X007365Y002598D01*
X007349Y002579D01*
X007330Y002563D01*
X007309Y002550D01*
X007287Y002541D01*
X007263Y002535D01*
X007238Y002533D01*
X007213Y002535D01*
X007189Y002541D01*
X007167Y002550D01*
X007146Y002563D01*
X007127Y002579D01*
X007111Y002598D01*
X007098Y002619D01*
X007089Y002641D01*
X007083Y002665D01*
X007081Y002690D01*
X007239Y002690D02*
X007241Y002715D01*
X007247Y002739D01*
X007256Y002761D01*
X007269Y002782D01*
X007285Y002801D01*
X007304Y002817D01*
X007325Y002830D01*
X007347Y002839D01*
X007371Y002845D01*
X007396Y002847D01*
X007421Y002845D01*
X007445Y002839D01*
X007467Y002830D01*
X007488Y002817D01*
X007507Y002801D01*
X007523Y002782D01*
X007536Y002761D01*
X007545Y002739D01*
X007551Y002715D01*
X007553Y002690D01*
X007551Y002665D01*
X007545Y002641D01*
X007536Y002619D01*
X007523Y002598D01*
X007507Y002579D01*
X007488Y002563D01*
X007467Y002550D01*
X007445Y002541D01*
X007421Y002535D01*
X007396Y002533D01*
X007371Y002535D01*
X007347Y002541D01*
X007325Y002550D01*
X007304Y002563D01*
X007285Y002579D01*
X007269Y002598D01*
X007256Y002619D01*
X007247Y002641D01*
X007241Y002665D01*
X007239Y002690D01*
X006892Y004107D02*
X006894Y004136D01*
X006900Y004164D01*
X006909Y004192D01*
X006922Y004218D01*
X006939Y004241D01*
X006958Y004263D01*
X006980Y004282D01*
X007005Y004297D01*
X007031Y004310D01*
X007059Y004318D01*
X007087Y004323D01*
X007116Y004324D01*
X007145Y004321D01*
X007173Y004314D01*
X007200Y004304D01*
X007226Y004290D01*
X007249Y004273D01*
X007270Y004253D01*
X007288Y004230D01*
X007303Y004205D01*
X007314Y004178D01*
X007322Y004150D01*
X007326Y004121D01*
X007326Y004093D01*
X007322Y004064D01*
X007314Y004036D01*
X007303Y004009D01*
X007288Y003984D01*
X007270Y003961D01*
X007249Y003941D01*
X007226Y003924D01*
X007200Y003910D01*
X007173Y003900D01*
X007145Y003893D01*
X007116Y003890D01*
X007087Y003891D01*
X007059Y003896D01*
X007031Y003904D01*
X007005Y003917D01*
X006980Y003932D01*
X006958Y003951D01*
X006939Y003973D01*
X006922Y003996D01*
X006909Y004022D01*
X006900Y004050D01*
X006894Y004078D01*
X006892Y004107D01*
X006892Y005879D02*
X006894Y005908D01*
X006900Y005936D01*
X006909Y005964D01*
X006922Y005990D01*
X006939Y006013D01*
X006958Y006035D01*
X006980Y006054D01*
X007005Y006069D01*
X007031Y006082D01*
X007059Y006090D01*
X007087Y006095D01*
X007116Y006096D01*
X007145Y006093D01*
X007173Y006086D01*
X007200Y006076D01*
X007226Y006062D01*
X007249Y006045D01*
X007270Y006025D01*
X007288Y006002D01*
X007303Y005977D01*
X007314Y005950D01*
X007322Y005922D01*
X007326Y005893D01*
X007326Y005865D01*
X007322Y005836D01*
X007314Y005808D01*
X007303Y005781D01*
X007288Y005756D01*
X007270Y005733D01*
X007249Y005713D01*
X007226Y005696D01*
X007200Y005682D01*
X007173Y005672D01*
X007145Y005665D01*
X007116Y005662D01*
X007087Y005663D01*
X007059Y005668D01*
X007031Y005676D01*
X007005Y005689D01*
X006980Y005704D01*
X006958Y005723D01*
X006939Y005745D01*
X006922Y005768D01*
X006909Y005794D01*
X006900Y005822D01*
X006894Y005850D01*
X006892Y005879D01*
X006766Y007296D02*
X006768Y007321D01*
X006774Y007345D01*
X006783Y007367D01*
X006796Y007388D01*
X006812Y007407D01*
X006831Y007423D01*
X006852Y007436D01*
X006874Y007445D01*
X006898Y007451D01*
X006923Y007453D01*
X006948Y007451D01*
X006972Y007445D01*
X006994Y007436D01*
X007015Y007423D01*
X007034Y007407D01*
X007050Y007388D01*
X007063Y007367D01*
X007072Y007345D01*
X007078Y007321D01*
X007080Y007296D01*
X007078Y007271D01*
X007072Y007247D01*
X007063Y007225D01*
X007050Y007204D01*
X007034Y007185D01*
X007015Y007169D01*
X006994Y007156D01*
X006972Y007147D01*
X006948Y007141D01*
X006923Y007139D01*
X006898Y007141D01*
X006874Y007147D01*
X006852Y007156D01*
X006831Y007169D01*
X006812Y007185D01*
X006796Y007204D01*
X006783Y007225D01*
X006774Y007247D01*
X006768Y007271D01*
X006766Y007296D01*
X006609Y007296D02*
X006611Y007321D01*
X006617Y007345D01*
X006626Y007367D01*
X006639Y007388D01*
X006655Y007407D01*
X006674Y007423D01*
X006695Y007436D01*
X006717Y007445D01*
X006741Y007451D01*
X006766Y007453D01*
X006791Y007451D01*
X006815Y007445D01*
X006837Y007436D01*
X006858Y007423D01*
X006877Y007407D01*
X006893Y007388D01*
X006906Y007367D01*
X006915Y007345D01*
X006921Y007321D01*
X006923Y007296D01*
X006921Y007271D01*
X006915Y007247D01*
X006906Y007225D01*
X006893Y007204D01*
X006877Y007185D01*
X006858Y007169D01*
X006837Y007156D01*
X006815Y007147D01*
X006791Y007141D01*
X006766Y007139D01*
X006741Y007141D01*
X006717Y007147D01*
X006695Y007156D01*
X006674Y007169D01*
X006655Y007185D01*
X006639Y007204D01*
X006626Y007225D01*
X006617Y007247D01*
X006611Y007271D01*
X006609Y007296D01*
X007081Y007296D02*
X007083Y007321D01*
X007089Y007345D01*
X007098Y007367D01*
X007111Y007388D01*
X007127Y007407D01*
X007146Y007423D01*
X007167Y007436D01*
X007189Y007445D01*
X007213Y007451D01*
X007238Y007453D01*
X007263Y007451D01*
X007287Y007445D01*
X007309Y007436D01*
X007330Y007423D01*
X007349Y007407D01*
X007365Y007388D01*
X007378Y007367D01*
X007387Y007345D01*
X007393Y007321D01*
X007395Y007296D01*
X007393Y007271D01*
X007387Y007247D01*
X007378Y007225D01*
X007365Y007204D01*
X007349Y007185D01*
X007330Y007169D01*
X007309Y007156D01*
X007287Y007147D01*
X007263Y007141D01*
X007238Y007139D01*
X007213Y007141D01*
X007189Y007147D01*
X007167Y007156D01*
X007146Y007169D01*
X007127Y007185D01*
X007111Y007204D01*
X007098Y007225D01*
X007089Y007247D01*
X007083Y007271D01*
X007081Y007296D01*
X007239Y007296D02*
X007241Y007321D01*
X007247Y007345D01*
X007256Y007367D01*
X007269Y007388D01*
X007285Y007407D01*
X007304Y007423D01*
X007325Y007436D01*
X007347Y007445D01*
X007371Y007451D01*
X007396Y007453D01*
X007421Y007451D01*
X007445Y007445D01*
X007467Y007436D01*
X007488Y007423D01*
X007507Y007407D01*
X007523Y007388D01*
X007536Y007367D01*
X007545Y007345D01*
X007551Y007321D01*
X007553Y007296D01*
X007551Y007271D01*
X007545Y007247D01*
X007536Y007225D01*
X007523Y007204D01*
X007507Y007185D01*
X007488Y007169D01*
X007467Y007156D01*
X007445Y007147D01*
X007421Y007141D01*
X007396Y007139D01*
X007371Y007141D01*
X007347Y007147D01*
X007325Y007156D01*
X007304Y007169D01*
X007285Y007185D01*
X007269Y007204D01*
X007256Y007225D01*
X007247Y007247D01*
X007241Y007271D01*
X007239Y007296D01*
D11*
X008380Y005993D03*
X010180Y005993D03*
X010180Y004993D03*
X008380Y004993D03*
X008380Y003993D03*
X010180Y003993D03*
D12*
X012280Y005893D03*
X012280Y006893D03*
D13*
X020180Y005527D03*
X020180Y004459D03*
D14*
X019594Y004341D02*
X020775Y004341D01*
X020775Y004578D01*
X019594Y004578D01*
X019594Y004341D01*
X018412Y004381D02*
X017625Y004381D01*
X017625Y002806D01*
X018412Y002806D01*
X018412Y004381D01*
X019586Y005409D02*
X020767Y005409D01*
X020767Y005645D01*
X019586Y005645D01*
X019586Y005409D01*
X018405Y005606D02*
X018405Y007181D01*
X017617Y007181D01*
X017617Y005606D01*
X018405Y005606D01*
X021948Y005606D02*
X022735Y005606D01*
X022735Y007181D01*
X021948Y007181D01*
X021948Y005606D01*
X021956Y004381D02*
X021956Y002806D01*
X022743Y002806D01*
X022743Y004381D01*
X021956Y004381D01*
D15*
X007431Y002690D02*
X006731Y002690D01*
X006731Y007296D02*
X007431Y007296D01*
D16*
X009080Y007493D03*
X009080Y006693D03*
X007180Y006593D03*
X006580Y006293D03*
X006380Y005593D03*
X006580Y004993D03*
X007380Y004693D03*
X006280Y004193D03*
X007180Y003593D03*
X006380Y003293D03*
X009080Y003293D03*
X011080Y002893D03*
X010480Y002593D03*
X013040Y003253D03*
X014180Y002993D03*
X015780Y002893D03*
X015980Y003493D03*
X015980Y003893D03*
X014180Y004093D03*
X014180Y003593D03*
X011530Y003543D03*
X011280Y004293D03*
X010320Y004413D03*
X008910Y004413D03*
X009680Y005493D03*
X011880Y006393D03*
X014180Y006393D03*
X014880Y006493D03*
X015680Y006493D03*
X015980Y005693D03*
X014180Y005493D03*
X014280Y005093D03*
X014280Y004693D03*
X015780Y005093D03*
X016680Y004993D03*
X018180Y004993D03*
X018780Y004693D03*
X019480Y004993D03*
X020180Y004993D03*
X020780Y004993D03*
X021380Y004693D03*
X021880Y004993D03*
X021380Y005293D03*
X018780Y005293D03*
X012880Y007093D03*
X012980Y007493D03*
X022180Y007493D03*
X022180Y002493D03*
D17*
X009080Y006693D02*
X008380Y005993D01*
X009080Y006693D02*
X009680Y007293D01*
X010180Y007293D01*
X010380Y007493D01*
X012480Y007493D01*
D18*
X011680Y006893D03*
X010180Y006693D03*
X010180Y007293D03*
X011180Y005193D03*
X010580Y003393D03*
D19*
X012880Y007093D02*
X012480Y007493D01*
D20*
X012980Y007493D02*
X013180Y007293D01*
X013180Y006893D01*
X012880Y006593D01*
X012880Y005093D01*
X013030Y004943D01*
X013180Y005093D01*
X014280Y005093D01*
X015780Y005093D01*
X016057Y005005D02*
X016070Y005005D01*
X016070Y005036D02*
X016026Y004929D01*
X015944Y004847D01*
X015838Y004803D01*
X015722Y004803D01*
X015616Y004847D01*
X015580Y004883D01*
X014500Y004883D01*
X014526Y004858D01*
X014570Y004751D01*
X014570Y004636D01*
X014526Y004529D01*
X014444Y004447D01*
X014338Y004403D01*
X014222Y004403D01*
X014116Y004447D01*
X014034Y004529D01*
X014025Y004551D01*
X013993Y004583D01*
X013880Y004583D01*
X013880Y002373D01*
X022180Y002373D01*
X022243Y002379D01*
X022358Y002427D01*
X022446Y002516D01*
X022484Y002606D01*
X021873Y002606D01*
X021756Y002723D01*
X021756Y004463D01*
X021873Y004580D01*
X022500Y004580D01*
X022500Y005406D01*
X021865Y005406D01*
X021748Y005523D01*
X021748Y007263D01*
X021865Y007380D01*
X022471Y007380D01*
X022420Y007477D01*
X022308Y007570D01*
X022169Y007613D01*
X022155Y007614D01*
X022155Y007613D01*
X022088Y007613D01*
X022022Y007607D01*
X022015Y007613D01*
X013880Y007613D01*
X013880Y005303D01*
X014080Y005303D01*
X014116Y005339D01*
X014222Y005383D01*
X014338Y005383D01*
X014444Y005339D01*
X014480Y005303D01*
X015580Y005303D01*
X015616Y005339D01*
X015722Y005383D01*
X015838Y005383D01*
X015944Y005339D01*
X016026Y005258D01*
X016070Y005151D01*
X016070Y005036D01*
X016065Y005163D02*
X016070Y005163D01*
X016490Y005163D02*
X016713Y005163D01*
X016872Y005005D02*
X016490Y005005D01*
X016490Y004846D02*
X017030Y004846D01*
X017093Y004783D02*
X017980Y004783D01*
X018016Y004747D01*
X018122Y004703D01*
X018238Y004703D01*
X018344Y004747D01*
X018426Y004829D01*
X018470Y004936D01*
X018470Y005051D01*
X018426Y005158D01*
X018344Y005239D01*
X018238Y005283D01*
X018122Y005283D01*
X018016Y005239D01*
X017980Y005203D01*
X017267Y005203D01*
X015970Y006500D01*
X015970Y006551D01*
X015926Y006658D01*
X015844Y006739D01*
X015738Y006783D01*
X015622Y006783D01*
X015516Y006739D01*
X015434Y006658D01*
X015390Y006551D01*
X015390Y006436D01*
X015434Y006329D01*
X015516Y006247D01*
X015622Y006203D01*
X015673Y006203D01*
X015902Y005975D01*
X015816Y005939D01*
X015734Y005858D01*
X015690Y005751D01*
X015690Y005636D01*
X015734Y005529D01*
X015816Y005447D01*
X015922Y005403D01*
X015973Y005403D01*
X016070Y005306D01*
X016070Y004280D01*
X015973Y004183D01*
X015922Y004183D01*
X015816Y004139D01*
X015734Y004058D01*
X015690Y003951D01*
X015690Y003836D01*
X015734Y003729D01*
X015816Y003647D01*
X015922Y003603D01*
X016038Y003603D01*
X016144Y003647D01*
X016226Y003729D01*
X016270Y003836D01*
X016270Y003886D01*
X016490Y004106D01*
X016490Y005386D01*
X017093Y004783D01*
X017180Y004993D02*
X015680Y006493D01*
X015406Y006590D02*
X013880Y006590D01*
X013880Y006748D02*
X015538Y006748D01*
X015822Y006748D02*
X017417Y006748D01*
X017417Y006590D02*
X015954Y006590D01*
X016039Y006431D02*
X017417Y006431D01*
X017417Y006273D02*
X016198Y006273D01*
X016356Y006114D02*
X017417Y006114D01*
X017417Y005956D02*
X016515Y005956D01*
X016673Y005797D02*
X017417Y005797D01*
X017417Y005639D02*
X016832Y005639D01*
X016990Y005480D02*
X017460Y005480D01*
X017417Y005523D02*
X017534Y005406D01*
X018487Y005406D01*
X018604Y005523D01*
X018604Y007263D01*
X018487Y007380D01*
X018322Y007380D01*
X017700Y007380D01*
X017534Y007380D01*
X017417Y007263D01*
X017417Y005523D01*
X017149Y005322D02*
X019302Y005322D01*
X019302Y005198D02*
X019378Y005122D01*
X020982Y005122D01*
X021058Y005198D01*
X021058Y005857D01*
X020982Y005933D01*
X019378Y005933D01*
X019302Y005857D01*
X019302Y005198D01*
X019337Y005163D02*
X018420Y005163D01*
X018470Y005005D02*
X022500Y005005D01*
X022500Y004846D02*
X021001Y004846D01*
X020982Y004865D02*
X021058Y004789D01*
X021058Y004130D01*
X020982Y004054D01*
X019378Y004054D01*
X019302Y004130D01*
X019302Y004789D01*
X019378Y004865D01*
X020982Y004865D01*
X021058Y004688D02*
X022500Y004688D01*
X021822Y004529D02*
X021058Y004529D01*
X021058Y004371D02*
X021756Y004371D01*
X021756Y004212D02*
X021058Y004212D01*
X021756Y004054D02*
X018612Y004054D01*
X018612Y003895D02*
X021756Y003895D01*
X021756Y003737D02*
X018612Y003737D01*
X018612Y003578D02*
X021756Y003578D01*
X021756Y003420D02*
X018612Y003420D01*
X018612Y003261D02*
X021756Y003261D01*
X021756Y003103D02*
X018612Y003103D01*
X018612Y002944D02*
X021756Y002944D01*
X021756Y002786D02*
X018612Y002786D01*
X018612Y002723D02*
X018612Y004463D01*
X018495Y004580D01*
X017542Y004580D01*
X017425Y004463D01*
X017425Y002723D01*
X017542Y002606D01*
X017708Y002606D01*
X018330Y002606D01*
X018495Y002606D01*
X018612Y002723D01*
X018516Y002627D02*
X021852Y002627D01*
X022400Y002469D02*
X013880Y002469D01*
X013880Y002627D02*
X017521Y002627D01*
X017425Y002786D02*
X013880Y002786D01*
X013880Y002944D02*
X017425Y002944D01*
X017425Y003103D02*
X013880Y003103D01*
X013880Y003261D02*
X017425Y003261D01*
X017425Y003420D02*
X013880Y003420D01*
X013880Y003578D02*
X017425Y003578D01*
X017425Y003737D02*
X016229Y003737D01*
X015731Y003737D02*
X013880Y003737D01*
X013880Y003895D02*
X015690Y003895D01*
X015733Y004054D02*
X013880Y004054D01*
X013880Y004212D02*
X016002Y004212D01*
X016280Y004193D02*
X015980Y003893D01*
X016279Y003895D02*
X017425Y003895D01*
X017425Y004054D02*
X016438Y004054D01*
X016490Y004212D02*
X017425Y004212D01*
X017425Y004371D02*
X016490Y004371D01*
X016490Y004529D02*
X017491Y004529D01*
X018546Y004529D02*
X019302Y004529D01*
X019302Y004371D02*
X018612Y004371D01*
X018612Y004212D02*
X019302Y004212D01*
X019302Y004688D02*
X016490Y004688D01*
X016070Y004688D02*
X014570Y004688D01*
X014280Y004693D02*
X014180Y004693D01*
X014080Y004793D01*
X013280Y004793D01*
X013080Y004593D01*
X013080Y003893D01*
X012080Y002893D01*
X011080Y002893D01*
X011080Y003593D01*
X011580Y004093D01*
X011580Y006793D01*
X011680Y006893D01*
X011385Y006895D02*
X011385Y006952D01*
X011430Y007060D01*
X011513Y007143D01*
X011621Y007188D01*
X011739Y007188D01*
X011837Y007148D01*
X011844Y007161D01*
X011875Y007203D01*
X010500Y007203D01*
X010435Y007138D01*
X010430Y007126D01*
X010347Y007043D01*
X010239Y006998D01*
X010121Y006998D01*
X010109Y007003D01*
X009800Y007003D01*
X009326Y006529D01*
X009117Y006320D01*
X009159Y006320D01*
X009235Y006244D01*
X009235Y005743D01*
X009159Y005666D01*
X007601Y005666D01*
X007525Y005743D01*
X007525Y006244D01*
X007601Y006320D01*
X008297Y006320D01*
X008916Y006939D01*
X009434Y007458D01*
X009516Y007539D01*
X009622Y007583D01*
X010060Y007583D01*
X010090Y007613D01*
X007793Y007613D01*
X007838Y007568D01*
X007911Y007392D01*
X007911Y007201D01*
X007838Y007025D01*
X007703Y006890D01*
X007526Y006816D01*
X006635Y006816D01*
X006459Y006890D01*
X006324Y007025D01*
X006251Y007201D01*
X006251Y007392D01*
X006324Y007568D01*
X006369Y007613D01*
X006280Y007613D01*
X006237Y007609D01*
X006158Y007576D01*
X006097Y007516D01*
X006064Y007436D01*
X006060Y007393D01*
X006060Y002693D01*
X006066Y002631D01*
X006114Y002516D01*
X006202Y002427D01*
X006318Y002379D01*
X006368Y002375D01*
X006324Y002418D01*
X006251Y002595D01*
X006251Y002786D01*
X006060Y002786D01*
X006060Y002944D02*
X006317Y002944D01*
X006324Y002962D02*
X006251Y002786D01*
X006324Y002962D02*
X006459Y003097D01*
X006635Y003170D01*
X006856Y003170D01*
X006593Y003433D01*
X006470Y003556D01*
X006470Y004580D01*
X006970Y005080D01*
X007093Y005203D01*
X007525Y005203D01*
X007525Y005244D01*
X007601Y005320D01*
X009159Y005320D01*
X009235Y005244D01*
X009235Y004743D01*
X009159Y004666D01*
X009057Y004666D01*
X009074Y004659D01*
X009110Y004623D01*
X010120Y004623D01*
X010156Y004659D01*
X010174Y004666D01*
X009401Y004666D01*
X009325Y004743D01*
X009325Y005244D01*
X009401Y005320D01*
X010210Y005320D01*
X010293Y005403D01*
X010973Y005403D01*
X011013Y005443D01*
X011121Y005488D01*
X011239Y005488D01*
X011347Y005443D01*
X011370Y005420D01*
X011370Y006880D01*
X011385Y006895D01*
X011385Y006907D02*
X010384Y006907D01*
X010347Y006943D02*
X010239Y006988D01*
X010121Y006988D01*
X010013Y006943D01*
X009930Y006860D01*
X009885Y006752D01*
X009885Y006635D01*
X009930Y006526D01*
X009970Y006486D01*
X009970Y006320D01*
X009401Y006320D01*
X009325Y006244D01*
X009325Y005743D01*
X009401Y005666D01*
X010959Y005666D01*
X011035Y005743D01*
X011035Y006244D01*
X010959Y006320D01*
X010390Y006320D01*
X010390Y006486D01*
X010430Y006526D01*
X010475Y006635D01*
X010475Y006752D01*
X010430Y006860D01*
X010347Y006943D01*
X010369Y007065D02*
X011435Y007065D01*
X012262Y006875D02*
X012299Y006875D01*
X012299Y006383D01*
X012320Y006383D01*
X012400Y006396D01*
X012476Y006421D01*
X012547Y006457D01*
X012612Y006504D01*
X012669Y006561D01*
X012670Y006562D01*
X012670Y006154D01*
X012541Y006283D01*
X012372Y006353D01*
X012189Y006353D01*
X012020Y006283D01*
X011890Y006154D01*
X011820Y005985D01*
X011820Y005802D01*
X011890Y005633D01*
X012020Y005503D01*
X012189Y005433D01*
X012372Y005433D01*
X012541Y005503D01*
X012670Y005633D01*
X012670Y005006D01*
X012733Y004943D01*
X012570Y004780D01*
X012570Y004080D01*
X012243Y003753D01*
X011730Y003753D01*
X011694Y003789D01*
X011609Y003825D01*
X011790Y004006D01*
X011790Y006620D01*
X011837Y006639D01*
X011844Y006626D01*
X011891Y006561D01*
X011948Y006504D01*
X012013Y006457D01*
X012084Y006421D01*
X012161Y006396D01*
X012240Y006383D01*
X012262Y006383D01*
X012262Y006875D01*
X012262Y006748D02*
X012299Y006748D01*
X012299Y006590D02*
X012262Y006590D01*
X011870Y006590D02*
X011790Y006590D01*
X011370Y006590D02*
X010457Y006590D01*
X010475Y006748D02*
X011370Y006748D01*
X011370Y006431D02*
X010390Y006431D01*
X009970Y006431D02*
X009228Y006431D01*
X009206Y006273D02*
X009354Y006273D01*
X009325Y006114D02*
X009235Y006114D01*
X009235Y005956D02*
X009325Y005956D01*
X009325Y005797D02*
X009235Y005797D01*
X010180Y005993D02*
X010180Y006693D01*
X009904Y006590D02*
X009387Y006590D01*
X009545Y006748D02*
X009885Y006748D01*
X009976Y006907D02*
X009704Y006907D01*
X009201Y007224D02*
X007911Y007224D01*
X007855Y007065D02*
X009042Y007065D01*
X008884Y006907D02*
X007720Y006907D01*
X008567Y006590D02*
X006060Y006590D01*
X006060Y006748D02*
X008725Y006748D01*
X008408Y006431D02*
X006060Y006431D01*
X006060Y006273D02*
X007023Y006273D01*
X007030Y006276D02*
X006884Y006215D01*
X006772Y006104D01*
X006712Y005958D01*
X006712Y005800D01*
X006772Y005655D01*
X006884Y005543D01*
X007030Y005483D01*
X007187Y005483D01*
X007333Y005543D01*
X007445Y005655D01*
X007505Y005800D01*
X007505Y005958D01*
X007445Y006104D01*
X007333Y006215D01*
X007187Y006276D01*
X007030Y006276D01*
X007194Y006273D02*
X007554Y006273D01*
X007525Y006114D02*
X007434Y006114D01*
X007505Y005956D02*
X007525Y005956D01*
X007525Y005797D02*
X007504Y005797D01*
X007429Y005639D02*
X011370Y005639D01*
X011370Y005480D02*
X011258Y005480D01*
X011102Y005480D02*
X006060Y005480D01*
X006060Y005639D02*
X006788Y005639D01*
X006713Y005797D02*
X006060Y005797D01*
X006060Y005956D02*
X006712Y005956D01*
X006783Y006114D02*
X006060Y006114D01*
X006060Y005322D02*
X010212Y005322D01*
X010380Y005193D02*
X011180Y005193D01*
X011790Y005163D02*
X012670Y005163D01*
X012672Y005005D02*
X011790Y005005D01*
X011790Y004846D02*
X012636Y004846D01*
X012780Y004693D02*
X013030Y004943D01*
X012780Y004693D02*
X012780Y003993D01*
X012330Y003543D01*
X011530Y003543D01*
X011035Y003845D02*
X011035Y004244D01*
X010959Y004320D01*
X010595Y004320D01*
X010610Y004356D01*
X010610Y004471D01*
X010566Y004578D01*
X010484Y004659D01*
X010467Y004666D01*
X010959Y004666D01*
X011035Y004743D01*
X011035Y004934D01*
X011121Y004898D01*
X011239Y004898D01*
X011347Y004943D01*
X011370Y004966D01*
X011370Y004180D01*
X011035Y003845D01*
X011035Y003895D02*
X011085Y003895D01*
X011035Y004054D02*
X011244Y004054D01*
X011679Y003895D02*
X012385Y003895D01*
X012544Y004054D02*
X011790Y004054D01*
X011790Y004212D02*
X012570Y004212D01*
X012570Y004371D02*
X011790Y004371D01*
X011790Y004529D02*
X012570Y004529D01*
X012570Y004688D02*
X011790Y004688D01*
X011370Y004688D02*
X010980Y004688D01*
X011035Y004846D02*
X011370Y004846D01*
X011370Y004529D02*
X010586Y004529D01*
X010610Y004371D02*
X011370Y004371D01*
X011370Y004212D02*
X011035Y004212D01*
X010320Y004413D02*
X008910Y004413D01*
X008644Y004529D02*
X007013Y004529D01*
X007030Y004504D02*
X006958Y004474D01*
X007267Y004783D01*
X007525Y004783D01*
X007525Y004743D01*
X007601Y004666D01*
X008764Y004666D01*
X008746Y004659D01*
X008664Y004578D01*
X008620Y004471D01*
X008620Y004370D01*
X008399Y004370D01*
X008399Y004012D01*
X009285Y004012D01*
X009285Y004203D01*
X009325Y004203D01*
X009325Y003743D01*
X009401Y003666D01*
X010210Y003666D01*
X010326Y003551D01*
X010285Y003452D01*
X010285Y003335D01*
X010330Y003226D01*
X010413Y003143D01*
X010509Y003103D01*
X008267Y003103D01*
X007990Y003380D01*
X007867Y003503D01*
X007117Y003503D01*
X006890Y003730D01*
X006890Y003769D01*
X007030Y003711D01*
X007187Y003711D01*
X007333Y003771D01*
X007445Y003883D01*
X007475Y003956D01*
X007475Y003773D01*
X007487Y003727D01*
X007511Y003686D01*
X007545Y003652D01*
X007586Y003629D01*
X007631Y003616D01*
X008362Y003616D01*
X008362Y003975D01*
X008399Y003975D01*
X008399Y004012D01*
X008362Y004012D01*
X008362Y004370D01*
X007631Y004370D01*
X007586Y004358D01*
X007545Y004334D01*
X007511Y004301D01*
X007487Y004260D01*
X007482Y004241D01*
X007445Y004332D01*
X007333Y004444D01*
X007187Y004504D01*
X007030Y004504D01*
X006680Y004493D02*
X007180Y004993D01*
X008380Y004993D01*
X009235Y005005D02*
X009325Y005005D01*
X009325Y004846D02*
X009235Y004846D01*
X009180Y004688D02*
X009380Y004688D01*
X008620Y004371D02*
X007406Y004371D01*
X006680Y004493D02*
X006680Y003643D01*
X007030Y003293D01*
X007780Y003293D01*
X008080Y002993D01*
X008080Y002893D01*
X011080Y002893D01*
X010965Y002627D02*
X007911Y002627D01*
X007911Y002595D02*
X007911Y002766D01*
X007993Y002683D01*
X010880Y002683D01*
X010916Y002647D01*
X011022Y002603D01*
X011138Y002603D01*
X011244Y002647D01*
X011280Y002683D01*
X012167Y002683D01*
X013280Y003796D01*
X013280Y002373D01*
X007793Y002373D01*
X007838Y002418D01*
X007911Y002595D01*
X007859Y002469D02*
X013280Y002469D01*
X013280Y002627D02*
X011196Y002627D01*
X012270Y002786D02*
X013280Y002786D01*
X013280Y002944D02*
X012428Y002944D01*
X012587Y003103D02*
X013280Y003103D01*
X013280Y003261D02*
X012745Y003261D01*
X012904Y003420D02*
X013280Y003420D01*
X013280Y003578D02*
X013062Y003578D01*
X013221Y003737D02*
X013280Y003737D01*
X013880Y004371D02*
X016070Y004371D01*
X016070Y004529D02*
X014526Y004529D01*
X014034Y004529D02*
X013880Y004529D01*
X014531Y004846D02*
X015619Y004846D01*
X015942Y004846D02*
X016070Y004846D01*
X017180Y004993D02*
X018180Y004993D01*
X018433Y004846D02*
X019360Y004846D01*
X021024Y005163D02*
X022500Y005163D01*
X022500Y005322D02*
X021058Y005322D01*
X021058Y005480D02*
X021791Y005480D01*
X021748Y005639D02*
X021058Y005639D01*
X021058Y005797D02*
X021748Y005797D01*
X021748Y005956D02*
X018604Y005956D01*
X018604Y006114D02*
X021748Y006114D01*
X021748Y006273D02*
X018604Y006273D01*
X018604Y006431D02*
X021748Y006431D01*
X021748Y006590D02*
X018604Y006590D01*
X018604Y006748D02*
X021748Y006748D01*
X021748Y006907D02*
X018604Y006907D01*
X018604Y007065D02*
X021748Y007065D01*
X021748Y007224D02*
X018604Y007224D01*
X017417Y007224D02*
X013880Y007224D01*
X013880Y007065D02*
X017417Y007065D01*
X017417Y006907D02*
X013880Y006907D01*
X013880Y007382D02*
X022470Y007382D01*
X022343Y007541D02*
X013880Y007541D01*
X013880Y006431D02*
X015392Y006431D01*
X015491Y006273D02*
X013880Y006273D01*
X013880Y006114D02*
X015762Y006114D01*
X015856Y005956D02*
X013880Y005956D01*
X013880Y005797D02*
X015709Y005797D01*
X015980Y005693D02*
X016280Y005393D01*
X016280Y004193D01*
X016490Y005322D02*
X016555Y005322D01*
X016055Y005322D02*
X015962Y005322D01*
X015783Y005480D02*
X013880Y005480D01*
X013880Y005639D02*
X015690Y005639D01*
X015599Y005322D02*
X014462Y005322D01*
X014099Y005322D02*
X013880Y005322D01*
X012670Y005322D02*
X011790Y005322D01*
X011790Y005480D02*
X012075Y005480D01*
X011888Y005639D02*
X011790Y005639D01*
X011790Y005797D02*
X011822Y005797D01*
X011370Y005797D02*
X011035Y005797D01*
X011035Y005956D02*
X011370Y005956D01*
X011370Y006114D02*
X011035Y006114D01*
X011006Y006273D02*
X011370Y006273D01*
X011790Y006273D02*
X012009Y006273D01*
X012063Y006431D02*
X011790Y006431D01*
X012262Y006431D02*
X012299Y006431D01*
X012497Y006431D02*
X012670Y006431D01*
X012670Y006273D02*
X012551Y006273D01*
X012670Y006154D02*
X012670Y006154D01*
X011874Y006114D02*
X011790Y006114D01*
X011790Y005956D02*
X011820Y005956D01*
X012670Y005633D02*
X012670Y005633D01*
X012670Y005480D02*
X012485Y005480D01*
X010380Y005193D02*
X010180Y004993D01*
X009325Y005163D02*
X009235Y005163D01*
X007580Y004688D02*
X007172Y004688D01*
X006578Y004688D02*
X006060Y004688D01*
X006060Y004846D02*
X006736Y004846D01*
X006895Y005005D02*
X006060Y005005D01*
X006060Y005163D02*
X007053Y005163D01*
X006470Y004529D02*
X006060Y004529D01*
X006060Y004371D02*
X006470Y004371D01*
X006470Y004212D02*
X006060Y004212D01*
X006060Y004054D02*
X006470Y004054D01*
X006470Y003895D02*
X006060Y003895D01*
X006060Y003737D02*
X006470Y003737D01*
X006470Y003578D02*
X006060Y003578D01*
X006060Y003420D02*
X006607Y003420D01*
X006765Y003261D02*
X006060Y003261D01*
X006060Y003103D02*
X006473Y003103D01*
X006251Y002627D02*
X006068Y002627D01*
X006161Y002469D02*
X006303Y002469D01*
X008109Y003261D02*
X010316Y003261D01*
X010285Y003420D02*
X007951Y003420D01*
X008399Y003616D02*
X009129Y003616D01*
X009175Y003629D01*
X009216Y003652D01*
X009249Y003686D01*
X009273Y003727D01*
X009285Y003773D01*
X009285Y003975D01*
X008399Y003975D01*
X008399Y003616D01*
X008399Y003737D02*
X008362Y003737D01*
X008362Y003895D02*
X008399Y003895D01*
X008399Y004054D02*
X008362Y004054D01*
X008362Y004212D02*
X008399Y004212D01*
X009285Y004054D02*
X009325Y004054D01*
X009325Y003895D02*
X009285Y003895D01*
X009276Y003737D02*
X009331Y003737D01*
X010180Y003993D02*
X010580Y003593D01*
X010580Y003393D01*
X010298Y003578D02*
X007042Y003578D01*
X006967Y003737D02*
X006890Y003737D01*
X007250Y003737D02*
X007485Y003737D01*
X007475Y003895D02*
X007450Y003895D01*
X006442Y006907D02*
X006060Y006907D01*
X006060Y007065D02*
X006307Y007065D01*
X006251Y007224D02*
X006060Y007224D01*
X006060Y007382D02*
X006251Y007382D01*
X006313Y007541D02*
X006123Y007541D01*
X007849Y007541D02*
X009520Y007541D01*
X009359Y007382D02*
X007911Y007382D01*
X018604Y005797D02*
X019302Y005797D01*
X019302Y005639D02*
X018604Y005639D01*
X018561Y005480D02*
X019302Y005480D01*
M02*
