G75*
%MOIN*%
%OFA0B0*%
%FSLAX24Y24*%
%IPPOS*%
%LPD*%
%AMOC8*
5,1,8,0,0,1.08239X$1,22.5*
%
%ADD10C,0.0000*%
%ADD11R,0.0433X0.0394*%
%ADD12R,0.0248X0.0327*%
%ADD13R,0.0394X0.0433*%
%ADD14R,0.0870X0.0240*%
%ADD15R,0.0217X0.0531*%
%ADD16R,0.0472X0.0217*%
%ADD17R,0.0315X0.0315*%
%ADD18C,0.0660*%
%ADD19R,0.0630X0.0709*%
%ADD20R,0.3307X0.1969*%
%ADD21R,0.1496X0.0551*%
%ADD22C,0.0039*%
%ADD23R,0.0984X0.0315*%
%ADD24C,0.0700*%
%ADD25C,0.0080*%
%ADD26R,0.0250X0.0500*%
%ADD27C,0.0320*%
%ADD28C,0.0320*%
%ADD29C,0.0330*%
%ADD30C,0.0160*%
%ADD31C,0.0240*%
%ADD32C,0.0120*%
D10*
X006380Y002193D02*
X022180Y002193D01*
X022224Y002195D01*
X022267Y002201D01*
X022309Y002210D01*
X022351Y002223D01*
X022391Y002240D01*
X022430Y002260D01*
X022467Y002283D01*
X022501Y002310D01*
X022534Y002339D01*
X022563Y002372D01*
X022590Y002406D01*
X022613Y002443D01*
X022633Y002482D01*
X022650Y002522D01*
X022663Y002564D01*
X022672Y002606D01*
X022678Y002649D01*
X022680Y002693D01*
X022680Y007293D01*
X022674Y007338D01*
X022664Y007383D01*
X022651Y007426D01*
X022634Y007469D01*
X022613Y007510D01*
X022590Y007549D01*
X022563Y007586D01*
X022533Y007620D01*
X022501Y007652D01*
X022466Y007681D01*
X022428Y007708D01*
X022389Y007731D01*
X022348Y007750D01*
X022305Y007766D01*
X022261Y007779D01*
X022217Y007788D01*
X022171Y007793D01*
X022126Y007795D01*
X022080Y007793D01*
X006280Y007793D01*
X006241Y007791D01*
X006202Y007785D01*
X006164Y007776D01*
X006127Y007763D01*
X006091Y007746D01*
X006058Y007726D01*
X006026Y007702D01*
X005997Y007676D01*
X005971Y007647D01*
X005947Y007615D01*
X005927Y007582D01*
X005910Y007546D01*
X005897Y007509D01*
X005888Y007471D01*
X005882Y007432D01*
X005880Y007393D01*
X005880Y002693D01*
X005882Y002649D01*
X005888Y002606D01*
X005897Y002564D01*
X005910Y002522D01*
X005927Y002482D01*
X005947Y002443D01*
X005970Y002406D01*
X005997Y002372D01*
X006026Y002339D01*
X006059Y002310D01*
X006093Y002283D01*
X006130Y002260D01*
X006169Y002240D01*
X006209Y002223D01*
X006251Y002210D01*
X006293Y002201D01*
X006336Y002195D01*
X006380Y002193D01*
X006609Y002690D02*
X006611Y002715D01*
X006617Y002739D01*
X006626Y002761D01*
X006639Y002782D01*
X006655Y002801D01*
X006674Y002817D01*
X006695Y002830D01*
X006717Y002839D01*
X006741Y002845D01*
X006766Y002847D01*
X006791Y002845D01*
X006815Y002839D01*
X006837Y002830D01*
X006858Y002817D01*
X006877Y002801D01*
X006893Y002782D01*
X006906Y002761D01*
X006915Y002739D01*
X006921Y002715D01*
X006923Y002690D01*
X006921Y002665D01*
X006915Y002641D01*
X006906Y002619D01*
X006893Y002598D01*
X006877Y002579D01*
X006858Y002563D01*
X006837Y002550D01*
X006815Y002541D01*
X006791Y002535D01*
X006766Y002533D01*
X006741Y002535D01*
X006717Y002541D01*
X006695Y002550D01*
X006674Y002563D01*
X006655Y002579D01*
X006639Y002598D01*
X006626Y002619D01*
X006617Y002641D01*
X006611Y002665D01*
X006609Y002690D01*
X006766Y002690D02*
X006768Y002715D01*
X006774Y002739D01*
X006783Y002761D01*
X006796Y002782D01*
X006812Y002801D01*
X006831Y002817D01*
X006852Y002830D01*
X006874Y002839D01*
X006898Y002845D01*
X006923Y002847D01*
X006948Y002845D01*
X006972Y002839D01*
X006994Y002830D01*
X007015Y002817D01*
X007034Y002801D01*
X007050Y002782D01*
X007063Y002761D01*
X007072Y002739D01*
X007078Y002715D01*
X007080Y002690D01*
X007078Y002665D01*
X007072Y002641D01*
X007063Y002619D01*
X007050Y002598D01*
X007034Y002579D01*
X007015Y002563D01*
X006994Y002550D01*
X006972Y002541D01*
X006948Y002535D01*
X006923Y002533D01*
X006898Y002535D01*
X006874Y002541D01*
X006852Y002550D01*
X006831Y002563D01*
X006812Y002579D01*
X006796Y002598D01*
X006783Y002619D01*
X006774Y002641D01*
X006768Y002665D01*
X006766Y002690D01*
X007081Y002690D02*
X007083Y002715D01*
X007089Y002739D01*
X007098Y002761D01*
X007111Y002782D01*
X007127Y002801D01*
X007146Y002817D01*
X007167Y002830D01*
X007189Y002839D01*
X007213Y002845D01*
X007238Y002847D01*
X007263Y002845D01*
X007287Y002839D01*
X007309Y002830D01*
X007330Y002817D01*
X007349Y002801D01*
X007365Y002782D01*
X007378Y002761D01*
X007387Y002739D01*
X007393Y002715D01*
X007395Y002690D01*
X007393Y002665D01*
X007387Y002641D01*
X007378Y002619D01*
X007365Y002598D01*
X007349Y002579D01*
X007330Y002563D01*
X007309Y002550D01*
X007287Y002541D01*
X007263Y002535D01*
X007238Y002533D01*
X007213Y002535D01*
X007189Y002541D01*
X007167Y002550D01*
X007146Y002563D01*
X007127Y002579D01*
X007111Y002598D01*
X007098Y002619D01*
X007089Y002641D01*
X007083Y002665D01*
X007081Y002690D01*
X007239Y002690D02*
X007241Y002715D01*
X007247Y002739D01*
X007256Y002761D01*
X007269Y002782D01*
X007285Y002801D01*
X007304Y002817D01*
X007325Y002830D01*
X007347Y002839D01*
X007371Y002845D01*
X007396Y002847D01*
X007421Y002845D01*
X007445Y002839D01*
X007467Y002830D01*
X007488Y002817D01*
X007507Y002801D01*
X007523Y002782D01*
X007536Y002761D01*
X007545Y002739D01*
X007551Y002715D01*
X007553Y002690D01*
X007551Y002665D01*
X007545Y002641D01*
X007536Y002619D01*
X007523Y002598D01*
X007507Y002579D01*
X007488Y002563D01*
X007467Y002550D01*
X007445Y002541D01*
X007421Y002535D01*
X007396Y002533D01*
X007371Y002535D01*
X007347Y002541D01*
X007325Y002550D01*
X007304Y002563D01*
X007285Y002579D01*
X007269Y002598D01*
X007256Y002619D01*
X007247Y002641D01*
X007241Y002665D01*
X007239Y002690D01*
X006892Y004107D02*
X006894Y004136D01*
X006900Y004164D01*
X006909Y004192D01*
X006922Y004218D01*
X006939Y004241D01*
X006958Y004263D01*
X006980Y004282D01*
X007005Y004297D01*
X007031Y004310D01*
X007059Y004318D01*
X007087Y004323D01*
X007116Y004324D01*
X007145Y004321D01*
X007173Y004314D01*
X007200Y004304D01*
X007226Y004290D01*
X007249Y004273D01*
X007270Y004253D01*
X007288Y004230D01*
X007303Y004205D01*
X007314Y004178D01*
X007322Y004150D01*
X007326Y004121D01*
X007326Y004093D01*
X007322Y004064D01*
X007314Y004036D01*
X007303Y004009D01*
X007288Y003984D01*
X007270Y003961D01*
X007249Y003941D01*
X007226Y003924D01*
X007200Y003910D01*
X007173Y003900D01*
X007145Y003893D01*
X007116Y003890D01*
X007087Y003891D01*
X007059Y003896D01*
X007031Y003904D01*
X007005Y003917D01*
X006980Y003932D01*
X006958Y003951D01*
X006939Y003973D01*
X006922Y003996D01*
X006909Y004022D01*
X006900Y004050D01*
X006894Y004078D01*
X006892Y004107D01*
X006892Y005879D02*
X006894Y005908D01*
X006900Y005936D01*
X006909Y005964D01*
X006922Y005990D01*
X006939Y006013D01*
X006958Y006035D01*
X006980Y006054D01*
X007005Y006069D01*
X007031Y006082D01*
X007059Y006090D01*
X007087Y006095D01*
X007116Y006096D01*
X007145Y006093D01*
X007173Y006086D01*
X007200Y006076D01*
X007226Y006062D01*
X007249Y006045D01*
X007270Y006025D01*
X007288Y006002D01*
X007303Y005977D01*
X007314Y005950D01*
X007322Y005922D01*
X007326Y005893D01*
X007326Y005865D01*
X007322Y005836D01*
X007314Y005808D01*
X007303Y005781D01*
X007288Y005756D01*
X007270Y005733D01*
X007249Y005713D01*
X007226Y005696D01*
X007200Y005682D01*
X007173Y005672D01*
X007145Y005665D01*
X007116Y005662D01*
X007087Y005663D01*
X007059Y005668D01*
X007031Y005676D01*
X007005Y005689D01*
X006980Y005704D01*
X006958Y005723D01*
X006939Y005745D01*
X006922Y005768D01*
X006909Y005794D01*
X006900Y005822D01*
X006894Y005850D01*
X006892Y005879D01*
X006766Y007296D02*
X006768Y007321D01*
X006774Y007345D01*
X006783Y007367D01*
X006796Y007388D01*
X006812Y007407D01*
X006831Y007423D01*
X006852Y007436D01*
X006874Y007445D01*
X006898Y007451D01*
X006923Y007453D01*
X006948Y007451D01*
X006972Y007445D01*
X006994Y007436D01*
X007015Y007423D01*
X007034Y007407D01*
X007050Y007388D01*
X007063Y007367D01*
X007072Y007345D01*
X007078Y007321D01*
X007080Y007296D01*
X007078Y007271D01*
X007072Y007247D01*
X007063Y007225D01*
X007050Y007204D01*
X007034Y007185D01*
X007015Y007169D01*
X006994Y007156D01*
X006972Y007147D01*
X006948Y007141D01*
X006923Y007139D01*
X006898Y007141D01*
X006874Y007147D01*
X006852Y007156D01*
X006831Y007169D01*
X006812Y007185D01*
X006796Y007204D01*
X006783Y007225D01*
X006774Y007247D01*
X006768Y007271D01*
X006766Y007296D01*
X006609Y007296D02*
X006611Y007321D01*
X006617Y007345D01*
X006626Y007367D01*
X006639Y007388D01*
X006655Y007407D01*
X006674Y007423D01*
X006695Y007436D01*
X006717Y007445D01*
X006741Y007451D01*
X006766Y007453D01*
X006791Y007451D01*
X006815Y007445D01*
X006837Y007436D01*
X006858Y007423D01*
X006877Y007407D01*
X006893Y007388D01*
X006906Y007367D01*
X006915Y007345D01*
X006921Y007321D01*
X006923Y007296D01*
X006921Y007271D01*
X006915Y007247D01*
X006906Y007225D01*
X006893Y007204D01*
X006877Y007185D01*
X006858Y007169D01*
X006837Y007156D01*
X006815Y007147D01*
X006791Y007141D01*
X006766Y007139D01*
X006741Y007141D01*
X006717Y007147D01*
X006695Y007156D01*
X006674Y007169D01*
X006655Y007185D01*
X006639Y007204D01*
X006626Y007225D01*
X006617Y007247D01*
X006611Y007271D01*
X006609Y007296D01*
X007081Y007296D02*
X007083Y007321D01*
X007089Y007345D01*
X007098Y007367D01*
X007111Y007388D01*
X007127Y007407D01*
X007146Y007423D01*
X007167Y007436D01*
X007189Y007445D01*
X007213Y007451D01*
X007238Y007453D01*
X007263Y007451D01*
X007287Y007445D01*
X007309Y007436D01*
X007330Y007423D01*
X007349Y007407D01*
X007365Y007388D01*
X007378Y007367D01*
X007387Y007345D01*
X007393Y007321D01*
X007395Y007296D01*
X007393Y007271D01*
X007387Y007247D01*
X007378Y007225D01*
X007365Y007204D01*
X007349Y007185D01*
X007330Y007169D01*
X007309Y007156D01*
X007287Y007147D01*
X007263Y007141D01*
X007238Y007139D01*
X007213Y007141D01*
X007189Y007147D01*
X007167Y007156D01*
X007146Y007169D01*
X007127Y007185D01*
X007111Y007204D01*
X007098Y007225D01*
X007089Y007247D01*
X007083Y007271D01*
X007081Y007296D01*
X007239Y007296D02*
X007241Y007321D01*
X007247Y007345D01*
X007256Y007367D01*
X007269Y007388D01*
X007285Y007407D01*
X007304Y007423D01*
X007325Y007436D01*
X007347Y007445D01*
X007371Y007451D01*
X007396Y007453D01*
X007421Y007451D01*
X007445Y007445D01*
X007467Y007436D01*
X007488Y007423D01*
X007507Y007407D01*
X007523Y007388D01*
X007536Y007367D01*
X007545Y007345D01*
X007551Y007321D01*
X007553Y007296D01*
X007551Y007271D01*
X007545Y007247D01*
X007536Y007225D01*
X007523Y007204D01*
X007507Y007185D01*
X007488Y007169D01*
X007467Y007156D01*
X007445Y007147D01*
X007421Y007141D01*
X007396Y007139D01*
X007371Y007141D01*
X007347Y007147D01*
X007325Y007156D01*
X007304Y007169D01*
X007285Y007185D01*
X007269Y007204D01*
X007256Y007225D01*
X007247Y007247D01*
X007241Y007271D01*
X007239Y007296D01*
D11*
X014646Y005918D03*
X015315Y005918D03*
X016446Y005993D03*
X017115Y005993D03*
X012715Y004593D03*
X012046Y004593D03*
X014646Y003293D03*
X015315Y003293D03*
X015315Y002593D03*
X014646Y002593D03*
X016446Y003993D03*
X017115Y003993D03*
D12*
X011433Y004793D03*
X010527Y004793D03*
X010033Y005493D03*
X009127Y005493D03*
D13*
X010646Y005693D03*
X011315Y005693D03*
X009915Y006193D03*
X009246Y006193D03*
X010646Y006493D03*
X011315Y006493D03*
X011315Y007293D03*
X010646Y007293D03*
X016446Y007393D03*
X017115Y007393D03*
X017115Y006693D03*
X016446Y006693D03*
X009915Y004793D03*
X009246Y004793D03*
X008915Y002793D03*
X008246Y002793D03*
X016446Y002593D03*
X017115Y002593D03*
X017115Y003293D03*
X016446Y003293D03*
D14*
X012400Y003043D03*
X012400Y002543D03*
X009750Y002543D03*
X009750Y003043D03*
X009750Y003543D03*
X009750Y004043D03*
X012400Y004043D03*
X012400Y003543D03*
D15*
X014606Y004052D03*
X014980Y004052D03*
X015354Y004052D03*
X015354Y005135D03*
X014980Y005135D03*
X014606Y005135D03*
D16*
X016268Y005367D03*
X017292Y005367D03*
X017292Y004993D03*
X017292Y004619D03*
X016268Y004619D03*
D17*
X012575Y005193D03*
X011985Y005193D03*
D18*
X012280Y005893D03*
X012280Y006893D03*
D19*
X014529Y007093D03*
X015631Y007093D03*
X009631Y007093D03*
X008529Y007093D03*
D20*
X020180Y006590D03*
X020180Y003396D03*
D21*
X020180Y004459D03*
X020180Y005527D03*
D22*
X020767Y005409D02*
X019586Y005409D01*
X019586Y005645D01*
X020767Y005645D01*
X020767Y005409D01*
X021948Y005606D02*
X022735Y005606D01*
X022735Y007181D01*
X021948Y007181D01*
X021948Y005606D01*
X020775Y004578D02*
X019594Y004578D01*
X019594Y004341D01*
X020775Y004341D01*
X020775Y004578D01*
X021956Y004381D02*
X021956Y002806D01*
X022743Y002806D01*
X022743Y004381D01*
X021956Y004381D01*
X018412Y004381D02*
X017625Y004381D01*
X017625Y002806D01*
X018412Y002806D01*
X018412Y004381D01*
X018405Y005606D02*
X017617Y005606D01*
X017617Y007181D01*
X018405Y007181D01*
X018405Y005606D01*
D23*
X008191Y005398D03*
X008191Y004589D03*
X008191Y003615D03*
X008191Y006391D03*
D24*
X007431Y007296D02*
X006731Y007296D01*
X006731Y002690D02*
X007431Y002690D01*
D25*
X013430Y002993D02*
X013730Y002993D01*
X013730Y006993D02*
X013430Y006993D01*
D26*
X013380Y006993D03*
X013780Y006993D03*
X013780Y002993D03*
X013380Y002993D03*
D27*
X012715Y004593D02*
X013080Y004959D01*
X013080Y006493D01*
X012880Y006693D01*
X012880Y007093D01*
X010646Y007293D02*
X010646Y006493D01*
X009246Y006193D02*
X008529Y006193D01*
X008529Y006391D01*
X008529Y006793D01*
X008529Y007093D01*
X008529Y006793D02*
X008531Y006776D01*
X008535Y006759D01*
X008542Y006743D01*
X008552Y006729D01*
X008565Y006716D01*
X008579Y006706D01*
X008595Y006699D01*
X008612Y006695D01*
X008629Y006693D01*
X009080Y006693D01*
X008529Y006391D02*
X008191Y006391D01*
X010180Y007293D02*
X010646Y007293D01*
D28*
X009080Y007493D03*
X009080Y006693D03*
X007180Y006593D03*
X006580Y006293D03*
X006380Y005593D03*
X006580Y004993D03*
X007380Y004693D03*
X006280Y004193D03*
X007180Y003593D03*
X006380Y003293D03*
X009080Y003293D03*
X011080Y002893D03*
X010480Y002593D03*
X013040Y003253D03*
X014180Y002993D03*
X015780Y002893D03*
X015980Y003493D03*
X015980Y003893D03*
X014180Y004093D03*
X014180Y003593D03*
X011530Y003543D03*
X011280Y004293D03*
X010320Y004413D03*
X008910Y004413D03*
X009680Y005493D03*
X011880Y006393D03*
X014180Y006393D03*
X014880Y006493D03*
X015680Y006493D03*
X015980Y005693D03*
X014180Y005493D03*
X014280Y005093D03*
X014280Y004693D03*
X015780Y005093D03*
X016680Y004993D03*
X018180Y004993D03*
X018780Y004693D03*
X019480Y004993D03*
X020180Y004993D03*
X020780Y004993D03*
X021380Y004693D03*
X021880Y004993D03*
X021380Y005293D03*
X018780Y005293D03*
X012880Y007093D03*
X012980Y007493D03*
X022180Y007493D03*
X022180Y002493D03*
D29*
X011180Y005193D03*
X010180Y006693D03*
X011680Y006893D03*
X010180Y007293D03*
X010580Y003393D03*
D30*
X010480Y003493D01*
X010480Y003993D01*
X010430Y004043D01*
X009750Y004043D01*
X009330Y004393D02*
X009180Y004243D01*
X009180Y003793D01*
X009430Y003543D01*
X009750Y003543D01*
X009261Y003293D02*
X009185Y003369D01*
X009185Y003491D01*
X008970Y003706D01*
X008970Y003880D01*
X008970Y004124D01*
X008968Y004123D01*
X008852Y004123D01*
X008746Y004167D01*
X008710Y004203D01*
X008280Y004203D01*
X008184Y004300D01*
X007837Y003953D01*
X008191Y003953D01*
X008191Y003615D01*
X008191Y003615D01*
X008191Y003278D01*
X008058Y003278D01*
X008196Y003140D01*
X008496Y003140D01*
X008572Y003064D01*
X008572Y002523D01*
X008496Y002447D01*
X007995Y002447D01*
X007919Y002523D01*
X007919Y002823D01*
X007879Y002863D01*
X007911Y002786D01*
X007919Y002786D01*
X007911Y002786D02*
X007911Y002595D01*
X007838Y002418D01*
X007793Y002373D01*
X009142Y002373D01*
X009135Y002400D01*
X009135Y002447D01*
X008664Y002447D01*
X008588Y002523D01*
X008588Y003064D01*
X008664Y003140D01*
X009064Y003140D01*
X009178Y003253D01*
X009221Y003253D01*
X009261Y003293D01*
X010239Y003293D01*
X010315Y003217D01*
X010315Y002869D01*
X010269Y002823D01*
X010296Y002807D01*
X010329Y002774D01*
X010353Y002733D01*
X010365Y002687D01*
X010365Y002543D01*
X009750Y002543D01*
X009750Y002543D01*
X010365Y002543D01*
X010365Y002400D01*
X010358Y002373D01*
X011303Y002373D01*
X011220Y002456D01*
X011073Y002603D01*
X011022Y002603D01*
X010916Y002647D01*
X010834Y002729D01*
X010790Y002836D01*
X010790Y002951D01*
X010834Y003058D01*
X010916Y003139D01*
X011002Y003175D01*
X010865Y003311D01*
X010830Y003226D01*
X010747Y003143D01*
X010639Y003098D01*
X010521Y003098D01*
X010413Y003143D01*
X010330Y003226D01*
X010285Y003335D01*
X010285Y003339D01*
X010239Y003293D01*
X009261Y003293D01*
X009229Y003261D02*
X008074Y003261D01*
X008191Y003278D02*
X008707Y003278D01*
X008753Y003290D01*
X008794Y003314D01*
X008827Y003347D01*
X008851Y003388D01*
X008863Y003434D01*
X008863Y003615D01*
X008191Y003615D01*
X008191Y003278D01*
X008191Y003420D02*
X008191Y003420D01*
X008191Y003578D02*
X008191Y003578D01*
X008191Y003615D02*
X008191Y003615D01*
X008191Y003615D01*
X008863Y003615D01*
X008863Y003797D01*
X008851Y003842D01*
X008827Y003883D01*
X008794Y003917D01*
X008753Y003941D01*
X008707Y003953D01*
X008191Y003953D01*
X008191Y003615D01*
X008191Y003737D02*
X008191Y003737D01*
X008191Y003895D02*
X008191Y003895D01*
X007938Y004054D02*
X008970Y004054D01*
X008970Y003895D02*
X008815Y003895D01*
X008863Y003737D02*
X008970Y003737D01*
X008863Y003578D02*
X009098Y003578D01*
X009185Y003420D02*
X008859Y003420D01*
X008627Y003103D02*
X008533Y003103D01*
X008572Y002944D02*
X008588Y002944D01*
X008572Y002786D02*
X008588Y002786D01*
X008915Y002793D02*
X009015Y002793D01*
X009265Y003043D01*
X009750Y003043D01*
X010315Y003103D02*
X010511Y003103D01*
X010650Y003103D02*
X010880Y003103D01*
X010845Y003261D02*
X010915Y003261D01*
X010316Y003261D02*
X010271Y003261D01*
X010315Y002944D02*
X010790Y002944D01*
X010811Y002786D02*
X010317Y002786D01*
X010365Y002627D02*
X010965Y002627D01*
X011080Y002893D02*
X011430Y002543D01*
X012400Y002543D01*
X011911Y002793D02*
X011871Y002753D01*
X011517Y002753D01*
X011437Y002833D01*
X011517Y002833D01*
X011871Y002833D01*
X011911Y002793D01*
X012889Y002793D01*
X012965Y002717D01*
X012965Y002373D01*
X013280Y002373D01*
X013280Y002563D01*
X013231Y002563D01*
X013186Y002576D01*
X013145Y002599D01*
X013111Y002633D01*
X013087Y002674D01*
X013075Y002720D01*
X013075Y002993D01*
X013260Y002993D01*
X013260Y002993D01*
X013075Y002993D01*
X013075Y003267D01*
X013087Y003313D01*
X013111Y003354D01*
X013145Y003387D01*
X013186Y003411D01*
X013231Y003423D01*
X013280Y003423D01*
X013280Y004749D01*
X013061Y004530D01*
X013061Y004343D01*
X012985Y004266D01*
X012916Y004266D01*
X012965Y004217D01*
X012965Y003869D01*
X012889Y003793D01*
X011911Y003793D01*
X011871Y003753D01*
X011730Y003753D01*
X011694Y003789D01*
X011588Y003833D01*
X011472Y003833D01*
X011400Y003803D01*
X011367Y003803D01*
X011190Y003980D01*
X011190Y004494D01*
X011198Y004486D01*
X011239Y004462D01*
X011285Y004450D01*
X011433Y004450D01*
X011581Y004450D01*
X011626Y004462D01*
X011649Y004475D01*
X011649Y004373D01*
X011661Y004327D01*
X011685Y004286D01*
X011718Y004252D01*
X011759Y004229D01*
X011805Y004216D01*
X011835Y004216D01*
X011835Y003869D01*
X011911Y003793D01*
X012889Y003793D01*
X012965Y003717D01*
X012965Y003369D01*
X012889Y003293D01*
X011911Y003293D01*
X011871Y003253D01*
X011517Y003253D01*
X011588Y003253D01*
X011694Y003297D01*
X011730Y003333D01*
X011871Y003333D01*
X011911Y003293D01*
X012889Y003293D01*
X012965Y003217D01*
X012965Y002869D01*
X012889Y002793D01*
X011911Y002793D01*
X011904Y002786D02*
X011485Y002786D01*
X011430Y003043D02*
X010730Y003743D01*
X010730Y004443D01*
X010527Y004621D02*
X010320Y004413D01*
X010527Y004621D02*
X010527Y004793D01*
X010273Y004846D02*
X010242Y004846D01*
X010242Y005005D02*
X010273Y005005D01*
X010273Y005011D02*
X010273Y004703D01*
X010262Y004703D01*
X010242Y004695D01*
X010242Y005064D01*
X010166Y005140D01*
X009664Y005140D01*
X009588Y005064D01*
X009588Y004763D01*
X009572Y004748D01*
X009572Y005064D01*
X009496Y005140D01*
X009242Y005140D01*
X009242Y005200D01*
X009305Y005200D01*
X009381Y005276D01*
X009381Y005398D01*
X009831Y005847D01*
X010166Y005847D01*
X010242Y005923D01*
X010242Y005935D01*
X010319Y005858D01*
X010319Y005737D01*
X010301Y005767D01*
X010267Y005801D01*
X010226Y005824D01*
X010181Y005837D01*
X010033Y005837D01*
X010033Y005493D01*
X010033Y005150D01*
X010181Y005150D01*
X010226Y005162D01*
X010267Y005186D01*
X010301Y005219D01*
X010325Y005260D01*
X010337Y005306D01*
X010337Y005405D01*
X010395Y005347D01*
X010436Y005347D01*
X010436Y005141D01*
X010490Y005087D01*
X010350Y005087D01*
X010273Y005011D01*
X010228Y005163D02*
X010436Y005163D01*
X010646Y005228D02*
X010780Y005093D01*
X010980Y004893D02*
X011180Y005093D01*
X011180Y005193D01*
X010646Y005228D02*
X010646Y005693D01*
X010646Y005828D01*
X010280Y006193D01*
X010280Y006593D01*
X010180Y006693D01*
X009709Y006748D02*
X009554Y006748D01*
X009554Y006590D02*
X009709Y006590D01*
X009709Y006559D02*
X009916Y006559D01*
X009924Y006540D01*
X009664Y006540D01*
X009588Y006464D01*
X009588Y006198D01*
X009572Y006182D01*
X009572Y006464D01*
X009496Y006540D01*
X009330Y006540D01*
X009338Y006559D01*
X009554Y006559D01*
X009554Y007016D01*
X009136Y007016D01*
X009136Y006983D01*
X008974Y006983D01*
X008974Y007501D01*
X008898Y007578D01*
X008160Y007578D01*
X008084Y007501D01*
X008084Y006685D01*
X008090Y006679D01*
X007645Y006679D01*
X007569Y006603D01*
X007569Y006180D01*
X007645Y006104D01*
X008127Y006104D01*
X008133Y006101D01*
X008253Y006101D01*
X008283Y006029D01*
X008365Y005947D01*
X008471Y005903D01*
X008938Y005903D01*
X008995Y005847D01*
X009237Y005847D01*
X009177Y005787D01*
X008950Y005787D01*
X008873Y005711D01*
X008873Y005608D01*
X008813Y005608D01*
X008813Y005609D01*
X008737Y005685D01*
X007645Y005685D01*
X007569Y005609D01*
X007569Y005186D01*
X007645Y005110D01*
X008737Y005110D01*
X008813Y005186D01*
X008813Y005188D01*
X008822Y005188D01*
X008822Y004920D01*
X008919Y004823D01*
X008919Y004703D01*
X008852Y004703D01*
X008813Y004687D01*
X008813Y004800D01*
X008737Y004876D01*
X007645Y004876D01*
X007569Y004800D01*
X007569Y004378D01*
X007618Y004328D01*
X007497Y004207D01*
X007445Y004332D01*
X007333Y004444D01*
X007187Y004504D01*
X007030Y004504D01*
X006884Y004444D01*
X006772Y004332D01*
X006712Y004186D01*
X006712Y004029D01*
X006772Y003883D01*
X006884Y003771D01*
X007030Y003711D01*
X007187Y003711D01*
X007270Y003745D01*
X007270Y003306D01*
X007393Y003183D01*
X007406Y003170D01*
X006635Y003170D01*
X006459Y003097D01*
X006324Y002962D01*
X006251Y002786D01*
X006060Y002786D01*
X006060Y002693D02*
X006060Y007393D01*
X006064Y007436D01*
X006097Y007516D01*
X006158Y007576D01*
X006237Y007609D01*
X006280Y007613D01*
X006369Y007613D01*
X006324Y007568D01*
X006251Y007392D01*
X006251Y007201D01*
X006324Y007025D01*
X006459Y006890D01*
X006635Y006816D01*
X007526Y006816D01*
X007703Y006890D01*
X007838Y007025D01*
X007911Y007201D01*
X007911Y007392D01*
X007838Y007568D01*
X007793Y007613D01*
X009243Y007613D01*
X009206Y007592D01*
X009172Y007558D01*
X009149Y007517D01*
X009136Y007471D01*
X009136Y007171D01*
X009554Y007171D01*
X009554Y007016D01*
X009709Y007016D01*
X009709Y006559D01*
X009588Y006431D02*
X009572Y006431D01*
X009572Y006273D02*
X009588Y006273D01*
X009880Y006193D02*
X009915Y006193D01*
X009880Y006193D02*
X009180Y005493D01*
X009127Y005493D01*
X009032Y005398D01*
X009032Y005007D01*
X009246Y004793D01*
X009572Y004846D02*
X009588Y004846D01*
X009572Y005005D02*
X009588Y005005D01*
X009798Y005186D02*
X009839Y005162D01*
X009885Y005150D01*
X010033Y005150D01*
X010033Y005493D01*
X010033Y005493D01*
X009729Y005493D01*
X009729Y005306D01*
X009741Y005260D01*
X009765Y005219D01*
X009798Y005186D01*
X009837Y005163D02*
X009242Y005163D01*
X008822Y005163D02*
X008790Y005163D01*
X008822Y005005D02*
X006060Y005005D01*
X006060Y004846D02*
X007615Y004846D01*
X007569Y004688D02*
X006060Y004688D01*
X006060Y004529D02*
X007569Y004529D01*
X007576Y004371D02*
X007406Y004371D01*
X007494Y004212D02*
X007502Y004212D01*
X008096Y004212D02*
X008271Y004212D01*
X008367Y004413D02*
X008191Y004589D01*
X008176Y004589D01*
X007480Y003893D01*
X007480Y003393D01*
X007580Y003293D01*
X007746Y003293D01*
X008246Y002793D01*
X008572Y002627D02*
X008588Y002627D01*
X008642Y002469D02*
X008518Y002469D01*
X007973Y002469D02*
X007859Y002469D01*
X007911Y002627D02*
X007919Y002627D01*
X006473Y003103D02*
X006060Y003103D01*
X006060Y003261D02*
X007315Y003261D01*
X007270Y003420D02*
X006060Y003420D01*
X006060Y003578D02*
X007270Y003578D01*
X007270Y003737D02*
X007250Y003737D01*
X006967Y003737D02*
X006060Y003737D01*
X006060Y003895D02*
X006767Y003895D01*
X006712Y004054D02*
X006060Y004054D01*
X006060Y004212D02*
X006723Y004212D01*
X006811Y004371D02*
X006060Y004371D01*
X008367Y004413D02*
X008910Y004413D01*
X009330Y004393D02*
X009515Y004393D01*
X009915Y004793D01*
X008896Y004846D02*
X008767Y004846D01*
X008813Y004688D02*
X008815Y004688D01*
X010033Y005163D02*
X010033Y005163D01*
X010033Y005322D02*
X010033Y005322D01*
X010337Y005322D02*
X010436Y005322D01*
X010033Y005480D02*
X010033Y005480D01*
X010033Y005493D02*
X010033Y005493D01*
X009729Y005493D01*
X009729Y005680D01*
X009741Y005726D01*
X009765Y005767D01*
X009798Y005801D01*
X009839Y005824D01*
X009885Y005837D01*
X010033Y005837D01*
X010033Y005493D01*
X010033Y005493D01*
X010033Y005639D02*
X010033Y005639D01*
X009729Y005639D02*
X009623Y005639D01*
X009729Y005480D02*
X009464Y005480D01*
X009381Y005322D02*
X009729Y005322D01*
X009032Y005398D02*
X008191Y005398D01*
X007569Y005322D02*
X006060Y005322D01*
X006060Y005480D02*
X007569Y005480D01*
X007599Y005639D02*
X007429Y005639D01*
X007445Y005655D02*
X007333Y005543D01*
X007187Y005483D01*
X007030Y005483D01*
X006884Y005543D01*
X006772Y005655D01*
X006712Y005800D01*
X006712Y005958D01*
X006772Y006104D01*
X006884Y006215D01*
X007030Y006276D01*
X007187Y006276D01*
X007333Y006215D01*
X007445Y006104D01*
X007505Y005958D01*
X007505Y005800D01*
X007445Y005655D01*
X007504Y005797D02*
X009187Y005797D01*
X008873Y005639D02*
X008783Y005639D01*
X009781Y005797D02*
X009795Y005797D01*
X010033Y005797D02*
X010033Y005797D01*
X010271Y005797D02*
X010319Y005797D01*
X010646Y005759D02*
X010646Y005693D01*
X010646Y005759D02*
X010980Y006093D01*
X011680Y006093D01*
X011880Y005893D01*
X012280Y005893D01*
X012740Y005956D02*
X012790Y005956D01*
X012740Y005985D02*
X012670Y006154D01*
X012541Y006283D01*
X012372Y006353D01*
X012189Y006353D01*
X012020Y006283D01*
X011903Y006167D01*
X011767Y006303D01*
X011642Y006303D01*
X011642Y006523D01*
X011717Y006598D01*
X011739Y006598D01*
X011837Y006639D01*
X011844Y006626D01*
X011891Y006561D01*
X011948Y006504D01*
X012013Y006457D01*
X012084Y006421D01*
X012161Y006396D01*
X012240Y006383D01*
X012262Y006383D01*
X012262Y006875D01*
X012299Y006875D01*
X012299Y006383D01*
X012320Y006383D01*
X012400Y006396D01*
X012476Y006421D01*
X012547Y006457D01*
X012612Y006504D01*
X012636Y006528D01*
X012790Y006373D01*
X012790Y005522D01*
X012757Y005531D01*
X012575Y005531D01*
X012568Y005531D01*
X012670Y005633D01*
X012740Y005802D01*
X012740Y005985D01*
X012790Y006114D02*
X012687Y006114D01*
X012790Y006273D02*
X012551Y006273D01*
X012780Y006293D02*
X012280Y006793D01*
X012280Y006893D01*
X012262Y006748D02*
X012299Y006748D01*
X012299Y006590D02*
X012262Y006590D01*
X011870Y006590D02*
X011708Y006590D01*
X011680Y006859D02*
X011315Y006493D01*
X011642Y006431D02*
X012063Y006431D01*
X012262Y006431D02*
X012299Y006431D01*
X012497Y006431D02*
X012732Y006431D01*
X012780Y006293D02*
X012780Y005493D01*
X012575Y005289D01*
X012575Y005193D01*
X012575Y005193D01*
X012575Y004920D01*
X012575Y004920D01*
X012575Y005193D01*
X012575Y005123D01*
X012046Y004593D01*
X011633Y004593D01*
X011433Y004793D01*
X011433Y004450D01*
X011433Y004793D01*
X011433Y004793D01*
X011433Y004688D02*
X011433Y004688D01*
X011433Y004529D02*
X011433Y004529D01*
X011649Y004371D02*
X011190Y004371D01*
X011190Y004212D02*
X011835Y004212D01*
X011835Y004054D02*
X011190Y004054D01*
X011275Y003895D02*
X011835Y003895D01*
X012400Y004043D02*
X012400Y004213D01*
X012680Y004493D01*
X012680Y004559D01*
X012715Y004593D01*
X013061Y004529D02*
X013280Y004529D01*
X013280Y004371D02*
X013061Y004371D01*
X012965Y004212D02*
X013280Y004212D01*
X013280Y004054D02*
X012965Y004054D01*
X012965Y003895D02*
X013280Y003895D01*
X013280Y003737D02*
X012946Y003737D01*
X012965Y003578D02*
X013280Y003578D01*
X013218Y003420D02*
X012965Y003420D01*
X012921Y003261D02*
X013075Y003261D01*
X013075Y003103D02*
X012965Y003103D01*
X012965Y002944D02*
X013075Y002944D01*
X013075Y002786D02*
X012897Y002786D01*
X012965Y002627D02*
X013117Y002627D01*
X012965Y002469D02*
X013280Y002469D01*
X013880Y002469D02*
X014249Y002469D01*
X014249Y002373D02*
X013880Y002373D01*
X013880Y002563D01*
X013929Y002563D01*
X013975Y002576D01*
X014016Y002599D01*
X014049Y002633D01*
X014073Y002674D01*
X014085Y002720D01*
X014085Y002993D01*
X013900Y002993D01*
X013900Y002993D01*
X014085Y002993D01*
X014085Y003267D01*
X014073Y003313D01*
X014049Y003354D01*
X014016Y003387D01*
X013975Y003411D01*
X013929Y003423D01*
X013880Y003423D01*
X013880Y006613D01*
X013959Y006613D01*
X014035Y006689D01*
X014035Y006711D01*
X014046Y006669D01*
X014070Y006628D01*
X014103Y006595D01*
X014145Y006571D01*
X014190Y006559D01*
X014451Y006559D01*
X014451Y007016D01*
X014606Y007016D01*
X014606Y006559D01*
X014868Y006559D01*
X014913Y006571D01*
X014954Y006595D01*
X014988Y006628D01*
X015012Y006669D01*
X015024Y006715D01*
X015024Y007016D01*
X014606Y007016D01*
X014606Y007171D01*
X015024Y007171D01*
X015024Y007383D01*
X015044Y007383D01*
X015186Y007241D01*
X015186Y006685D01*
X015263Y006609D01*
X015414Y006609D01*
X015390Y006551D01*
X015390Y006436D01*
X015434Y006329D01*
X015516Y006247D01*
X015521Y006245D01*
X015044Y006245D01*
X015013Y006214D01*
X015006Y006226D01*
X014973Y006259D01*
X014932Y006283D01*
X014886Y006295D01*
X014664Y006295D01*
X014664Y005937D01*
X014627Y005937D01*
X014627Y006295D01*
X014405Y006295D01*
X014359Y006283D01*
X014318Y006259D01*
X014285Y006226D01*
X014261Y006185D01*
X014249Y006139D01*
X014249Y005937D01*
X014627Y005937D01*
X014627Y005900D01*
X014249Y005900D01*
X014249Y005698D01*
X014261Y005652D01*
X014285Y005611D01*
X014318Y005577D01*
X014359Y005554D01*
X014405Y005541D01*
X014627Y005541D01*
X014627Y005900D01*
X014664Y005900D01*
X014664Y005541D01*
X014758Y005541D01*
X014747Y005530D01*
X014444Y005530D01*
X014368Y005454D01*
X014368Y005371D01*
X014338Y005383D01*
X014222Y005383D01*
X014116Y005339D01*
X014034Y005258D01*
X013990Y005151D01*
X013990Y005036D01*
X014034Y004929D01*
X014070Y004893D01*
X014034Y004858D01*
X013990Y004751D01*
X013990Y004636D01*
X014034Y004529D01*
X014116Y004447D01*
X014222Y004403D01*
X014338Y004403D01*
X014396Y004427D01*
X014396Y004400D01*
X014368Y004372D01*
X014368Y003732D01*
X014444Y003656D01*
X014646Y003656D01*
X014610Y003620D01*
X014375Y003620D01*
X014299Y003544D01*
X014299Y003043D01*
X014375Y002966D01*
X014391Y002966D01*
X014359Y002958D01*
X014318Y002934D01*
X014285Y002901D01*
X014261Y002860D01*
X014249Y002814D01*
X014249Y002612D01*
X014627Y002612D01*
X014627Y002575D01*
X014249Y002575D01*
X014249Y002373D01*
X014546Y002693D02*
X014646Y002593D01*
X015315Y003293D01*
X015680Y003393D02*
X015680Y003693D01*
X015454Y003919D01*
X015354Y003919D01*
X015354Y004052D01*
X015739Y004052D01*
X015939Y003852D01*
X015980Y003893D01*
X016211Y004293D02*
X016446Y004059D01*
X016980Y004593D01*
X017266Y004593D01*
X017780Y004593D01*
X018180Y004993D01*
X017890Y005000D02*
X017890Y005051D01*
X017934Y005158D01*
X018016Y005239D01*
X018122Y005283D01*
X018238Y005283D01*
X018344Y005239D01*
X018426Y005158D01*
X018470Y005051D01*
X018470Y004936D01*
X018426Y004829D01*
X018344Y004747D01*
X018238Y004703D01*
X018187Y004703D01*
X018064Y004580D01*
X018495Y004580D01*
X018565Y004511D01*
X019302Y004511D01*
X019302Y004789D01*
X019378Y004865D01*
X020982Y004865D01*
X021058Y004789D01*
X021058Y004511D01*
X021803Y004511D01*
X021873Y004580D01*
X022500Y004580D01*
X022500Y005406D01*
X021865Y005406D01*
X021795Y005476D01*
X021058Y005476D01*
X021058Y005198D01*
X020982Y005122D01*
X019378Y005122D01*
X019302Y005198D01*
X019302Y005476D01*
X018557Y005476D01*
X018487Y005406D01*
X017658Y005406D01*
X017658Y005226D01*
X017672Y005212D01*
X017696Y005171D01*
X017708Y005125D01*
X017708Y004993D01*
X017292Y004993D01*
X016876Y004993D01*
X016876Y004861D01*
X016888Y004816D01*
X016895Y004803D01*
X016893Y004803D01*
X016770Y004680D01*
X016635Y004545D01*
X016635Y004781D01*
X016558Y004858D01*
X016327Y004858D01*
X016281Y004903D01*
X016101Y004903D01*
X016204Y005006D01*
X016327Y005129D01*
X016558Y005129D01*
X016635Y005205D01*
X016635Y005529D01*
X016558Y005606D01*
X016355Y005606D01*
X016356Y005606D01*
X016416Y005666D01*
X016716Y005666D01*
X016780Y005731D01*
X016844Y005666D01*
X017385Y005666D01*
X017417Y005699D01*
X017417Y005606D01*
X017002Y005606D01*
X016926Y005529D01*
X016926Y005226D01*
X016912Y005212D01*
X016888Y005171D01*
X016876Y005125D01*
X016876Y004993D01*
X017292Y004993D01*
X017292Y004993D01*
X017292Y004993D01*
X017708Y004993D01*
X017708Y004861D01*
X017696Y004816D01*
X017689Y004803D01*
X017693Y004803D01*
X017890Y005000D01*
X017890Y005005D02*
X017708Y005005D01*
X017704Y004846D02*
X017736Y004846D01*
X018172Y004688D02*
X019302Y004688D01*
X019302Y004529D02*
X018546Y004529D01*
X018433Y004846D02*
X019360Y004846D01*
X018470Y005005D02*
X022500Y005005D01*
X022500Y004846D02*
X021001Y004846D01*
X021058Y004688D02*
X022500Y004688D01*
X021822Y004529D02*
X021058Y004529D01*
X021024Y005163D02*
X022500Y005163D01*
X022500Y005322D02*
X021058Y005322D01*
X019337Y005163D02*
X018420Y005163D01*
X017940Y005163D02*
X017698Y005163D01*
X017658Y005322D02*
X019302Y005322D01*
X017417Y005639D02*
X016388Y005639D01*
X016146Y005693D02*
X015980Y005693D01*
X016146Y005693D02*
X016446Y005993D01*
X017115Y005993D02*
X017115Y006024D01*
X016446Y006693D01*
X015771Y006018D01*
X015550Y006018D01*
X015415Y006018D01*
X015315Y005918D01*
X015354Y005879D01*
X015354Y005135D01*
X015780Y005093D02*
X015994Y005093D01*
X016268Y005367D01*
X016635Y005322D02*
X016926Y005322D01*
X016926Y005480D02*
X016635Y005480D01*
X016593Y005163D02*
X016886Y005163D01*
X016876Y005005D02*
X016203Y005005D01*
X016570Y004846D02*
X016880Y004846D01*
X016778Y004688D02*
X016635Y004688D01*
X016268Y004619D02*
X016194Y004693D01*
X014880Y004693D01*
X014280Y004693D01*
X013990Y004688D02*
X013880Y004688D01*
X013880Y004846D02*
X014030Y004846D01*
X014003Y005005D02*
X013880Y005005D01*
X014280Y005093D02*
X014565Y005093D01*
X014606Y005135D01*
X014980Y005135D02*
X014980Y005580D01*
X014976Y005580D01*
X015006Y005611D01*
X015013Y005623D01*
X015044Y005591D01*
X015144Y005591D01*
X015144Y005572D01*
X015112Y005580D01*
X014980Y005580D01*
X014980Y005135D01*
X014980Y005135D01*
X014980Y005493D01*
X014646Y005828D01*
X014646Y005918D01*
X014627Y005956D02*
X014664Y005956D01*
X014664Y006114D02*
X014627Y006114D01*
X014249Y006114D02*
X013880Y006114D01*
X013880Y005956D02*
X014249Y005956D01*
X014249Y005797D02*
X013880Y005797D01*
X013880Y005639D02*
X014269Y005639D01*
X014394Y005480D02*
X013880Y005480D01*
X013880Y005322D02*
X014099Y005322D01*
X013995Y005163D02*
X013880Y005163D01*
X014980Y005163D02*
X014980Y005163D01*
X014980Y005322D02*
X014980Y005322D01*
X014980Y005480D02*
X014980Y005480D01*
X014664Y005639D02*
X014627Y005639D01*
X014627Y005797D02*
X014664Y005797D01*
X015405Y006018D02*
X015415Y006018D01*
X015491Y006273D02*
X014949Y006273D01*
X014664Y006273D02*
X014627Y006273D01*
X014342Y006273D02*
X013880Y006273D01*
X013880Y006431D02*
X015392Y006431D01*
X015631Y006542D02*
X015631Y007093D01*
X015931Y007393D01*
X016446Y007393D01*
X017115Y007393D02*
X017115Y006693D01*
X016446Y006693D02*
X016346Y006593D01*
X015680Y006493D02*
X015631Y006542D01*
X015406Y006590D02*
X014946Y006590D01*
X015024Y006748D02*
X015186Y006748D01*
X015186Y006907D02*
X015024Y006907D01*
X015186Y007065D02*
X014606Y007065D01*
X014606Y006907D02*
X014451Y006907D01*
X014451Y006748D02*
X014606Y006748D01*
X014606Y006590D02*
X014451Y006590D01*
X014112Y006590D02*
X013880Y006590D01*
X013780Y006993D02*
X013780Y007193D01*
X012980Y007493D02*
X011515Y007493D01*
X011315Y007293D01*
X011680Y006893D02*
X011680Y006859D01*
X009709Y006907D02*
X009554Y006907D01*
X009554Y007065D02*
X008974Y007065D01*
X008974Y007224D02*
X009136Y007224D01*
X009136Y007382D02*
X008974Y007382D01*
X008935Y007541D02*
X009162Y007541D01*
X008123Y007541D02*
X007849Y007541D01*
X007911Y007382D02*
X008084Y007382D01*
X008084Y007224D02*
X007911Y007224D01*
X007855Y007065D02*
X008084Y007065D01*
X008084Y006907D02*
X007720Y006907D01*
X008084Y006748D02*
X006060Y006748D01*
X006060Y006590D02*
X007569Y006590D01*
X007569Y006431D02*
X006060Y006431D01*
X006060Y006273D02*
X007023Y006273D01*
X007194Y006273D02*
X007569Y006273D01*
X007635Y006114D02*
X007434Y006114D01*
X007505Y005956D02*
X008356Y005956D01*
X006783Y006114D02*
X006060Y006114D01*
X006060Y005956D02*
X006712Y005956D01*
X006713Y005797D02*
X006060Y005797D01*
X006060Y005639D02*
X006788Y005639D01*
X006060Y005163D02*
X007592Y005163D01*
X010980Y004893D02*
X010980Y003893D01*
X011280Y003593D01*
X011480Y003593D01*
X011530Y003543D01*
X012400Y003543D01*
X011879Y003261D02*
X011607Y003261D01*
X011517Y003253D02*
X011517Y003253D01*
X011430Y003043D02*
X012400Y003043D01*
X013942Y003420D02*
X014299Y003420D01*
X014299Y003261D02*
X014085Y003261D01*
X014646Y003293D02*
X014646Y003359D01*
X014980Y003693D01*
X014980Y004052D01*
X014980Y004393D01*
X014880Y004693D02*
X014606Y004419D01*
X014606Y004052D01*
X014368Y004054D02*
X013880Y004054D01*
X013880Y003895D02*
X014368Y003895D01*
X014368Y003737D02*
X013880Y003737D01*
X013880Y003578D02*
X014333Y003578D01*
X014299Y003103D02*
X014085Y003103D01*
X014085Y002944D02*
X014336Y002944D01*
X014249Y002786D02*
X014085Y002786D01*
X014044Y002627D02*
X014249Y002627D01*
X015315Y002593D02*
X016446Y002593D01*
X016080Y002959D01*
X016080Y002993D01*
X015870Y002935D02*
X015870Y002872D01*
X015939Y002803D01*
X015661Y002803D01*
X015661Y002844D01*
X015585Y002920D01*
X015569Y002920D01*
X015601Y002929D01*
X015642Y002952D01*
X015675Y002986D01*
X015699Y003027D01*
X015711Y003073D01*
X015711Y003093D01*
X015870Y002935D01*
X015860Y002944D02*
X015628Y002944D01*
X016119Y003224D02*
X015890Y003452D01*
X015890Y003617D01*
X015922Y003603D01*
X016038Y003603D01*
X016144Y003647D01*
X016169Y003672D01*
X016175Y003666D01*
X016716Y003666D01*
X016747Y003698D01*
X016754Y003686D01*
X016788Y003652D01*
X016799Y003646D01*
X016774Y003620D01*
X016753Y003583D01*
X016696Y003640D01*
X016195Y003640D01*
X016119Y003564D01*
X016119Y003224D01*
X016119Y003261D02*
X016081Y003261D01*
X016119Y003420D02*
X015922Y003420D01*
X015980Y003493D02*
X016020Y003493D01*
X016190Y003663D01*
X017050Y003663D01*
X017115Y003728D01*
X017115Y003993D01*
X017133Y003975D02*
X017133Y003312D01*
X017096Y003312D01*
X017096Y003690D01*
X017096Y003975D01*
X017133Y003975D01*
X017133Y004012D02*
X017096Y004012D01*
X017096Y004370D01*
X017054Y004370D01*
X017065Y004381D01*
X017425Y004381D01*
X017425Y004344D01*
X017401Y004358D01*
X017355Y004370D01*
X017133Y004370D01*
X017133Y004012D01*
X017133Y004054D02*
X017096Y004054D01*
X017096Y003895D02*
X017133Y003895D01*
X017133Y003737D02*
X017096Y003737D01*
X017096Y003578D02*
X017133Y003578D01*
X017133Y003420D02*
X017096Y003420D01*
X016133Y003578D02*
X015890Y003578D01*
X016446Y003993D02*
X016446Y004059D01*
X017096Y004212D02*
X017133Y004212D01*
X017055Y004371D02*
X017425Y004371D01*
X017266Y004593D02*
X017292Y004619D01*
X016211Y004293D02*
X015980Y004293D01*
X014368Y004371D02*
X013880Y004371D01*
X013880Y004529D02*
X014034Y004529D01*
X013280Y004688D02*
X013219Y004688D01*
X012575Y005005D02*
X012575Y005005D01*
X012575Y005163D02*
X012575Y005163D01*
X012575Y005193D02*
X012575Y005531D01*
X012575Y005193D01*
X012575Y005193D01*
X012575Y005322D02*
X012575Y005322D01*
X012575Y005480D02*
X012575Y005480D01*
X012673Y005639D02*
X012790Y005639D01*
X012790Y005797D02*
X012738Y005797D01*
X011880Y005193D02*
X011380Y005693D01*
X011315Y005693D01*
X011380Y005628D01*
X011380Y005593D01*
X011880Y005193D02*
X011985Y005193D01*
X012009Y006273D02*
X011798Y006273D01*
X015024Y007224D02*
X015186Y007224D01*
X015045Y007382D02*
X015024Y007382D01*
X015131Y007593D02*
X015631Y007093D01*
X017115Y007393D02*
X017215Y007493D01*
X019277Y007493D01*
X020180Y006590D01*
X021964Y007380D02*
X021964Y007613D01*
X022015Y007613D01*
X022022Y007607D01*
X022088Y007613D01*
X022155Y007613D01*
X022155Y007614D01*
X022169Y007613D01*
X022308Y007570D01*
X022420Y007477D01*
X022471Y007380D01*
X021964Y007380D01*
X021964Y007382D02*
X022470Y007382D01*
X022343Y007541D02*
X021964Y007541D01*
X015131Y007593D02*
X014180Y007593D01*
X006442Y006907D02*
X006060Y006907D01*
X006060Y007065D02*
X006307Y007065D01*
X006251Y007224D02*
X006060Y007224D01*
X006060Y007382D02*
X006251Y007382D01*
X006313Y007541D02*
X006123Y007541D01*
X013880Y004212D02*
X014368Y004212D01*
X016080Y002593D02*
X016446Y002593D01*
X017115Y002593D02*
X017215Y002493D01*
X019277Y002493D01*
X020180Y003396D01*
X021964Y002606D02*
X022484Y002606D01*
X022446Y002516D01*
X022358Y002427D01*
X022243Y002379D01*
X022180Y002373D01*
X021964Y002373D01*
X021964Y002606D01*
X021964Y002469D02*
X022400Y002469D01*
X011208Y002469D02*
X010365Y002469D01*
X006368Y002375D02*
X006318Y002379D01*
X006202Y002427D01*
X006114Y002516D01*
X006066Y002631D01*
X006060Y002693D01*
X006068Y002627D02*
X006251Y002627D01*
X006251Y002595D02*
X006324Y002418D01*
X006368Y002375D01*
X006303Y002469D02*
X006161Y002469D01*
X006251Y002595D02*
X006251Y002786D01*
X006317Y002944D02*
X006060Y002944D01*
X016446Y003293D02*
X016776Y002939D01*
X017115Y002593D01*
D31*
X013380Y006993D02*
X012980Y006993D01*
X012880Y007093D01*
D32*
X013780Y007193D02*
X014180Y007593D01*
X010780Y005093D02*
X010780Y004493D01*
X010730Y004443D01*
X014980Y004393D02*
X015080Y004493D01*
X015780Y004493D01*
X015980Y004293D01*
X015680Y003393D02*
X016080Y002993D01*
M02*
