%
M48
M72
T01C0.0120
T02C0.0130
T03C0.0315
T04C0.0394
T05C0.0433
%
T01
X22180Y2493
X6380Y3293
X7180Y3593
X6280Y4193
X7380Y4693
X6580Y4993
X6380Y5593
X6580Y6293
X7180Y6593
X9080Y7493
X9080Y6693
X11880Y6393
X14180Y6393
X14880Y6493
X15680Y6493
X18780Y5293
X21380Y5293
X21880Y4993
X21380Y4693
X18780Y4693
X15980Y3893
X15980Y3493
X15780Y2893
X14180Y2993
X13040Y3253
X14180Y3593
X14180Y4093
X14280Y4693
X14280Y5093
X14180Y5493
X15780Y5093
X16680Y4993
X18180Y4993
X19480Y4993
X20180Y4993
X20780Y4993
X15980Y5693
X12880Y7093
X12980Y7493
X9680Y5493
X10320Y4413
X11280Y4293
X11530Y3543
X11080Y2893
X10480Y2593
X9080Y3293
X8910Y4413
X22180Y7493
T02
X11680Y6893
X10180Y6693
X10180Y7293
X11180Y5193
X10580Y3393
T03
X7081Y7296
X7238Y7296
X7396Y7296
X6766Y7296
X6923Y7296
X6766Y2690
X6923Y2690
X7081Y2690
X7238Y2690
X7396Y2690
T04
X12280Y6893
X12280Y5893
T05
X7109Y5879
X7109Y4107
M30
