G75*
%MOIN*%
%OFA0B0*%
%FSLAX24Y24*%
%IPPOS*%
%LPD*%
%AMOC8*
5,1,8,0,0,1.08239X$1,22.5*
%
%ADD10C,0.0030*%
%ADD11C,0.0050*%
%ADD12R,0.0001X0.1685*%
%ADD13R,0.0001X0.1735*%
%ADD14R,0.0001X0.1764*%
%ADD15R,0.0001X0.1785*%
%ADD16R,0.0001X0.1802*%
%ADD17R,0.0001X0.1810*%
%ADD18R,0.0001X0.1826*%
%ADD19R,0.0001X0.1840*%
%ADD20R,0.0001X0.1852*%
%ADD21R,0.0001X0.1864*%
%ADD22R,0.0001X0.1869*%
%ADD23R,0.0001X0.1880*%
%ADD24R,0.0001X0.1890*%
%ADD25R,0.0001X0.1899*%
%ADD26R,0.0001X0.1909*%
%ADD27R,0.0001X0.1914*%
%ADD28R,0.0001X0.1921*%
%ADD29R,0.0001X0.1930*%
%ADD30R,0.0001X0.1939*%
%ADD31R,0.0001X0.1946*%
%ADD32R,0.0001X0.1951*%
%ADD33R,0.0001X0.1958*%
%ADD34R,0.0001X0.1965*%
%ADD35R,0.0001X0.1971*%
%ADD36R,0.0001X0.1979*%
%ADD37R,0.0001X0.1983*%
%ADD38R,0.0001X0.1990*%
%ADD39R,0.0001X0.1995*%
%ADD40R,0.0001X0.2003*%
%ADD41R,0.0001X0.2008*%
%ADD42R,0.0001X0.2010*%
%ADD43R,0.0001X0.2018*%
%ADD44R,0.0001X0.2023*%
%ADD45R,0.0001X0.2029*%
%ADD46R,0.0001X0.2034*%
%ADD47R,0.0001X0.2036*%
%ADD48R,0.0001X0.2042*%
%ADD49R,0.0001X0.2047*%
%ADD50R,0.0001X0.2054*%
%ADD51R,0.0001X0.2059*%
%ADD52R,0.0001X0.2060*%
%ADD53R,0.0001X0.2066*%
%ADD54R,0.0001X0.2071*%
%ADD55R,0.0001X0.2076*%
%ADD56R,0.0001X0.2081*%
%ADD57R,0.0001X0.2084*%
%ADD58R,0.0001X0.2089*%
%ADD59R,0.0001X0.2092*%
%ADD60R,0.0001X0.2097*%
%ADD61R,0.0001X0.2102*%
%ADD62R,0.0001X0.2105*%
%ADD63R,0.0001X0.2109*%
%ADD64R,0.0001X0.2114*%
%ADD65R,0.0001X0.2117*%
%ADD66R,0.0001X0.2121*%
%ADD67R,0.0001X0.2124*%
%ADD68R,0.0001X0.2129*%
%ADD69R,0.0001X0.2132*%
%ADD70R,0.0001X0.2135*%
%ADD71R,0.0001X0.2140*%
%ADD72R,0.0001X0.2142*%
%ADD73R,0.0001X0.2146*%
%ADD74R,0.0001X0.2150*%
%ADD75R,0.0001X0.2154*%
%ADD76R,0.0001X0.2157*%
%ADD77R,0.0001X0.2159*%
%ADD78R,0.0001X0.2164*%
%ADD79R,0.0001X0.2167*%
%ADD80R,0.0001X0.2170*%
%ADD81R,0.0001X0.2174*%
%ADD82R,0.0001X0.2176*%
%ADD83R,0.0001X0.2180*%
%ADD84R,0.0001X0.2182*%
%ADD85R,0.0001X0.2186*%
%ADD86R,0.0001X0.2190*%
%ADD87R,0.0001X0.2193*%
%ADD88R,0.0001X0.2195*%
%ADD89R,0.0001X0.2198*%
%ADD90R,0.0001X0.2203*%
%ADD91R,0.0001X0.2205*%
%ADD92R,0.0001X0.2206*%
%ADD93R,0.0001X0.2210*%
%ADD94R,0.0001X0.2214*%
%ADD95R,0.0001X0.2216*%
%ADD96R,0.0001X0.2220*%
%ADD97R,0.0001X0.2221*%
%ADD98R,0.0001X0.2224*%
%ADD99R,0.0001X0.2228*%
%ADD100R,0.0001X0.2230*%
%ADD101R,0.0001X0.2233*%
%ADD102R,0.0001X0.2235*%
%ADD103R,0.0001X0.2239*%
%ADD104R,0.0001X0.2241*%
%ADD105R,0.0001X0.2244*%
%ADD106R,0.0001X0.2246*%
%ADD107R,0.0001X0.2248*%
%ADD108R,0.0001X0.2251*%
%ADD109R,0.0001X0.2254*%
%ADD110R,0.0001X0.2256*%
%ADD111R,0.0001X0.2259*%
%ADD112R,0.0001X0.2260*%
%ADD113R,0.0001X0.2264*%
%ADD114R,0.0001X0.2266*%
%ADD115R,0.0001X0.2269*%
%ADD116R,0.0001X0.2271*%
%ADD117R,0.0001X0.2273*%
%ADD118R,0.0001X0.2276*%
%ADD119R,0.0001X0.2278*%
%ADD120R,0.0001X0.2280*%
%ADD121R,0.0001X0.2283*%
%ADD122R,0.0001X0.2284*%
%ADD123R,0.0001X0.2286*%
%ADD124R,0.0001X0.2290*%
%ADD125R,0.0001X0.2291*%
%ADD126R,0.0001X0.2294*%
%ADD127R,0.0001X0.2295*%
%ADD128R,0.0001X0.2298*%
%ADD129R,0.0001X0.2299*%
%ADD130R,0.0001X0.2303*%
%ADD131R,0.0001X0.2305*%
%ADD132R,0.0001X0.2306*%
%ADD133R,0.0001X0.2308*%
%ADD134R,0.0001X0.2310*%
%ADD135R,0.0001X0.2314*%
%ADD136R,0.0001X0.2315*%
%ADD137R,0.0001X0.2316*%
%ADD138R,0.0001X0.2319*%
%ADD139R,0.0001X0.2320*%
%ADD140R,0.0001X0.2323*%
%ADD141R,0.0001X0.2324*%
%ADD142R,0.0001X0.2326*%
%ADD143R,0.0001X0.2329*%
%ADD144R,0.0001X0.2330*%
%ADD145R,0.0001X0.2333*%
%ADD146R,0.0001X0.2334*%
%ADD147R,0.0001X0.2335*%
%ADD148R,0.0001X0.2336*%
%ADD149R,0.0001X0.2340*%
%ADD150R,0.0001X0.2341*%
%ADD151R,0.0001X0.2344*%
%ADD152R,0.0001X0.2345*%
%ADD153R,0.0001X0.2346*%
%ADD154R,0.0001X0.2347*%
%ADD155R,0.0001X0.2351*%
%ADD156R,0.0001X0.2352*%
%ADD157R,0.0001X0.2354*%
%ADD158R,0.0001X0.2355*%
%ADD159R,0.0001X0.2357*%
%ADD160R,0.0001X0.2359*%
%ADD161R,0.0001X0.2360*%
%ADD162R,0.0001X0.2361*%
%ADD163R,0.0001X0.2364*%
%ADD164R,0.0001X0.2365*%
%ADD165R,0.0001X0.2367*%
%ADD166R,0.0001X0.2369*%
%ADD167R,0.0001X0.2370*%
%ADD168R,0.0001X0.2371*%
%ADD169R,0.0001X0.2372*%
%ADD170R,0.0001X0.2375*%
%ADD171R,0.0001X0.2377*%
%ADD172R,0.0001X0.2380*%
%ADD173R,0.0001X0.2381*%
%ADD174R,0.0001X0.2382*%
%ADD175R,0.0001X0.2384*%
%ADD176R,0.0001X0.2385*%
%ADD177R,0.0001X0.2386*%
%ADD178R,0.0001X0.2389*%
%ADD179R,0.0001X0.2390*%
%ADD180R,0.0001X0.2391*%
%ADD181R,0.0001X0.2392*%
%ADD182R,0.0001X0.2394*%
%ADD183R,0.0001X0.2395*%
%ADD184R,0.0001X0.2396*%
%ADD185R,0.0001X0.2397*%
%ADD186R,0.0001X0.2399*%
%ADD187R,0.0001X0.2401*%
%ADD188R,0.0001X0.2402*%
%ADD189R,0.0001X0.2404*%
%ADD190R,0.0001X0.2405*%
%ADD191R,0.0001X0.2406*%
%ADD192R,0.0001X0.2407*%
%ADD193R,0.0001X0.2409*%
%ADD194R,0.0001X0.2410*%
%ADD195R,0.0001X0.2411*%
%ADD196R,0.0001X0.2414*%
%ADD197R,0.0001X0.2415*%
%ADD198R,0.0001X0.2416*%
%ADD199R,0.0001X0.2417*%
%ADD200R,0.0001X0.2419*%
%ADD201R,0.0001X0.2420*%
%ADD202R,0.0001X0.2421*%
%ADD203R,0.0001X0.2422*%
%ADD204R,0.0001X0.2424*%
%ADD205R,0.0001X0.2426*%
%ADD206R,0.0001X0.2427*%
%ADD207R,0.0001X0.2429*%
%ADD208R,0.0001X0.2430*%
%ADD209R,0.0001X0.2431*%
%ADD210R,0.0001X0.2432*%
%ADD211R,0.0001X0.2434*%
%ADD212R,0.0001X0.2435*%
%ADD213R,0.0001X0.2436*%
%ADD214R,0.0001X0.2439*%
%ADD215R,0.0001X0.2440*%
%ADD216R,0.0001X0.2441*%
%ADD217R,0.0001X0.2442*%
%ADD218R,0.0001X0.2444*%
%ADD219R,0.0001X0.2445*%
%ADD220R,0.0001X0.2446*%
%ADD221R,0.0001X0.2447*%
%ADD222R,0.0001X0.2449*%
%ADD223R,0.0001X0.2450*%
%ADD224R,0.0001X0.2451*%
%ADD225R,0.0001X0.2452*%
%ADD226R,0.0001X0.2454*%
%ADD227R,0.0001X0.2455*%
%ADD228R,0.0001X0.2456*%
%ADD229R,0.0001X0.2457*%
%ADD230R,0.0001X0.2459*%
%ADD231R,0.0001X0.2460*%
%ADD232R,0.0001X0.2461*%
%ADD233R,0.0001X0.2464*%
%ADD234R,0.0001X0.2465*%
%ADD235R,0.0001X0.2466*%
%ADD236R,0.0001X0.2467*%
%ADD237R,0.0001X0.2469*%
%ADD238R,0.0001X0.2470*%
%ADD239R,0.0001X0.2471*%
%ADD240R,0.0001X0.2472*%
%ADD241R,0.0001X0.2474*%
%ADD242R,0.0001X0.2476*%
%ADD243R,0.0001X0.2477*%
%ADD244R,0.0001X0.2479*%
%ADD245R,0.0001X0.2480*%
%ADD246R,0.0001X0.2481*%
%ADD247R,0.0001X0.2482*%
%ADD248R,0.0001X0.2484*%
%ADD249R,0.0001X0.2485*%
%ADD250R,0.0001X0.2486*%
%ADD251R,0.0001X0.2487*%
%ADD252R,0.0001X0.2489*%
%ADD253R,0.0001X0.2490*%
%ADD254R,0.0001X0.2491*%
%ADD255R,0.0001X0.2492*%
%ADD256R,0.0001X0.2494*%
%ADD257R,0.0001X0.2495*%
%ADD258R,0.0001X0.2496*%
%ADD259R,0.0001X0.2497*%
%ADD260R,0.0001X0.2499*%
%ADD261R,0.0001X0.2500*%
%ADD262R,0.0001X0.0798*%
%ADD263R,0.0001X0.1226*%
%ADD264R,0.0001X0.0816*%
%ADD265R,0.0001X0.1245*%
%ADD266R,0.0001X0.0833*%
%ADD267R,0.0001X0.1260*%
%ADD268R,0.0001X0.0846*%
%ADD269R,0.0001X0.1274*%
%ADD270R,0.0001X0.0856*%
%ADD271R,0.0001X0.1284*%
%ADD272R,0.0001X0.0860*%
%ADD273R,0.0001X0.1289*%
%ADD274R,0.0001X0.0869*%
%ADD275R,0.0001X0.1296*%
%ADD276R,0.0001X0.0875*%
%ADD277R,0.0001X0.1303*%
%ADD278R,0.0001X0.0881*%
%ADD279R,0.0001X0.1309*%
%ADD280R,0.0001X0.0886*%
%ADD281R,0.0001X0.1314*%
%ADD282R,0.0001X0.0889*%
%ADD283R,0.0001X0.1316*%
%ADD284R,0.0001X0.0892*%
%ADD285R,0.0001X0.1320*%
%ADD286R,0.0001X0.0896*%
%ADD287R,0.0001X0.1324*%
%ADD288R,0.0001X0.0899*%
%ADD289R,0.0001X0.1328*%
%ADD290R,0.0001X0.0902*%
%ADD291R,0.0001X0.1330*%
%ADD292R,0.0001X0.0904*%
%ADD293R,0.0001X0.1333*%
%ADD294R,0.0001X0.0907*%
%ADD295R,0.0001X0.1334*%
%ADD296R,0.0001X0.0909*%
%ADD297R,0.0001X0.1336*%
%ADD298R,0.0001X0.0911*%
%ADD299R,0.0001X0.1339*%
%ADD300R,0.0001X0.0914*%
%ADD301R,0.0001X0.1341*%
%ADD302R,0.0001X0.0915*%
%ADD303R,0.0001X0.0916*%
%ADD304R,0.0001X0.1344*%
%ADD305R,0.0001X0.0917*%
%ADD306R,0.0001X0.1345*%
%ADD307R,0.0001X0.0920*%
%ADD308R,0.0001X0.1346*%
%ADD309R,0.0001X0.0921*%
%ADD310R,0.0001X0.1348*%
%ADD311R,0.0001X0.1349*%
%ADD312R,0.0001X0.0922*%
%ADD313R,0.0001X0.1350*%
%ADD314R,0.0001X0.0924*%
%ADD315R,0.0001X0.1351*%
%ADD316R,0.0001X0.0925*%
%ADD317R,0.0001X0.1353*%
%ADD318R,0.0001X0.0926*%
%ADD319R,0.0001X0.1354*%
%ADD320R,0.0001X0.0927*%
%ADD321R,0.0001X0.1355*%
%ADD322R,0.0001X0.0929*%
%ADD323R,0.0001X0.1356*%
%ADD324R,0.0001X0.0930*%
%ADD325R,0.0001X0.1358*%
%ADD326R,0.0001X0.0931*%
%ADD327R,0.0001X0.1359*%
%ADD328R,0.0001X0.0932*%
%ADD329R,0.0001X0.1360*%
%ADD330R,0.0001X0.0934*%
%ADD331R,0.0001X0.1361*%
%ADD332R,0.0001X0.0935*%
%ADD333R,0.0001X0.1363*%
%ADD334R,0.0001X0.0936*%
%ADD335R,0.0001X0.1364*%
%ADD336R,0.0001X0.0938*%
%ADD337R,0.0001X0.1365*%
%ADD338R,0.0001X0.0939*%
%ADD339R,0.0001X0.1366*%
%ADD340R,0.0001X0.0940*%
%ADD341R,0.0001X0.1368*%
%ADD342R,0.0001X0.0941*%
%ADD343R,0.0001X0.1369*%
%ADD344R,0.0001X0.0943*%
%ADD345R,0.0001X0.1370*%
%ADD346R,0.0001X0.0186*%
%ADD347R,0.0001X0.1168*%
%ADD348R,0.0001X0.0155*%
%ADD349R,0.0001X0.1138*%
%ADD350R,0.0001X0.0141*%
%ADD351R,0.0001X0.1123*%
%ADD352R,0.0001X0.0135*%
%ADD353R,0.0001X0.1116*%
%ADD354R,0.0001X0.0124*%
%ADD355R,0.0001X0.1106*%
%ADD356R,0.0001X0.0115*%
%ADD357R,0.0001X0.1096*%
%ADD358R,0.0001X0.0106*%
%ADD359R,0.0001X0.1089*%
%ADD360R,0.0001X0.0099*%
%ADD361R,0.0001X0.1081*%
%ADD362R,0.0001X0.0096*%
%ADD363R,0.0001X0.1077*%
%ADD364R,0.0001X0.0089*%
%ADD365R,0.0001X0.1071*%
%ADD366R,0.0001X0.0083*%
%ADD367R,0.0001X0.1065*%
%ADD368R,0.0001X0.0077*%
%ADD369R,0.0001X0.1059*%
%ADD370R,0.0001X0.0071*%
%ADD371R,0.0001X0.1054*%
%ADD372R,0.0001X0.0069*%
%ADD373R,0.0001X0.1051*%
%ADD374R,0.0001X0.0063*%
%ADD375R,0.0001X0.1045*%
%ADD376R,0.0001X0.0059*%
%ADD377R,0.0001X0.1040*%
%ADD378R,0.0001X0.0054*%
%ADD379R,0.0001X0.1035*%
%ADD380R,0.0001X0.0049*%
%ADD381R,0.0001X0.1031*%
%ADD382R,0.0001X0.0047*%
%ADD383R,0.0001X0.1029*%
%ADD384R,0.0001X0.0043*%
%ADD385R,0.0001X0.1024*%
%ADD386R,0.0001X0.0037*%
%ADD387R,0.0001X0.1020*%
%ADD388R,0.0001X0.0034*%
%ADD389R,0.0001X0.1016*%
%ADD390R,0.0001X0.0030*%
%ADD391R,0.0001X0.1011*%
%ADD392R,0.0001X0.0029*%
%ADD393R,0.0001X0.1010*%
%ADD394R,0.0001X0.0024*%
%ADD395R,0.0001X0.1006*%
%ADD396R,0.0001X0.0021*%
%ADD397R,0.0001X0.1003*%
%ADD398R,0.0001X0.0016*%
%ADD399R,0.0001X0.0999*%
%ADD400R,0.0001X0.0013*%
%ADD401R,0.0001X0.0995*%
%ADD402R,0.0001X0.0011*%
%ADD403R,0.0001X0.0993*%
%ADD404R,0.0001X0.0009*%
%ADD405R,0.0001X0.0990*%
%ADD406R,0.0001X0.0005*%
%ADD407R,0.0001X0.0986*%
%ADD408R,0.0001X0.0001*%
%ADD409R,0.0001X0.0984*%
%ADD410R,0.0001X0.0980*%
%ADD411R,0.0001X0.0979*%
%ADD412R,0.0001X0.0975*%
%ADD413R,0.0001X0.0973*%
%ADD414R,0.0001X0.0969*%
%ADD415R,0.0001X0.0966*%
%ADD416R,0.0001X0.0965*%
%ADD417R,0.0001X0.0961*%
%ADD418R,0.0001X0.0959*%
%ADD419R,0.0001X0.0955*%
%ADD420R,0.0001X0.0953*%
%ADD421R,0.0001X0.0949*%
%ADD422R,0.0001X0.0946*%
%ADD423R,0.0001X0.0944*%
%ADD424R,0.0001X0.0906*%
%ADD425R,0.0001X0.0901*%
%ADD426R,0.0001X0.0895*%
%ADD427R,0.0001X0.0890*%
%ADD428R,0.0001X0.0887*%
%ADD429R,0.0001X0.0885*%
%ADD430R,0.0001X0.0884*%
%ADD431R,0.0001X0.0882*%
%ADD432R,0.0001X0.0879*%
%ADD433R,0.0001X0.0877*%
%ADD434R,0.0001X0.0876*%
%ADD435R,0.0001X0.0874*%
%ADD436R,0.0001X0.0872*%
%ADD437R,0.0001X0.0871*%
%ADD438R,0.0001X0.0867*%
%ADD439R,0.0001X0.0865*%
%ADD440R,0.0001X0.0864*%
%ADD441R,0.0001X0.0861*%
%ADD442R,0.0001X0.0858*%
%ADD443R,0.0001X0.0855*%
%ADD444R,0.0001X0.0854*%
%ADD445R,0.0001X0.0853*%
%ADD446R,0.0001X0.0851*%
%ADD447R,0.0001X0.0850*%
%ADD448R,0.0001X0.0848*%
%ADD449R,0.0001X0.0845*%
%ADD450R,0.0001X0.0844*%
%ADD451R,0.0001X0.0843*%
%ADD452R,0.0001X0.0841*%
%ADD453R,0.0001X0.0840*%
%ADD454R,0.0001X0.0839*%
%ADD455R,0.0001X0.0836*%
%ADD456R,0.0001X0.0835*%
%ADD457R,0.0001X0.0834*%
%ADD458R,0.0001X0.0831*%
%ADD459R,0.0001X0.0830*%
%ADD460R,0.0001X0.0829*%
%ADD461R,0.0001X0.0828*%
%ADD462R,0.0001X0.0826*%
%ADD463R,0.0001X0.0825*%
%ADD464R,0.0001X0.0824*%
%ADD465R,0.0001X0.0823*%
%ADD466R,0.0001X0.0821*%
%ADD467R,0.0001X0.0820*%
%ADD468R,0.0001X0.0819*%
%ADD469R,0.0001X0.0818*%
%ADD470R,0.0001X0.0815*%
%ADD471R,0.0001X0.0814*%
%ADD472R,0.0001X0.0811*%
%ADD473R,0.0001X0.0810*%
%ADD474R,0.0001X0.0809*%
%ADD475R,0.0001X0.0808*%
%ADD476R,0.0001X0.0806*%
%ADD477R,0.0001X0.0805*%
%ADD478R,0.0001X0.0804*%
%ADD479R,0.0001X0.0803*%
%ADD480R,0.0001X0.0088*%
%ADD481R,0.0001X0.0801*%
%ADD482R,0.0001X0.0800*%
%ADD483R,0.0001X0.0129*%
%ADD484R,0.0001X0.0799*%
%ADD485R,0.0001X0.0143*%
%ADD486R,0.0001X0.0154*%
%ADD487R,0.0001X0.0796*%
%ADD488R,0.0001X0.0165*%
%ADD489R,0.0001X0.0795*%
%ADD490R,0.0001X0.0170*%
%ADD491R,0.0001X0.0180*%
%ADD492R,0.0001X0.0794*%
%ADD493R,0.0001X0.0190*%
%ADD494R,0.0001X0.0793*%
%ADD495R,0.0001X0.0198*%
%ADD496R,0.0001X0.0791*%
%ADD497R,0.0001X0.0208*%
%ADD498R,0.0001X0.0790*%
%ADD499R,0.0001X0.0213*%
%ADD500R,0.0001X0.0219*%
%ADD501R,0.0001X0.0789*%
%ADD502R,0.0001X0.0227*%
%ADD503R,0.0001X0.0788*%
%ADD504R,0.0001X0.0234*%
%ADD505R,0.0001X0.0786*%
%ADD506R,0.0001X0.0241*%
%ADD507R,0.0001X0.0785*%
%ADD508R,0.0001X0.0245*%
%ADD509R,0.0001X0.0253*%
%ADD510R,0.0001X0.0784*%
%ADD511R,0.0001X0.0257*%
%ADD512R,0.0001X0.0783*%
%ADD513R,0.0001X0.0265*%
%ADD514R,0.0001X0.0781*%
%ADD515R,0.0001X0.0271*%
%ADD516R,0.0001X0.0780*%
%ADD517R,0.0001X0.0275*%
%ADD518R,0.0001X0.0280*%
%ADD519R,0.0001X0.0779*%
%ADD520R,0.0001X0.0285*%
%ADD521R,0.0001X0.0777*%
%ADD522R,0.0001X0.0291*%
%ADD523R,0.0001X0.0776*%
%ADD524R,0.0001X0.0296*%
%ADD525R,0.0001X0.0300*%
%ADD526R,0.0001X0.0775*%
%ADD527R,0.0001X0.0305*%
%ADD528R,0.0001X0.0774*%
%ADD529R,0.0001X0.0310*%
%ADD530R,0.0001X0.0772*%
%ADD531R,0.0001X0.0316*%
%ADD532R,0.0001X0.0320*%
%ADD533R,0.0001X0.0771*%
%ADD534R,0.0001X0.0323*%
%ADD535R,0.0001X0.0328*%
%ADD536R,0.0001X0.0770*%
%ADD537R,0.0001X0.0333*%
%ADD538R,0.0001X0.0769*%
%ADD539R,0.0001X0.0338*%
%ADD540R,0.0001X0.0767*%
%ADD541R,0.0001X0.0341*%
%ADD542R,0.0001X0.0766*%
%ADD543R,0.0001X0.0344*%
%ADD544R,0.0001X0.0348*%
%ADD545R,0.0001X0.0765*%
%ADD546R,0.0001X0.0354*%
%ADD547R,0.0001X0.0357*%
%ADD548R,0.0001X0.0764*%
%ADD549R,0.0001X0.0362*%
%ADD550R,0.0001X0.0762*%
%ADD551R,0.0001X0.0761*%
%ADD552R,0.0001X0.0367*%
%ADD553R,0.0001X0.0371*%
%ADD554R,0.0001X0.0760*%
%ADD555R,0.0001X0.0375*%
%ADD556R,0.0001X0.0759*%
%ADD557R,0.0001X0.0380*%
%ADD558R,0.0001X0.0381*%
%ADD559R,0.0001X0.0385*%
%ADD560R,0.0001X0.0757*%
%ADD561R,0.0001X0.0389*%
%ADD562R,0.0001X0.0756*%
%ADD563R,0.0001X0.0391*%
%ADD564R,0.0001X0.0755*%
%ADD565R,0.0001X0.0393*%
%ADD566R,0.0001X0.0754*%
%ADD567R,0.0001X0.0394*%
%ADD568R,0.0001X0.0395*%
%ADD569R,0.0001X0.0398*%
%ADD570R,0.0001X0.0752*%
%ADD571R,0.0001X0.0399*%
%ADD572R,0.0001X0.0751*%
%ADD573R,0.0001X0.0400*%
%ADD574R,0.0001X0.0401*%
%ADD575R,0.0001X0.0750*%
%ADD576R,0.0001X0.0403*%
%ADD577R,0.0001X0.0749*%
%ADD578R,0.0001X0.0405*%
%ADD579R,0.0001X0.0406*%
%ADD580R,0.0001X0.0747*%
%ADD581R,0.0001X0.0409*%
%ADD582R,0.0001X0.0746*%
%ADD583R,0.0001X0.0410*%
%ADD584R,0.0001X0.0413*%
%ADD585R,0.0001X0.0745*%
%ADD586R,0.0001X0.0414*%
%ADD587R,0.0001X0.0415*%
%ADD588R,0.0001X0.0742*%
%ADD589R,0.0001X0.0416*%
%ADD590R,0.0001X0.0418*%
%ADD591R,0.0001X0.0419*%
%ADD592R,0.0001X0.0741*%
%ADD593R,0.0001X0.0420*%
%ADD594R,0.0001X0.0423*%
%ADD595R,0.0001X0.0740*%
%ADD596R,0.0001X0.0424*%
%ADD597R,0.0001X0.0739*%
%ADD598R,0.0001X0.0425*%
%ADD599R,0.0001X0.0428*%
%ADD600R,0.0001X0.0737*%
%ADD601R,0.0001X0.0429*%
%ADD602R,0.0001X0.0736*%
%ADD603R,0.0001X0.0430*%
%ADD604R,0.0001X0.0735*%
%ADD605R,0.0001X0.0431*%
%ADD606R,0.0001X0.0432*%
%ADD607R,0.0001X0.0734*%
%ADD608R,0.0001X0.0434*%
%ADD609R,0.0001X0.0435*%
%ADD610R,0.0001X0.0732*%
%ADD611R,0.0001X0.0436*%
%ADD612R,0.0001X0.0437*%
%ADD613R,0.0001X0.0731*%
%ADD614R,0.0001X0.0730*%
%ADD615R,0.0001X0.0439*%
%ADD616R,0.0001X0.0440*%
%ADD617R,0.0001X0.0729*%
%ADD618R,0.0001X0.0441*%
%ADD619R,0.0001X0.0442*%
%ADD620R,0.0001X0.0727*%
%ADD621R,0.0001X0.0444*%
%ADD622R,0.0001X0.0445*%
%ADD623R,0.0001X0.0726*%
%ADD624R,0.0001X0.0446*%
%ADD625R,0.0001X0.0725*%
%ADD626R,0.0001X0.0447*%
%ADD627R,0.0001X0.0724*%
%ADD628R,0.0001X0.0449*%
%ADD629R,0.0001X0.0450*%
%ADD630R,0.0001X0.0722*%
%ADD631R,0.0001X0.0451*%
%ADD632R,0.0001X0.0452*%
%ADD633R,0.0001X0.0721*%
%ADD634R,0.0001X0.0720*%
%ADD635R,0.0001X0.0455*%
%ADD636R,0.0001X0.0456*%
%ADD637R,0.0001X0.0719*%
%ADD638R,0.0001X0.0717*%
%ADD639R,0.0001X0.0457*%
%ADD640R,0.0001X0.0459*%
%ADD641R,0.0001X0.0716*%
%ADD642R,0.0001X0.0460*%
%ADD643R,0.0001X0.0461*%
%ADD644R,0.0001X0.0715*%
%ADD645R,0.0001X0.0714*%
%ADD646R,0.0001X0.0462*%
%ADD647R,0.0001X0.0712*%
%ADD648R,0.0001X0.0464*%
%ADD649R,0.0001X0.0711*%
%ADD650R,0.0001X0.0710*%
%ADD651R,0.0001X0.0465*%
%ADD652R,0.0001X0.0709*%
%ADD653R,0.0001X0.0707*%
%ADD654R,0.0001X0.0706*%
%ADD655R,0.0001X0.0705*%
%ADD656R,0.0001X0.0704*%
%ADD657R,0.0001X0.0919*%
%ADD658R,0.0001X0.0703*%
%ADD659R,0.0001X0.0912*%
%ADD660R,0.0001X0.0910*%
%ADD661R,0.0001X0.0701*%
%ADD662R,0.0001X0.0454*%
%ADD663R,0.0001X0.0905*%
%ADD664R,0.0001X0.0700*%
%ADD665R,0.0001X0.0699*%
%ADD666R,0.0001X0.0891*%
%ADD667R,0.0001X0.0698*%
%ADD668R,0.0001X0.0426*%
%ADD669R,0.0001X0.0866*%
%ADD670R,0.0001X0.0421*%
%ADD671R,0.0001X0.0862*%
%ADD672R,0.0001X0.0696*%
%ADD673R,0.0001X0.0384*%
%ADD674R,0.0001X0.0695*%
%ADD675R,0.0001X0.0355*%
%ADD676R,0.0001X0.0356*%
%ADD677R,0.0001X0.0694*%
%ADD678R,0.0001X0.0359*%
%ADD679R,0.0001X0.0693*%
%ADD680R,0.0001X0.0360*%
%ADD681R,0.0001X0.0691*%
%ADD682R,0.0001X0.0361*%
%ADD683R,0.0001X0.0690*%
%ADD684R,0.0001X0.0364*%
%ADD685R,0.0001X0.0365*%
%ADD686R,0.0001X0.0689*%
%ADD687R,0.0001X0.0366*%
%ADD688R,0.0001X0.0688*%
%ADD689R,0.0001X0.0686*%
%ADD690R,0.0001X0.0369*%
%ADD691R,0.0001X0.0370*%
%ADD692R,0.0001X0.0685*%
%ADD693R,0.0001X0.0372*%
%ADD694R,0.0001X0.0684*%
%ADD695R,0.0001X0.0374*%
%ADD696R,0.0001X0.0683*%
%ADD697R,0.0001X0.0376*%
%ADD698R,0.0001X0.0681*%
%ADD699R,0.0001X0.1650*%
%ADD700R,0.0001X0.1651*%
%ADD701R,0.0001X0.0680*%
%ADD702R,0.0001X0.1653*%
%ADD703R,0.0001X0.0679*%
%ADD704R,0.0001X0.1654*%
%ADD705R,0.0001X0.1649*%
%ADD706R,0.0001X0.1648*%
%ADD707R,0.0001X0.1646*%
%ADD708R,0.0001X0.1645*%
%ADD709R,0.0001X0.1644*%
%ADD710R,0.0001X0.1643*%
%ADD711R,0.0001X0.1641*%
%ADD712R,0.0001X0.1640*%
%ADD713R,0.0001X0.1639*%
%ADD714R,0.0001X0.1638*%
%ADD715R,0.0001X0.1636*%
%ADD716R,0.0001X0.1635*%
%ADD717R,0.0001X0.1174*%
%ADD718R,0.0001X0.1171*%
%ADD719R,0.0001X0.1170*%
%ADD720R,0.0001X0.1166*%
%ADD721R,0.0001X0.1164*%
%ADD722R,0.0001X0.1161*%
%ADD723R,0.0001X0.1159*%
%ADD724R,0.0001X0.1156*%
%ADD725R,0.0001X0.1155*%
%ADD726R,0.0001X0.1153*%
%ADD727R,0.0001X0.1150*%
%ADD728R,0.0001X0.1148*%
%ADD729R,0.0001X0.1145*%
%ADD730R,0.0001X0.1141*%
%ADD731R,0.0001X0.1140*%
%ADD732R,0.0001X0.1136*%
%ADD733R,0.0001X0.1135*%
%ADD734R,0.0001X0.1134*%
%ADD735R,0.0001X0.1130*%
%ADD736R,0.0001X0.1129*%
%ADD737R,0.0001X0.1128*%
%ADD738R,0.0001X0.1124*%
%ADD739R,0.0001X0.1120*%
%ADD740R,0.0001X0.1118*%
%ADD741R,0.0001X0.1115*%
%ADD742R,0.0001X0.1113*%
%ADD743R,0.0001X0.1109*%
%ADD744R,0.0001X0.1108*%
%ADD745R,0.0001X0.1105*%
%ADD746R,0.0001X0.1103*%
%ADD747R,0.0001X0.1101*%
%ADD748R,0.0001X0.1099*%
%ADD749R,0.0001X0.0411*%
%ADD750R,0.0001X0.1095*%
%ADD751R,0.0001X0.1091*%
%ADD752R,0.0001X0.1086*%
%ADD753R,0.0001X0.0404*%
%ADD754R,0.0001X0.1084*%
%ADD755R,0.0001X0.1080*%
%ADD756R,0.0001X0.1075*%
%ADD757R,0.0001X0.1072*%
%ADD758R,0.0001X0.0396*%
%ADD759R,0.0001X0.1074*%
%ADD760R,0.0001X0.1076*%
%ADD761R,0.0001X0.0386*%
%ADD762R,0.0001X0.1079*%
%ADD763R,0.0001X0.0382*%
%ADD764R,0.0001X0.0379*%
%ADD765R,0.0001X0.1082*%
%ADD766R,0.0001X0.0377*%
%ADD767R,0.0001X0.0057*%
%ADD768R,0.0001X0.1085*%
%ADD769R,0.0001X0.0051*%
%ADD770R,0.0001X0.0286*%
%ADD771R,0.0001X0.0284*%
%ADD772R,0.0001X0.0045*%
%ADD773R,0.0001X0.0279*%
%ADD774R,0.0001X0.0040*%
%ADD775R,0.0001X0.0274*%
%ADD776R,0.0001X0.1087*%
%ADD777R,0.0001X0.0039*%
%ADD778R,0.0001X0.0269*%
%ADD779R,0.0001X0.0266*%
%ADD780R,0.0001X0.1090*%
%ADD781R,0.0001X0.0264*%
%ADD782R,0.0001X0.0027*%
%ADD783R,0.0001X0.0261*%
%ADD784R,0.0001X0.0255*%
%ADD785R,0.0001X0.1092*%
%ADD786R,0.0001X0.0019*%
%ADD787R,0.0001X0.0015*%
%ADD788R,0.0001X0.0251*%
%ADD789R,0.0001X0.1094*%
%ADD790R,0.0001X0.0250*%
%ADD791R,0.0001X0.0248*%
%ADD792R,0.0001X0.0006*%
%ADD793R,0.0001X0.0004*%
%ADD794R,0.0001X0.0243*%
%ADD795R,0.0001X0.1098*%
%ADD796R,0.0001X0.0240*%
%ADD797R,0.0001X0.0238*%
%ADD798R,0.0001X0.0236*%
%ADD799R,0.0001X0.0232*%
%ADD800R,0.0001X0.0231*%
%ADD801R,0.0001X0.0229*%
%ADD802R,0.0001X0.1104*%
%ADD803R,0.0001X0.0226*%
%ADD804R,0.0001X0.0224*%
%ADD805R,0.0001X0.0221*%
%ADD806R,0.0001X0.0217*%
%ADD807R,0.0001X0.0214*%
%ADD808R,0.0001X0.0211*%
%ADD809R,0.0001X0.0210*%
%ADD810R,0.0001X0.1110*%
%ADD811R,0.0001X0.0206*%
%ADD812R,0.0001X0.1111*%
%ADD813R,0.0001X0.0204*%
%ADD814R,0.0001X0.0201*%
%ADD815R,0.0001X0.0200*%
%ADD816R,0.0001X0.1114*%
%ADD817R,0.0001X0.0194*%
%ADD818R,0.0001X0.0192*%
%ADD819R,0.0001X0.0187*%
%ADD820R,0.0001X0.0744*%
%ADD821R,0.0001X0.0184*%
%ADD822R,0.0001X0.0182*%
%ADD823R,0.0001X0.1121*%
%ADD824R,0.0001X0.0176*%
%ADD825R,0.0001X0.0175*%
%ADD826R,0.0001X0.0174*%
%ADD827R,0.0001X0.0169*%
%ADD828R,0.0001X0.1125*%
%ADD829R,0.0001X0.0164*%
%ADD830R,0.0001X0.1126*%
%ADD831R,0.0001X0.0161*%
%ADD832R,0.0001X0.0160*%
%ADD833R,0.0001X0.0156*%
%ADD834R,0.0001X0.0152*%
%ADD835R,0.0001X0.0150*%
%ADD836R,0.0001X0.0147*%
%ADD837R,0.0001X0.0144*%
%ADD838R,0.0001X0.1131*%
%ADD839R,0.0001X0.0140*%
%ADD840R,0.0001X0.0138*%
%ADD841R,0.0001X0.0132*%
%ADD842R,0.0001X0.0126*%
%ADD843R,0.0001X0.0125*%
%ADD844R,0.0001X0.0121*%
%ADD845R,0.0001X0.0119*%
%ADD846R,0.0001X0.0116*%
%ADD847R,0.0001X0.0114*%
%ADD848R,0.0001X0.0111*%
%ADD849R,0.0001X0.0107*%
%ADD850R,0.0001X0.0104*%
%ADD851R,0.0001X0.0101*%
%ADD852R,0.0001X0.0100*%
%ADD853R,0.0001X0.0092*%
%ADD854R,0.0001X0.0085*%
%ADD855R,0.0001X0.0084*%
%ADD856R,0.0001X0.0080*%
%ADD857R,0.0001X0.0076*%
%ADD858R,0.0001X0.0073*%
%ADD859R,0.0001X0.0067*%
%ADD860R,0.0001X0.0060*%
%ADD861R,0.0001X0.0055*%
%ADD862R,0.0001X0.0044*%
%ADD863R,0.0001X0.0026*%
%ADD864R,0.0001X0.0022*%
%ADD865R,0.0001X0.0010*%
%ADD866R,0.0001X0.0813*%
%ADD867R,0.0001X0.0838*%
%ADD868R,0.0001X0.0849*%
%ADD869R,0.0001X0.0859*%
%ADD870R,0.0001X0.1100*%
%ADD871R,0.0001X0.0880*%
%ADD872R,0.0001X0.0897*%
%ADD873R,0.0001X0.0900*%
%ADD874R,0.0001X0.1119*%
%ADD875R,0.0001X0.0951*%
%ADD876R,0.0001X0.0954*%
%ADD877R,0.0001X0.0964*%
%ADD878R,0.0001X0.1133*%
%ADD879R,0.0001X0.0971*%
%ADD880R,0.0001X0.0974*%
%ADD881R,0.0001X0.0978*%
%ADD882R,0.0001X0.0983*%
%ADD883R,0.0001X0.0989*%
%ADD884R,0.0001X0.1139*%
%ADD885R,0.0001X0.0996*%
%ADD886R,0.0001X0.0998*%
%ADD887R,0.0001X0.1001*%
%ADD888R,0.0001X0.1005*%
%ADD889R,0.0001X0.1143*%
%ADD890R,0.0001X0.1009*%
%ADD891R,0.0001X0.1014*%
%ADD892R,0.0001X0.1144*%
%ADD893R,0.0001X0.1013*%
%ADD894R,0.0001X0.1146*%
%ADD895R,0.0001X0.1008*%
%ADD896R,0.0001X0.1149*%
%ADD897R,0.0001X0.1151*%
%ADD898R,0.0001X0.1004*%
%ADD899R,0.0001X0.1154*%
%ADD900R,0.0001X0.1000*%
%ADD901R,0.0001X0.1158*%
%ADD902R,0.0001X0.1160*%
%ADD903R,0.0001X0.1163*%
%ADD904R,0.0001X0.0994*%
%ADD905R,0.0001X0.0991*%
%ADD906R,0.0001X0.1165*%
%ADD907R,0.0001X0.0988*%
%ADD908R,0.0001X0.1169*%
%ADD909R,0.0001X0.0985*%
%ADD910R,0.0001X0.1172*%
%ADD911R,0.0001X0.1175*%
%ADD912R,0.0001X0.0981*%
%ADD913R,0.0001X0.1176*%
%ADD914R,0.0001X0.1177*%
%ADD915R,0.0001X0.1179*%
%ADD916R,0.0001X0.0976*%
%ADD917R,0.0001X0.1180*%
%ADD918R,0.0001X0.1181*%
%ADD919R,0.0001X0.1182*%
%ADD920R,0.0001X0.1184*%
%ADD921R,0.0001X0.1185*%
%ADD922R,0.0001X0.0970*%
%ADD923R,0.0001X0.1186*%
%ADD924R,0.0001X0.1187*%
%ADD925R,0.0001X0.0968*%
%ADD926R,0.0001X0.1189*%
%ADD927R,0.0001X0.1190*%
%ADD928R,0.0001X0.1191*%
%ADD929R,0.0001X0.1192*%
%ADD930R,0.0001X0.1194*%
%ADD931R,0.0001X0.0963*%
%ADD932R,0.0001X0.1195*%
%ADD933R,0.0001X0.1196*%
%ADD934R,0.0001X0.0960*%
%ADD935R,0.0001X0.1197*%
%ADD936R,0.0001X0.1199*%
%ADD937R,0.0001X0.1201*%
%ADD938R,0.0001X0.1202*%
%ADD939R,0.0001X0.1204*%
%ADD940R,0.0001X0.0958*%
%ADD941R,0.0001X0.1205*%
%ADD942R,0.0001X0.1206*%
%ADD943R,0.0001X0.1207*%
%ADD944R,0.0001X0.1209*%
%ADD945R,0.0001X0.1210*%
%ADD946R,0.0001X0.1211*%
%ADD947R,0.0001X0.1212*%
%ADD948R,0.0001X0.1214*%
%ADD949R,0.0001X0.1215*%
%ADD950R,0.0001X0.1216*%
%ADD951R,0.0001X0.1217*%
%ADD952R,0.0001X0.1219*%
%ADD953R,0.0001X0.1220*%
%ADD954R,0.0001X0.1221*%
%ADD955R,0.0001X0.1222*%
%ADD956R,0.0001X0.1224*%
%ADD957R,0.0001X0.1225*%
%ADD958R,0.0001X0.1227*%
%ADD959R,0.0001X0.1229*%
%ADD960R,0.0001X0.1230*%
%ADD961R,0.0001X0.1231*%
%ADD962R,0.0001X0.1232*%
%ADD963R,0.0001X0.1234*%
%ADD964R,0.0001X0.1235*%
%ADD965R,0.0001X0.1236*%
%ADD966R,0.0001X0.1237*%
%ADD967R,0.0001X0.1239*%
%ADD968R,0.0001X0.1240*%
%ADD969R,0.0001X0.1241*%
%ADD970R,0.0001X0.1242*%
%ADD971R,0.0001X0.1244*%
%ADD972R,0.0001X0.1015*%
%ADD973R,0.0001X0.1246*%
%ADD974R,0.0001X0.1019*%
%ADD975R,0.0001X0.1247*%
%ADD976R,0.0001X0.1022*%
%ADD977R,0.0001X0.1025*%
%ADD978R,0.0001X0.1249*%
%ADD979R,0.0001X0.1026*%
%ADD980R,0.0001X0.1250*%
%ADD981R,0.0001X0.1034*%
%ADD982R,0.0001X0.1036*%
%ADD983R,0.0001X0.1251*%
%ADD984R,0.0001X0.1037*%
%ADD985R,0.0001X0.1253*%
%ADD986R,0.0001X0.1041*%
%ADD987R,0.0001X0.1254*%
%ADD988R,0.0001X0.1046*%
%ADD989R,0.0001X0.1255*%
%ADD990R,0.0001X0.1049*%
%ADD991R,0.0001X0.1256*%
%ADD992R,0.0001X0.1258*%
%ADD993R,0.0001X0.1056*%
%ADD994R,0.0001X0.1057*%
%ADD995R,0.0001X0.1060*%
%ADD996R,0.0001X0.1259*%
%ADD997R,0.0001X0.1062*%
%ADD998R,0.0001X0.1067*%
%ADD999R,0.0001X0.1261*%
%ADD1000R,0.0001X0.1069*%
%ADD1001R,0.0001X0.1070*%
%ADD1002R,0.0001X0.1263*%
%ADD1003R,0.0001X0.1264*%
%ADD1004R,0.0001X0.1265*%
%ADD1005R,0.0001X0.1266*%
%ADD1006R,0.0001X0.1268*%
%ADD1007R,0.0001X0.1269*%
%ADD1008R,0.0001X0.1270*%
%ADD1009R,0.0001X0.1271*%
%ADD1010R,0.0001X0.1273*%
%ADD1011R,0.0001X0.1275*%
%ADD1012R,0.0001X0.1276*%
%ADD1013R,0.0001X0.1278*%
%ADD1014R,0.0001X0.1280*%
%ADD1015R,0.0001X0.1281*%
%ADD1016R,0.0001X0.1285*%
%ADD1017R,0.0001X0.1288*%
%ADD1018R,0.0001X0.1290*%
%ADD1019R,0.0001X0.1291*%
%ADD1020R,0.0001X0.1295*%
%ADD1021R,0.0001X0.1298*%
%ADD1022R,0.0001X0.1304*%
%ADD1023R,0.0001X0.2379*%
%ADD1024R,0.0001X0.2376*%
%ADD1025R,0.0001X0.2374*%
%ADD1026R,0.0001X0.2366*%
%ADD1027R,0.0001X0.2356*%
%ADD1028R,0.0001X0.2349*%
%ADD1029R,0.0001X0.2343*%
%ADD1030R,0.0001X0.2339*%
%ADD1031R,0.0001X0.2331*%
%ADD1032R,0.0001X0.2328*%
%ADD1033R,0.0001X0.2321*%
%ADD1034R,0.0001X0.2318*%
%ADD1035R,0.0001X0.2311*%
%ADD1036R,0.0001X0.2309*%
%ADD1037R,0.0001X0.2304*%
%ADD1038R,0.0001X0.2301*%
%ADD1039R,0.0001X0.2296*%
%ADD1040R,0.0001X0.2293*%
%ADD1041R,0.0001X0.2289*%
%ADD1042R,0.0001X0.2285*%
%ADD1043R,0.0001X0.2281*%
%ADD1044R,0.0001X0.2279*%
%ADD1045R,0.0001X0.2270*%
%ADD1046R,0.0001X0.2268*%
%ADD1047R,0.0001X0.2265*%
%ADD1048R,0.0001X0.2261*%
%ADD1049R,0.0001X0.2258*%
%ADD1050R,0.0001X0.2255*%
%ADD1051R,0.0001X0.2253*%
%ADD1052R,0.0001X0.2249*%
%ADD1053R,0.0001X0.2245*%
%ADD1054R,0.0001X0.2243*%
%ADD1055R,0.0001X0.2240*%
%ADD1056R,0.0001X0.2234*%
%ADD1057R,0.0001X0.2231*%
%ADD1058R,0.0001X0.2229*%
%ADD1059R,0.0001X0.2226*%
%ADD1060R,0.0001X0.2223*%
%ADD1061R,0.0001X0.2218*%
%ADD1062R,0.0001X0.2215*%
%ADD1063R,0.0001X0.2211*%
%ADD1064R,0.0001X0.2208*%
%ADD1065R,0.0001X0.2204*%
%ADD1066R,0.0001X0.2200*%
%ADD1067R,0.0001X0.2196*%
%ADD1068R,0.0001X0.2194*%
%ADD1069R,0.0001X0.2189*%
%ADD1070R,0.0001X0.2185*%
%ADD1071R,0.0001X0.2181*%
%ADD1072R,0.0001X0.2177*%
%ADD1073R,0.0001X0.2172*%
%ADD1074R,0.0001X0.2169*%
%ADD1075R,0.0001X0.2165*%
%ADD1076R,0.0001X0.2161*%
%ADD1077R,0.0001X0.2155*%
%ADD1078R,0.0001X0.2152*%
%ADD1079R,0.0001X0.2147*%
%ADD1080R,0.0001X0.2144*%
%ADD1081R,0.0001X0.2139*%
%ADD1082R,0.0001X0.2134*%
%ADD1083R,0.0001X0.2130*%
%ADD1084R,0.0001X0.2126*%
%ADD1085R,0.0001X0.2122*%
%ADD1086R,0.0001X0.2119*%
%ADD1087R,0.0001X0.2115*%
%ADD1088R,0.0001X0.2110*%
%ADD1089R,0.0001X0.2106*%
%ADD1090R,0.0001X0.2104*%
%ADD1091R,0.0001X0.2099*%
%ADD1092R,0.0001X0.2095*%
%ADD1093R,0.0001X0.2090*%
%ADD1094R,0.0001X0.2085*%
%ADD1095R,0.0001X0.2082*%
%ADD1096R,0.0001X0.2079*%
%ADD1097R,0.0001X0.2072*%
%ADD1098R,0.0001X0.2069*%
%ADD1099R,0.0001X0.2064*%
%ADD1100R,0.0001X0.2056*%
%ADD1101R,0.0001X0.2051*%
%ADD1102R,0.0001X0.2045*%
%ADD1103R,0.0001X0.2040*%
%ADD1104R,0.0001X0.2031*%
%ADD1105R,0.0001X0.2026*%
%ADD1106R,0.0001X0.2020*%
%ADD1107R,0.0001X0.2014*%
%ADD1108R,0.0001X0.2005*%
%ADD1109R,0.0001X0.1998*%
%ADD1110R,0.0001X0.1993*%
%ADD1111R,0.0001X0.1985*%
%ADD1112R,0.0001X0.1981*%
%ADD1113R,0.0001X0.1975*%
%ADD1114R,0.0001X0.1968*%
%ADD1115R,0.0001X0.1960*%
%ADD1116R,0.0001X0.1954*%
%ADD1117R,0.0001X0.1949*%
%ADD1118R,0.0001X0.1943*%
%ADD1119R,0.0001X0.1934*%
%ADD1120R,0.0001X0.1926*%
%ADD1121R,0.0001X0.1918*%
%ADD1122R,0.0001X0.1904*%
%ADD1123R,0.0001X0.1894*%
%ADD1124R,0.0001X0.1884*%
%ADD1125R,0.0001X0.1872*%
%ADD1126R,0.0001X0.1856*%
%ADD1127R,0.0001X0.1845*%
%ADD1128R,0.0001X0.1831*%
%ADD1129R,0.0001X0.1817*%
%ADD1130R,0.0001X0.1809*%
%ADD1131R,0.0001X0.1792*%
%ADD1132R,0.0001X0.1772*%
%ADD1133R,0.0001X0.1749*%
%ADD1134R,0.0001X0.1715*%
D10*
X008532Y002408D02*
X008746Y002408D01*
X008532Y002622D01*
X008532Y002675D01*
X008586Y002729D01*
X008693Y002729D01*
X008746Y002675D01*
X008855Y002729D02*
X009068Y002729D01*
X009068Y002568D01*
X008961Y002622D01*
X008908Y002622D01*
X008855Y002568D01*
X008855Y002462D01*
X008908Y002408D01*
X009015Y002408D01*
X009068Y002462D01*
X009177Y002408D02*
X009390Y002408D01*
X009177Y002622D01*
X009177Y002675D01*
X009230Y002729D01*
X009337Y002729D01*
X009390Y002675D01*
X009499Y002675D02*
X009553Y002729D01*
X009659Y002729D01*
X009713Y002675D01*
X009821Y002622D02*
X009821Y002408D01*
X009982Y002408D01*
X010035Y002462D01*
X010035Y002622D01*
X010143Y002622D02*
X010304Y002515D01*
X010143Y002408D01*
X010304Y002408D02*
X010304Y002729D01*
X010412Y002622D02*
X010572Y002622D01*
X010626Y002568D01*
X010572Y002515D01*
X010466Y002515D01*
X010412Y002462D01*
X010466Y002408D01*
X010626Y002408D01*
X010948Y002408D02*
X010735Y002729D01*
X011057Y002622D02*
X011217Y002622D01*
X011270Y002568D01*
X011217Y002515D01*
X011110Y002515D01*
X011057Y002462D01*
X011110Y002408D01*
X011270Y002408D01*
X011378Y002408D02*
X011432Y002462D01*
X011432Y002675D01*
X011485Y002622D02*
X011378Y002622D01*
X011594Y002622D02*
X011754Y002622D01*
X011807Y002568D01*
X011807Y002462D01*
X011754Y002408D01*
X011594Y002408D01*
X011916Y002408D02*
X011916Y002622D01*
X012130Y002622D02*
X012130Y002462D01*
X012076Y002408D01*
X011916Y002408D01*
X012239Y002408D02*
X012399Y002408D01*
X012452Y002462D01*
X012452Y002568D01*
X012399Y002622D01*
X012239Y002622D01*
X012239Y002729D02*
X012239Y002408D01*
X012561Y002462D02*
X012561Y002568D01*
X012614Y002622D01*
X012721Y002622D01*
X012774Y002568D01*
X012774Y002462D01*
X012721Y002408D01*
X012614Y002408D01*
X012561Y002462D01*
X012936Y002622D02*
X013043Y002515D01*
X013043Y002408D02*
X013043Y002622D01*
X012936Y002622D02*
X012883Y002622D01*
X013152Y002568D02*
X013152Y002462D01*
X013205Y002408D01*
X013365Y002408D01*
X013365Y002302D02*
X013365Y002622D01*
X013205Y002622D01*
X013152Y002568D01*
X013365Y002827D02*
X013365Y003147D01*
X013205Y003147D01*
X013152Y003093D01*
X013152Y002987D01*
X013205Y002933D01*
X013365Y002933D01*
X013043Y002987D02*
X012990Y003040D01*
X012829Y003040D01*
X012829Y003093D02*
X012829Y002933D01*
X012990Y002933D01*
X013043Y002987D01*
X012990Y003147D02*
X012883Y003147D01*
X012829Y003093D01*
X012721Y003147D02*
X012507Y002933D01*
X012398Y002933D02*
X012292Y002933D01*
X012345Y002933D02*
X012345Y003147D01*
X012398Y003147D01*
X012507Y003147D02*
X012721Y002933D01*
X012183Y002933D02*
X012183Y003147D01*
X012023Y003147D01*
X011970Y003093D01*
X011970Y002933D01*
X011861Y002933D02*
X011701Y002933D01*
X011648Y002987D01*
X011701Y003040D01*
X011808Y003040D01*
X011861Y003093D01*
X011808Y003147D01*
X011648Y003147D01*
X011539Y003147D02*
X011432Y003147D01*
X011486Y003200D02*
X011486Y002987D01*
X011432Y002933D01*
X011324Y002933D02*
X011324Y003147D01*
X011324Y003040D02*
X011217Y003147D01*
X011164Y003147D01*
X011056Y003147D02*
X011056Y002987D01*
X011002Y002933D01*
X010842Y002933D01*
X010842Y003147D01*
X010733Y003147D02*
X010680Y003147D01*
X010626Y003093D01*
X010573Y003147D01*
X010520Y003093D01*
X010520Y002933D01*
X010626Y002933D02*
X010626Y003093D01*
X010733Y003147D02*
X010733Y002933D01*
X010411Y002987D02*
X010411Y003093D01*
X010358Y003147D01*
X010251Y003147D01*
X010197Y003093D01*
X010197Y003040D01*
X010411Y003040D01*
X010411Y002987D02*
X010358Y002933D01*
X010251Y002933D01*
X010089Y002933D02*
X010089Y003147D01*
X009929Y003147D01*
X009875Y003093D01*
X009875Y002933D01*
X009713Y002987D02*
X009660Y002933D01*
X009713Y002987D02*
X009713Y003200D01*
X009766Y003147D02*
X009660Y003147D01*
X009552Y003093D02*
X009498Y003147D01*
X009338Y003147D01*
X009391Y003040D02*
X009338Y002987D01*
X009391Y002933D01*
X009552Y002933D01*
X009498Y003040D02*
X009552Y003093D01*
X009498Y003040D02*
X009391Y003040D01*
X009229Y002987D02*
X009229Y002933D01*
X009176Y002933D01*
X009176Y002987D01*
X009229Y002987D01*
X009068Y002987D02*
X009015Y002933D01*
X008855Y002933D01*
X008746Y002987D02*
X008693Y002933D01*
X008586Y002933D01*
X008532Y002987D01*
X008532Y003093D01*
X008586Y003147D01*
X008693Y003147D01*
X008746Y003093D01*
X008746Y002987D01*
X008855Y003147D02*
X009015Y003147D01*
X009068Y003093D01*
X009068Y002987D01*
X008424Y002933D02*
X008424Y003147D01*
X008370Y003147D01*
X008317Y003093D01*
X008263Y003147D01*
X008210Y003093D01*
X008210Y002933D01*
X008317Y002933D02*
X008317Y003093D01*
X008101Y002933D02*
X007888Y003254D01*
X009499Y002675D02*
X009499Y002622D01*
X009713Y002408D01*
X009499Y002408D01*
X012345Y003254D02*
X012345Y003307D01*
X016195Y003337D02*
X016195Y003241D01*
X016244Y003192D01*
X016437Y003386D01*
X016244Y003386D01*
X016195Y003337D01*
X016437Y003386D02*
X016485Y003337D01*
X016485Y003241D01*
X016437Y003192D01*
X016244Y003192D01*
X016244Y003091D02*
X016195Y003043D01*
X016195Y002946D01*
X016244Y002898D01*
X016437Y003091D01*
X016244Y003091D01*
X016437Y003091D02*
X016485Y003043D01*
X016485Y002946D01*
X016437Y002898D01*
X016244Y002898D01*
X016195Y002796D02*
X016195Y002603D01*
X016195Y002700D02*
X016485Y002700D01*
X016389Y002603D01*
X016675Y002651D02*
X016675Y002748D01*
X016675Y002651D02*
X016724Y002603D01*
X016820Y002603D01*
X016869Y002651D01*
X016869Y002748D01*
X016820Y002796D01*
X016772Y002796D01*
X016772Y002603D01*
X017155Y002651D02*
X017204Y002603D01*
X017252Y002651D01*
X017252Y002796D01*
X017300Y002796D02*
X017155Y002796D01*
X017155Y002651D01*
X017349Y002651D02*
X017349Y002748D01*
X017300Y002796D01*
X017349Y002898D02*
X017155Y003091D01*
X017155Y002898D02*
X017349Y003091D01*
X016869Y003043D02*
X016820Y003091D01*
X016675Y003091D01*
X016675Y002994D02*
X016820Y002994D01*
X016869Y003043D01*
X016820Y002994D02*
X016869Y002946D01*
X016869Y002898D01*
X016675Y002898D01*
X016675Y003192D02*
X016675Y003337D01*
X016724Y003386D01*
X016820Y003386D01*
X016869Y003337D01*
X016869Y003192D01*
X016578Y003192D01*
X016724Y003487D02*
X016820Y003487D01*
X016869Y003535D01*
X016869Y003632D01*
X016820Y003680D01*
X016772Y003680D01*
X016772Y003487D01*
X016724Y003487D02*
X016675Y003535D01*
X016675Y003632D01*
X016675Y003782D02*
X016869Y003782D01*
X016869Y003878D02*
X016869Y003927D01*
X016869Y003878D02*
X016772Y003782D01*
X016389Y003782D02*
X016195Y003878D01*
X016389Y003975D01*
X016437Y004076D02*
X016485Y004125D01*
X016485Y004221D01*
X016437Y004270D01*
X016244Y004076D01*
X016195Y004125D01*
X016195Y004221D01*
X016244Y004270D01*
X016437Y004270D01*
X016244Y004371D02*
X016195Y004371D01*
X016195Y004419D01*
X016244Y004419D01*
X016244Y004371D01*
X016244Y004518D02*
X016195Y004567D01*
X016195Y004663D01*
X016244Y004712D01*
X016292Y004712D01*
X016340Y004663D01*
X016340Y004615D01*
X016340Y004663D02*
X016389Y004712D01*
X016437Y004712D01*
X016485Y004663D01*
X016485Y004567D01*
X016437Y004518D01*
X016675Y004567D02*
X016675Y004712D01*
X016869Y004712D01*
X016869Y004813D02*
X016675Y004813D01*
X016772Y004813D02*
X016869Y004910D01*
X016869Y004958D01*
X016820Y005058D02*
X016869Y005107D01*
X016869Y005204D01*
X016820Y005252D01*
X016772Y005252D01*
X016772Y005058D01*
X016724Y005058D02*
X016820Y005058D01*
X016724Y005058D02*
X016675Y005107D01*
X016675Y005204D01*
X017155Y005203D02*
X017300Y005203D01*
X017349Y005154D01*
X017300Y005106D01*
X017155Y005106D01*
X017155Y005009D02*
X017349Y005009D01*
X017349Y005058D01*
X017300Y005106D01*
X017300Y005304D02*
X017349Y005352D01*
X017349Y005449D01*
X017300Y005497D01*
X017252Y005497D01*
X017252Y005304D01*
X017204Y005304D02*
X017300Y005304D01*
X017204Y005304D02*
X017155Y005352D01*
X017155Y005449D01*
X017155Y005599D02*
X017349Y005599D01*
X017349Y005744D01*
X017300Y005792D01*
X017155Y005792D01*
X017349Y005893D02*
X017349Y005990D01*
X017397Y005942D02*
X017204Y005942D01*
X017155Y005990D01*
X017155Y006090D02*
X017155Y006235D01*
X017204Y006283D01*
X017252Y006235D01*
X017252Y006138D01*
X017300Y006090D01*
X017349Y006138D01*
X017349Y006283D01*
X016965Y006237D02*
X016675Y006237D01*
X016675Y006382D01*
X016724Y006430D01*
X016820Y006430D01*
X016869Y006382D01*
X016869Y006237D01*
X016820Y006136D02*
X016675Y006136D01*
X016675Y005991D01*
X016724Y005942D01*
X016772Y005991D01*
X016772Y006136D01*
X016820Y006136D02*
X016869Y006087D01*
X016869Y005991D01*
X016675Y005841D02*
X016675Y005648D01*
X016965Y005648D01*
X017155Y004908D02*
X017349Y004908D01*
X017155Y004908D02*
X017155Y004763D01*
X017204Y004715D01*
X017349Y004715D01*
X017349Y004614D02*
X017349Y004566D01*
X017252Y004469D01*
X017155Y004469D02*
X017349Y004469D01*
X017349Y004369D02*
X017349Y004273D01*
X017397Y004321D02*
X017204Y004321D01*
X017155Y004369D01*
X016917Y004370D02*
X016724Y004370D01*
X016675Y004419D01*
X016724Y004518D02*
X016675Y004567D01*
X016724Y004518D02*
X016869Y004518D01*
X016869Y004419D02*
X016869Y004322D01*
X016820Y004221D02*
X016675Y004221D01*
X016675Y004075D01*
X016724Y004027D01*
X016772Y004075D01*
X016772Y004221D01*
X016820Y004221D02*
X016869Y004172D01*
X016869Y004075D01*
X017155Y004123D02*
X017155Y003978D01*
X017155Y003877D02*
X017300Y003877D01*
X017349Y003828D01*
X017349Y003683D01*
X017155Y003683D01*
X017155Y003584D02*
X017155Y003487D01*
X017155Y003535D02*
X017445Y003535D01*
X017445Y003487D02*
X017445Y003584D01*
X017300Y003978D02*
X017349Y004026D01*
X017349Y004171D01*
X017252Y004123D02*
X017204Y004171D01*
X017155Y004123D01*
X017252Y004123D02*
X017252Y004026D01*
X017300Y003978D01*
X016437Y004076D02*
X016244Y004076D01*
X016485Y002502D02*
X016485Y002308D01*
X016485Y002405D02*
X016195Y002405D01*
X016675Y002405D02*
X016965Y002405D01*
X016965Y002308D02*
X016965Y002502D01*
X017252Y002453D02*
X017252Y002308D01*
X017155Y002308D02*
X017445Y002308D01*
X017445Y002453D01*
X017397Y002502D01*
X017300Y002502D01*
X017252Y002453D01*
X016917Y006532D02*
X016869Y006532D01*
X016820Y006580D01*
X016820Y006677D01*
X016772Y006725D01*
X016724Y006725D01*
X016675Y006677D01*
X016675Y006580D01*
X016724Y006532D01*
X016917Y006532D02*
X016965Y006580D01*
X016965Y006677D01*
X016917Y006725D01*
X016869Y006826D02*
X016869Y006923D01*
X016917Y006875D02*
X016724Y006875D01*
X016675Y006923D01*
X016675Y007023D02*
X016675Y007119D01*
X016675Y007071D02*
X016869Y007071D01*
X016869Y007023D01*
X016965Y007071D02*
X017014Y007071D01*
X016820Y007219D02*
X016724Y007219D01*
X016675Y007268D01*
X016675Y007413D01*
X016869Y007413D02*
X016869Y007268D01*
X016820Y007219D01*
X016772Y007514D02*
X016869Y007659D01*
X016965Y007514D02*
X016675Y007514D01*
X016772Y007514D02*
X016675Y007659D01*
D11*
X010880Y006343D02*
X010380Y006343D01*
X010280Y006243D02*
X010280Y006493D01*
X008280Y006493D01*
X008280Y006243D01*
X008280Y005693D02*
X008280Y005293D01*
X010280Y005343D02*
X010280Y005693D01*
X010280Y004693D02*
X010280Y004293D01*
X010280Y003743D02*
X010280Y003493D01*
X008280Y003493D01*
X008280Y003743D01*
X008280Y004293D02*
X008280Y004693D01*
D12*
X013980Y006243D03*
D13*
X013981Y006243D03*
D14*
X013983Y006242D03*
D15*
X013984Y006243D03*
D16*
X013985Y006243D03*
D17*
X013986Y006243D03*
D18*
X013988Y006242D03*
D19*
X013989Y006243D03*
D20*
X013990Y006243D03*
D21*
X013991Y006242D03*
D22*
X013993Y006242D03*
X016468Y006242D03*
D23*
X013994Y006243D03*
D24*
X013995Y006243D03*
D25*
X013996Y006242D03*
D26*
X013998Y006242D03*
D27*
X013999Y006242D03*
X016461Y006242D03*
D28*
X014000Y006242D03*
D29*
X014001Y006243D03*
D30*
X014003Y006242D03*
D31*
X014004Y006242D03*
D32*
X014005Y006242D03*
D33*
X014006Y006243D03*
D34*
X014008Y006243D03*
D35*
X014009Y006242D03*
D36*
X014010Y006242D03*
D37*
X014011Y006243D03*
D38*
X014013Y006243D03*
D39*
X014014Y006243D03*
D40*
X014015Y006243D03*
D41*
X014016Y006243D03*
D42*
X014018Y006243D03*
X016443Y006243D03*
D43*
X014019Y006243D03*
D44*
X014020Y006243D03*
D45*
X014021Y006242D03*
D46*
X014023Y006242D03*
D47*
X014024Y006242D03*
X016436Y006242D03*
D48*
X014025Y006243D03*
D49*
X014026Y006243D03*
D50*
X014028Y006242D03*
D51*
X014029Y006242D03*
D52*
X014030Y006243D03*
X016430Y006243D03*
D53*
X014031Y006242D03*
D54*
X014033Y006242D03*
D55*
X014034Y006242D03*
D56*
X014035Y006242D03*
D57*
X014036Y006242D03*
D58*
X014038Y006242D03*
D59*
X014039Y006243D03*
D60*
X014040Y006243D03*
D61*
X014041Y006243D03*
D62*
X014043Y006243D03*
D63*
X014044Y006242D03*
D64*
X014045Y006242D03*
D65*
X014046Y006243D03*
D66*
X014048Y006242D03*
D67*
X014049Y006242D03*
D68*
X014050Y006242D03*
D69*
X014051Y006243D03*
D70*
X014053Y006243D03*
D71*
X014054Y006243D03*
D72*
X014055Y006243D03*
X016405Y006243D03*
D73*
X014056Y006242D03*
D74*
X014058Y006243D03*
D75*
X014059Y006242D03*
D76*
X014060Y006243D03*
D77*
X014061Y006242D03*
X016399Y006242D03*
D78*
X014063Y006242D03*
D79*
X014064Y006243D03*
D80*
X014065Y006243D03*
D81*
X014066Y006242D03*
D82*
X014068Y006242D03*
X016393Y006242D03*
D83*
X014069Y006243D03*
D84*
X014070Y006243D03*
D85*
X014071Y006242D03*
D86*
X014073Y006243D03*
D87*
X014074Y006243D03*
X016386Y006243D03*
D88*
X014075Y006243D03*
D89*
X014076Y006243D03*
D90*
X014078Y006243D03*
D91*
X014079Y006243D03*
D92*
X014080Y006242D03*
X016380Y006242D03*
D93*
X014081Y006243D03*
D94*
X014083Y006242D03*
D95*
X014084Y006242D03*
D96*
X014085Y006243D03*
D97*
X014086Y006242D03*
X016374Y006242D03*
D98*
X014088Y006242D03*
D99*
X014089Y006243D03*
D100*
X014090Y006243D03*
D101*
X014091Y006243D03*
D102*
X014093Y006243D03*
X016366Y006243D03*
D103*
X014094Y006242D03*
D104*
X014095Y006242D03*
D105*
X014096Y006242D03*
D106*
X014098Y006242D03*
D107*
X014099Y006243D03*
X016361Y006243D03*
D108*
X014100Y006242D03*
D109*
X014101Y006242D03*
D110*
X014103Y006242D03*
D111*
X014104Y006242D03*
D112*
X014105Y006243D03*
X016355Y006243D03*
D113*
X014106Y006242D03*
D114*
X014108Y006242D03*
D115*
X014109Y006242D03*
D116*
X014110Y006242D03*
D117*
X014111Y006243D03*
X016348Y006243D03*
X016349Y006243D03*
D118*
X016346Y006242D03*
X014113Y006242D03*
D119*
X014114Y006243D03*
D120*
X014115Y006243D03*
D121*
X014116Y006243D03*
D122*
X014118Y006242D03*
X016343Y006242D03*
D123*
X014119Y006242D03*
D124*
X014120Y006243D03*
X016339Y006243D03*
D125*
X014121Y006242D03*
D126*
X014123Y006242D03*
D127*
X014124Y006243D03*
X016336Y006243D03*
D128*
X016334Y006243D03*
X014125Y006243D03*
D129*
X014126Y006242D03*
D130*
X014128Y006243D03*
D131*
X014129Y006243D03*
X016330Y006243D03*
D132*
X016329Y006242D03*
X014130Y006242D03*
D133*
X014131Y006243D03*
D134*
X014133Y006243D03*
D135*
X014134Y006242D03*
X016325Y006242D03*
D136*
X014135Y006243D03*
D137*
X014136Y006242D03*
X016324Y006242D03*
D138*
X016321Y006242D03*
X014138Y006242D03*
D139*
X014139Y006243D03*
D140*
X014140Y006243D03*
X016319Y006243D03*
D141*
X014141Y006242D03*
D142*
X014143Y006242D03*
X016318Y006242D03*
D143*
X016315Y006242D03*
X014144Y006242D03*
D144*
X014145Y006243D03*
D145*
X014146Y006243D03*
X016313Y006243D03*
D146*
X014148Y006242D03*
D147*
X014149Y006243D03*
X016311Y006243D03*
D148*
X016310Y006242D03*
X014150Y006242D03*
D149*
X014151Y006243D03*
X016308Y006243D03*
D150*
X014153Y006242D03*
D151*
X014154Y006242D03*
X016305Y006242D03*
D152*
X016304Y006243D03*
X014155Y006243D03*
D153*
X014156Y006242D03*
D154*
X014158Y006243D03*
X016303Y006243D03*
D155*
X016300Y006242D03*
X014159Y006242D03*
D156*
X014160Y006243D03*
D157*
X014161Y006242D03*
X016298Y006242D03*
X016299Y006242D03*
D158*
X014163Y006243D03*
D159*
X014164Y006243D03*
X016295Y006243D03*
D160*
X014165Y006242D03*
D161*
X014166Y006243D03*
X016294Y006243D03*
D162*
X016293Y006242D03*
X016291Y006242D03*
X014168Y006242D03*
D163*
X014169Y006242D03*
D164*
X014170Y006243D03*
X016290Y006243D03*
D165*
X016288Y006243D03*
X014171Y006243D03*
D166*
X014173Y006242D03*
D167*
X014174Y006243D03*
X016285Y006243D03*
X016286Y006243D03*
D168*
X014175Y006242D03*
D169*
X014176Y006243D03*
X016284Y006243D03*
D170*
X014178Y006243D03*
D171*
X014179Y006243D03*
X014180Y006243D03*
X016280Y006243D03*
D172*
X016278Y006243D03*
X014181Y006243D03*
D173*
X014183Y006242D03*
X016276Y006242D03*
D174*
X016275Y006243D03*
X014184Y006243D03*
D175*
X014185Y006242D03*
D176*
X014186Y006243D03*
X016273Y006243D03*
X016274Y006243D03*
D177*
X016271Y006242D03*
X014188Y006242D03*
D178*
X014189Y006242D03*
D179*
X014190Y006243D03*
X016270Y006243D03*
D180*
X016269Y006242D03*
X014191Y006242D03*
D181*
X014193Y006243D03*
X016266Y006243D03*
X016268Y006243D03*
D182*
X014194Y006242D03*
D183*
X014195Y006243D03*
X016265Y006243D03*
D184*
X016264Y006242D03*
X014196Y006242D03*
D185*
X014198Y006243D03*
X016263Y006243D03*
D186*
X016261Y006242D03*
X016260Y006242D03*
X014199Y006242D03*
D187*
X014200Y006242D03*
D188*
X014201Y006243D03*
X016258Y006243D03*
X016259Y006243D03*
D189*
X014203Y006242D03*
D190*
X014204Y006243D03*
X016256Y006243D03*
D191*
X016255Y006242D03*
X016254Y006242D03*
X014205Y006242D03*
D192*
X014206Y006243D03*
X016253Y006243D03*
D193*
X016251Y006242D03*
X014208Y006242D03*
D194*
X014209Y006243D03*
X016250Y006243D03*
D195*
X016249Y006242D03*
X014211Y006242D03*
X014210Y006242D03*
D196*
X014213Y006242D03*
X016248Y006242D03*
D197*
X016246Y006243D03*
X014214Y006243D03*
D198*
X014215Y006242D03*
X016245Y006242D03*
D199*
X016244Y006243D03*
X014216Y006243D03*
D200*
X014218Y006242D03*
X016241Y006242D03*
X016243Y006242D03*
D201*
X016240Y006243D03*
X014219Y006243D03*
D202*
X014220Y006242D03*
X016239Y006242D03*
D203*
X016238Y006243D03*
X014223Y006243D03*
X014221Y006243D03*
D204*
X014224Y006242D03*
X016235Y006242D03*
X016236Y006242D03*
D205*
X016234Y006242D03*
X014225Y006242D03*
D206*
X014226Y006243D03*
X016233Y006243D03*
D207*
X016231Y006242D03*
X014228Y006242D03*
D208*
X014229Y006243D03*
X014230Y006243D03*
X016229Y006243D03*
X016230Y006243D03*
D209*
X016228Y006242D03*
X014231Y006242D03*
D210*
X014233Y006243D03*
X016226Y006243D03*
D211*
X016225Y006242D03*
X014234Y006242D03*
D212*
X014235Y006243D03*
X014236Y006243D03*
X016223Y006243D03*
X016224Y006243D03*
D213*
X016221Y006242D03*
X014238Y006242D03*
D214*
X014239Y006242D03*
X014240Y006242D03*
X016220Y006242D03*
D215*
X016219Y006243D03*
X016218Y006243D03*
X014241Y006243D03*
D216*
X014243Y006242D03*
X014244Y006242D03*
X016216Y006242D03*
D217*
X016215Y006243D03*
X016214Y006243D03*
X014245Y006243D03*
D218*
X014246Y006242D03*
X016213Y006242D03*
D219*
X016211Y006243D03*
X016210Y006243D03*
X014249Y006243D03*
X014248Y006243D03*
D220*
X014250Y006242D03*
X016209Y006242D03*
D221*
X016208Y006243D03*
X014253Y006243D03*
X014251Y006243D03*
D222*
X014254Y006242D03*
X016205Y006242D03*
X016206Y006242D03*
D223*
X014255Y006243D03*
D224*
X014256Y006242D03*
X016204Y006242D03*
D225*
X016203Y006243D03*
X016201Y006243D03*
X014258Y006243D03*
D226*
X014259Y006242D03*
X014260Y006242D03*
X016200Y006242D03*
D227*
X016199Y006243D03*
X016198Y006243D03*
X014263Y006243D03*
X014261Y006243D03*
D228*
X014264Y006242D03*
X016195Y006242D03*
X016196Y006242D03*
D229*
X016194Y006243D03*
X014266Y006243D03*
X014265Y006243D03*
D230*
X014268Y006242D03*
X014269Y006242D03*
X016191Y006242D03*
X016193Y006242D03*
D231*
X016190Y006243D03*
X016189Y006243D03*
X014270Y006243D03*
D232*
X014271Y006242D03*
X014273Y006242D03*
X016188Y006242D03*
D233*
X016186Y006242D03*
X016185Y006242D03*
X014275Y006242D03*
X014274Y006242D03*
D234*
X014276Y006243D03*
X014278Y006243D03*
X016183Y006243D03*
X016184Y006243D03*
D235*
X016181Y006242D03*
X016180Y006242D03*
X014280Y006242D03*
X014279Y006242D03*
D236*
X014281Y006243D03*
X014283Y006243D03*
X016178Y006243D03*
X016179Y006243D03*
D237*
X016176Y006242D03*
X016175Y006242D03*
X014284Y006242D03*
D238*
X014285Y006243D03*
X014286Y006243D03*
X014288Y006243D03*
X016173Y006243D03*
X016174Y006243D03*
D239*
X016171Y006242D03*
X016170Y006242D03*
X014289Y006242D03*
D240*
X014290Y006243D03*
X014291Y006243D03*
X014293Y006243D03*
X016166Y006243D03*
X016168Y006243D03*
X016169Y006243D03*
D241*
X016165Y006242D03*
X014295Y006242D03*
X014294Y006242D03*
D242*
X014296Y006242D03*
X014298Y006242D03*
X016164Y006242D03*
D243*
X014301Y006243D03*
X014300Y006243D03*
X014299Y006243D03*
D244*
X014303Y006242D03*
D245*
X014304Y006243D03*
X014305Y006243D03*
X014306Y006243D03*
D246*
X014308Y006242D03*
X014309Y006242D03*
D247*
X014310Y006243D03*
X014311Y006243D03*
X014313Y006243D03*
X014314Y006243D03*
D248*
X014315Y006242D03*
X014316Y006242D03*
D249*
X014318Y006243D03*
X014319Y006243D03*
X014320Y006243D03*
D250*
X014321Y006242D03*
X014323Y006242D03*
X014324Y006242D03*
D251*
X014325Y006243D03*
D252*
X014326Y006242D03*
X014328Y006242D03*
D253*
X014329Y006243D03*
X014330Y006243D03*
X014331Y006243D03*
X014333Y006243D03*
D254*
X014334Y006242D03*
X014335Y006242D03*
X014336Y006242D03*
X014338Y006242D03*
D255*
X014339Y006243D03*
X014340Y006243D03*
X014341Y006243D03*
X014343Y006243D03*
D256*
X014344Y006242D03*
X014345Y006242D03*
X014346Y006242D03*
X014348Y006242D03*
D257*
X014349Y006243D03*
X014350Y006243D03*
X014351Y006243D03*
X014353Y006243D03*
X014354Y006243D03*
X014355Y006243D03*
D258*
X014356Y006242D03*
X014358Y006242D03*
X014359Y006242D03*
X014360Y006242D03*
X014361Y006242D03*
D259*
X014363Y006243D03*
X014364Y006243D03*
X014365Y006243D03*
X014366Y006243D03*
X014368Y006243D03*
X014369Y006243D03*
X014370Y006243D03*
X014371Y006243D03*
D260*
X014373Y006242D03*
X014374Y006242D03*
X014375Y006242D03*
X014376Y006242D03*
X014378Y006242D03*
X014379Y006242D03*
X014380Y006242D03*
X014381Y006242D03*
X014383Y006242D03*
X014384Y006242D03*
X014385Y006242D03*
X014386Y006242D03*
X014388Y006242D03*
D261*
X014389Y006243D03*
X014390Y006243D03*
X014391Y006243D03*
X014393Y006243D03*
X014394Y006243D03*
X014395Y006243D03*
X014396Y006243D03*
X014398Y006243D03*
X014399Y006243D03*
X014400Y006243D03*
X014401Y006243D03*
X014403Y006243D03*
X014404Y006243D03*
X014405Y006243D03*
X014406Y006243D03*
X014408Y006243D03*
X014409Y006243D03*
X014410Y006243D03*
X014411Y006243D03*
X014413Y006243D03*
X014414Y006243D03*
X014415Y006243D03*
X014416Y006243D03*
X014418Y006243D03*
X014419Y006243D03*
X014420Y006243D03*
X014421Y006243D03*
D262*
X014423Y005391D03*
X014424Y005391D03*
X014425Y005391D03*
X014426Y005391D03*
X014428Y005391D03*
X014429Y005391D03*
X014430Y005391D03*
X014431Y005391D03*
X014433Y005391D03*
X014434Y005391D03*
X014435Y005391D03*
X014436Y005391D03*
X014438Y005391D03*
X014439Y005391D03*
X014440Y005391D03*
X014441Y005391D03*
X014443Y005391D03*
X014444Y005391D03*
X014445Y005391D03*
X014446Y005391D03*
X014448Y005391D03*
X014449Y005391D03*
X014450Y005391D03*
X014451Y005391D03*
X014453Y005391D03*
X014454Y005391D03*
X014455Y005391D03*
X014456Y005391D03*
X014458Y005391D03*
X014459Y005391D03*
X014460Y005391D03*
X014461Y005391D03*
X014463Y005391D03*
X014464Y005391D03*
X014465Y005391D03*
X014466Y005391D03*
X014468Y005391D03*
X014469Y005391D03*
X014470Y005391D03*
X014471Y005391D03*
X014473Y005391D03*
X014474Y005391D03*
X014475Y005391D03*
X014476Y005391D03*
X014478Y005391D03*
X014479Y005391D03*
X014480Y005391D03*
X014481Y005391D03*
X014483Y005391D03*
X014484Y005391D03*
X014485Y005391D03*
X014486Y005391D03*
X014488Y005391D03*
X014489Y005391D03*
X014490Y005391D03*
X014491Y005391D03*
X014493Y005391D03*
X014494Y005391D03*
X014495Y005391D03*
X014496Y005391D03*
X014498Y005391D03*
X014499Y005391D03*
X015313Y005391D03*
X015314Y005391D03*
X015315Y005391D03*
X015316Y005391D03*
X015318Y005391D03*
X015319Y005391D03*
X015320Y005391D03*
X015321Y005391D03*
X015323Y005391D03*
X015324Y005391D03*
X015325Y005391D03*
X015326Y005391D03*
X015328Y005391D03*
X015329Y005391D03*
X015330Y005391D03*
X015331Y005391D03*
X015333Y005391D03*
X015334Y005391D03*
X015335Y005391D03*
X015336Y005391D03*
X015338Y005391D03*
X015339Y005391D03*
X015340Y005391D03*
X015341Y005391D03*
X015343Y005391D03*
X015344Y005391D03*
X015345Y005391D03*
X015346Y005391D03*
X015348Y005391D03*
X015349Y005391D03*
X015350Y005391D03*
X015351Y005391D03*
X015353Y005391D03*
X015354Y005391D03*
X015355Y005391D03*
X015356Y005391D03*
X015358Y005391D03*
X015359Y005391D03*
X015360Y005391D03*
X015361Y005391D03*
X015363Y005391D03*
X015364Y005391D03*
X015365Y005391D03*
X015366Y005391D03*
X015368Y005391D03*
X015369Y005391D03*
X015370Y005391D03*
X015371Y005391D03*
X015373Y005391D03*
X015374Y005391D03*
X015375Y005391D03*
X015376Y005391D03*
X015378Y005391D03*
X015379Y005391D03*
X015380Y005391D03*
X015381Y005391D03*
X015383Y005391D03*
X015384Y005391D03*
X015385Y005391D03*
X015386Y005391D03*
X015388Y005391D03*
X015114Y007094D03*
X015756Y007094D03*
D263*
X014499Y006880D03*
X014498Y006880D03*
X014496Y006880D03*
X014495Y006880D03*
X014494Y006880D03*
X014493Y006880D03*
X014491Y006880D03*
X014490Y006880D03*
X014489Y006880D03*
X014488Y006880D03*
X014486Y006880D03*
X014485Y006880D03*
X014484Y006880D03*
X014483Y006880D03*
X014481Y006880D03*
X014480Y006880D03*
X014479Y006880D03*
X014478Y006880D03*
X014476Y006880D03*
X014475Y006880D03*
X014474Y006880D03*
X014473Y006880D03*
X014471Y006880D03*
X014470Y006880D03*
X014469Y006880D03*
X014468Y006880D03*
X014466Y006880D03*
X014465Y006880D03*
X014464Y006880D03*
X014463Y006880D03*
X014461Y006880D03*
X014460Y006880D03*
X014459Y006880D03*
X014458Y006880D03*
X014456Y006880D03*
X014455Y006880D03*
X014454Y006880D03*
X014453Y006880D03*
X014451Y006880D03*
X014450Y006880D03*
X014449Y006880D03*
X014448Y006880D03*
X014446Y006880D03*
X014445Y006880D03*
X014444Y006880D03*
X014443Y006880D03*
X014441Y006880D03*
X014440Y006880D03*
X014439Y006880D03*
X014438Y006880D03*
X014436Y006880D03*
X014435Y006880D03*
X014434Y006880D03*
X014433Y006880D03*
X014431Y006880D03*
X014430Y006880D03*
X014429Y006880D03*
X014428Y006880D03*
X014426Y006880D03*
X014425Y006880D03*
X014424Y006880D03*
X014423Y006880D03*
X016046Y005606D03*
X016048Y005606D03*
D264*
X014500Y005401D03*
X015094Y007085D03*
X015778Y007085D03*
D265*
X014500Y006870D03*
X016079Y005615D03*
X016080Y005615D03*
D266*
X014501Y005409D03*
X015794Y007076D03*
D267*
X014501Y006863D03*
X016110Y005625D03*
D268*
X014503Y005416D03*
X015064Y007070D03*
X015806Y007070D03*
D269*
X014503Y006856D03*
X016141Y005637D03*
X016143Y005637D03*
D270*
X014504Y005421D03*
D271*
X016154Y005645D03*
X014504Y006851D03*
D272*
X015053Y007063D03*
X014505Y005423D03*
D273*
X014505Y006848D03*
D274*
X015045Y007058D03*
X015825Y007058D03*
X014506Y005427D03*
D275*
X014506Y006845D03*
D276*
X015830Y007055D03*
X014508Y005430D03*
D277*
X014508Y006841D03*
D278*
X015036Y007052D03*
X014509Y005433D03*
D279*
X014509Y006838D03*
D280*
X014510Y005436D03*
D281*
X014510Y006836D03*
D282*
X015840Y007048D03*
X014511Y005437D03*
D283*
X014511Y006835D03*
D284*
X015028Y007046D03*
X015843Y007046D03*
X014513Y005439D03*
D285*
X014513Y006833D03*
D286*
X015025Y007045D03*
X015845Y007045D03*
X014514Y005441D03*
D287*
X014514Y006831D03*
D288*
X015023Y007043D03*
X015024Y007043D03*
X015295Y005442D03*
X014515Y005442D03*
D289*
X014515Y006829D03*
D290*
X014516Y005444D03*
X015294Y005444D03*
D291*
X014516Y006828D03*
D292*
X015020Y007041D03*
X015850Y007041D03*
X014518Y005445D03*
D293*
X014518Y006826D03*
D294*
X015853Y007039D03*
X014519Y005446D03*
D295*
X014519Y006826D03*
D296*
X015016Y007038D03*
X015018Y007038D03*
X015290Y005447D03*
X014520Y005447D03*
D297*
X014520Y006825D03*
D298*
X015015Y007037D03*
X015855Y007037D03*
X014521Y005448D03*
D299*
X014521Y006823D03*
D300*
X015014Y007036D03*
X015856Y007036D03*
X014523Y005450D03*
D301*
X014524Y006822D03*
X014523Y006822D03*
D302*
X015858Y007035D03*
X015286Y005450D03*
X014524Y005450D03*
D303*
X014525Y005451D03*
X015285Y005451D03*
X015013Y007035D03*
D304*
X014525Y006821D03*
D305*
X015011Y007034D03*
X015859Y007034D03*
X015284Y005451D03*
X014526Y005451D03*
D306*
X014526Y006820D03*
D307*
X015010Y007033D03*
X015860Y007033D03*
X015281Y005453D03*
X014528Y005453D03*
D308*
X014528Y006820D03*
D309*
X015009Y007032D03*
X015861Y007032D03*
X015280Y005453D03*
X014530Y005453D03*
X014529Y005453D03*
D310*
X014529Y006819D03*
D311*
X014530Y006818D03*
D312*
X014531Y005454D03*
X015279Y005454D03*
D313*
X014531Y006818D03*
D314*
X015008Y007031D03*
X015863Y007031D03*
X015278Y005455D03*
X014533Y005455D03*
D315*
X014533Y006817D03*
D316*
X014534Y005455D03*
X015276Y005455D03*
D317*
X014534Y006816D03*
D318*
X015006Y007030D03*
X015864Y007030D03*
X015275Y005456D03*
X014536Y005456D03*
X014535Y005456D03*
D319*
X014536Y006816D03*
X014535Y006816D03*
D320*
X014538Y005456D03*
X015273Y005456D03*
X015274Y005456D03*
D321*
X014539Y006815D03*
X014538Y006815D03*
D322*
X015005Y007028D03*
X015865Y007028D03*
X015271Y005457D03*
X015270Y005457D03*
X014540Y005457D03*
X014539Y005457D03*
D323*
X014540Y006815D03*
D324*
X015004Y007028D03*
X015866Y007028D03*
X015269Y005458D03*
X015268Y005458D03*
X014543Y005458D03*
X014541Y005458D03*
D325*
X014543Y006814D03*
X014541Y006814D03*
D326*
X014544Y005458D03*
X015266Y005458D03*
D327*
X014545Y006813D03*
X014544Y006813D03*
D328*
X015003Y007026D03*
X015868Y007026D03*
X015265Y005459D03*
X015264Y005459D03*
X014546Y005459D03*
X014545Y005459D03*
D329*
X014546Y006813D03*
X014548Y006813D03*
X014549Y006813D03*
D330*
X015869Y007026D03*
X015263Y005460D03*
X015261Y005460D03*
X015260Y005460D03*
X014550Y005460D03*
X014549Y005460D03*
X014548Y005460D03*
D331*
X014550Y006812D03*
X014551Y006812D03*
X014553Y006812D03*
D332*
X015001Y007025D03*
X015256Y005460D03*
X015258Y005460D03*
X015259Y005460D03*
X014554Y005460D03*
X014553Y005460D03*
X014551Y005460D03*
D333*
X014554Y006811D03*
X014555Y006811D03*
D334*
X015870Y007025D03*
X015255Y005461D03*
X015254Y005461D03*
X015253Y005461D03*
X015251Y005461D03*
X014559Y005461D03*
X014558Y005461D03*
X014556Y005461D03*
X014555Y005461D03*
D335*
X014556Y006811D03*
X014558Y006811D03*
X014559Y006811D03*
D336*
X015000Y007024D03*
X015248Y005461D03*
X015249Y005461D03*
X015250Y005461D03*
X014561Y005461D03*
X014560Y005461D03*
D337*
X014561Y006810D03*
X014560Y006810D03*
X014563Y006810D03*
X014564Y006810D03*
X014565Y006810D03*
D338*
X014566Y005462D03*
X014565Y005462D03*
X014564Y005462D03*
X014563Y005462D03*
X014568Y005462D03*
X015241Y005462D03*
X015243Y005462D03*
X015244Y005462D03*
X015245Y005462D03*
X015246Y005462D03*
D339*
X014574Y006810D03*
X014573Y006810D03*
X014571Y006810D03*
X014570Y006810D03*
X014569Y006810D03*
X014568Y006810D03*
X014566Y006810D03*
D340*
X014999Y007023D03*
X015871Y007023D03*
X015240Y005463D03*
X015239Y005463D03*
X015238Y005463D03*
X015236Y005463D03*
X015235Y005463D03*
X015234Y005463D03*
X014576Y005463D03*
X014575Y005463D03*
X014574Y005463D03*
X014573Y005463D03*
X014571Y005463D03*
X014570Y005463D03*
X014569Y005463D03*
D341*
X014575Y006809D03*
X014576Y006809D03*
X014578Y006809D03*
X014579Y006809D03*
X014580Y006809D03*
X014581Y006809D03*
X014583Y006809D03*
X014584Y006809D03*
X014585Y006809D03*
D342*
X014998Y007022D03*
X015873Y007022D03*
X015233Y005463D03*
X015231Y005463D03*
X015230Y005463D03*
X015229Y005463D03*
X015228Y005463D03*
X015226Y005463D03*
X015225Y005463D03*
X015224Y005463D03*
X015223Y005463D03*
X015221Y005463D03*
X015220Y005463D03*
X014590Y005463D03*
X014589Y005463D03*
X014588Y005463D03*
X014586Y005463D03*
X014585Y005463D03*
X014584Y005463D03*
X014583Y005463D03*
X014581Y005463D03*
X014580Y005463D03*
X014579Y005463D03*
X014578Y005463D03*
D343*
X014586Y006808D03*
X014588Y006808D03*
X014589Y006808D03*
X014590Y006808D03*
X014591Y006808D03*
X014593Y006808D03*
X014594Y006808D03*
X014595Y006808D03*
D344*
X015874Y007021D03*
X015219Y005464D03*
X015218Y005464D03*
X015216Y005464D03*
X015215Y005464D03*
X015214Y005464D03*
X015213Y005464D03*
X015211Y005464D03*
X015210Y005464D03*
X015209Y005464D03*
X015208Y005464D03*
X015206Y005464D03*
X015205Y005464D03*
X015204Y005464D03*
X015203Y005464D03*
X015201Y005464D03*
X015200Y005464D03*
X015199Y005464D03*
X015198Y005464D03*
X015196Y005464D03*
X015195Y005464D03*
X015194Y005464D03*
X015193Y005464D03*
X015191Y005464D03*
X015190Y005464D03*
X015189Y005464D03*
X015188Y005464D03*
X015186Y005464D03*
X015185Y005464D03*
X015184Y005464D03*
X015183Y005464D03*
X015181Y005464D03*
X015180Y005464D03*
X015179Y005464D03*
X015178Y005464D03*
X015176Y005464D03*
X015175Y005464D03*
X015174Y005464D03*
X015173Y005464D03*
X015171Y005464D03*
X015170Y005464D03*
X015169Y005464D03*
X015168Y005464D03*
X015166Y005464D03*
X015165Y005464D03*
X015164Y005464D03*
X015163Y005464D03*
X015161Y005464D03*
X015160Y005464D03*
X015159Y005464D03*
X015158Y005464D03*
X015156Y005464D03*
X015155Y005464D03*
X015154Y005464D03*
X015153Y005464D03*
X015151Y005464D03*
X015150Y005464D03*
X015149Y005464D03*
X015148Y005464D03*
X015146Y005464D03*
X015145Y005464D03*
X015144Y005464D03*
X015143Y005464D03*
X015141Y005464D03*
X015140Y005464D03*
X015139Y005464D03*
X015138Y005464D03*
X015136Y005464D03*
X015135Y005464D03*
X015134Y005464D03*
X015133Y005464D03*
X015131Y005464D03*
X015130Y005464D03*
X015129Y005464D03*
X015128Y005464D03*
X015126Y005464D03*
X015125Y005464D03*
X015124Y005464D03*
X015123Y005464D03*
X015121Y005464D03*
X015120Y005464D03*
X015119Y005464D03*
X015118Y005464D03*
X015116Y005464D03*
X015115Y005464D03*
X015114Y005464D03*
X015113Y005464D03*
X015111Y005464D03*
X015110Y005464D03*
X015109Y005464D03*
X015108Y005464D03*
X015106Y005464D03*
X015105Y005464D03*
X015104Y005464D03*
X015103Y005464D03*
X015101Y005464D03*
X015100Y005464D03*
X015099Y005464D03*
X015098Y005464D03*
X015096Y005464D03*
X015095Y005464D03*
X015094Y005464D03*
X015093Y005464D03*
X015091Y005464D03*
X015090Y005464D03*
X015089Y005464D03*
X015088Y005464D03*
X015086Y005464D03*
X015085Y005464D03*
X015084Y005464D03*
X015083Y005464D03*
X015081Y005464D03*
X015080Y005464D03*
X015079Y005464D03*
X015078Y005464D03*
X015076Y005464D03*
X015075Y005464D03*
X015074Y005464D03*
X015073Y005464D03*
X015071Y005464D03*
X015070Y005464D03*
X015069Y005464D03*
X015068Y005464D03*
X015066Y005464D03*
X015065Y005464D03*
X015064Y005464D03*
X015063Y005464D03*
X015061Y005464D03*
X015060Y005464D03*
X015059Y005464D03*
X015058Y005464D03*
X015056Y005464D03*
X015055Y005464D03*
X015054Y005464D03*
X015053Y005464D03*
X015051Y005464D03*
X015050Y005464D03*
X015049Y005464D03*
X015048Y005464D03*
X015046Y005464D03*
X015045Y005464D03*
X015044Y005464D03*
X015043Y005464D03*
X015041Y005464D03*
X015040Y005464D03*
X015039Y005464D03*
X015038Y005464D03*
X015036Y005464D03*
X015035Y005464D03*
X015034Y005464D03*
X015033Y005464D03*
X015031Y005464D03*
X015030Y005464D03*
X015029Y005464D03*
X015028Y005464D03*
X015026Y005464D03*
X015025Y005464D03*
X015024Y005464D03*
X015023Y005464D03*
X015021Y005464D03*
X015020Y005464D03*
X015019Y005464D03*
X015018Y005464D03*
X015016Y005464D03*
X015015Y005464D03*
X015014Y005464D03*
X015013Y005464D03*
X015011Y005464D03*
X015010Y005464D03*
X015009Y005464D03*
X015008Y005464D03*
X015006Y005464D03*
X015005Y005464D03*
X015004Y005464D03*
X015003Y005464D03*
X015001Y005464D03*
X015000Y005464D03*
X014999Y005464D03*
X014998Y005464D03*
X014996Y005464D03*
X014995Y005464D03*
X014994Y005464D03*
X014993Y005464D03*
X014991Y005464D03*
X014990Y005464D03*
X014989Y005464D03*
X014988Y005464D03*
X014986Y005464D03*
X014985Y005464D03*
X014984Y005464D03*
X014983Y005464D03*
X014981Y005464D03*
X014980Y005464D03*
X014979Y005464D03*
X014978Y005464D03*
X014976Y005464D03*
X014975Y005464D03*
X014974Y005464D03*
X014973Y005464D03*
X014971Y005464D03*
X014970Y005464D03*
X014969Y005464D03*
X014968Y005464D03*
X014966Y005464D03*
X014965Y005464D03*
X014964Y005464D03*
X014963Y005464D03*
X014961Y005464D03*
X014960Y005464D03*
X014959Y005464D03*
X014958Y005464D03*
X014956Y005464D03*
X014955Y005464D03*
X014954Y005464D03*
X014953Y005464D03*
X014951Y005464D03*
X014950Y005464D03*
X014949Y005464D03*
X014948Y005464D03*
X014946Y005464D03*
X014945Y005464D03*
X014944Y005464D03*
X014943Y005464D03*
X014941Y005464D03*
X014940Y005464D03*
X014939Y005464D03*
X014938Y005464D03*
X014936Y005464D03*
X014935Y005464D03*
X014934Y005464D03*
X014933Y005464D03*
X014931Y005464D03*
X014930Y005464D03*
X014929Y005464D03*
X014928Y005464D03*
X014926Y005464D03*
X014925Y005464D03*
X014924Y005464D03*
X014923Y005464D03*
X014921Y005464D03*
X014920Y005464D03*
X014919Y005464D03*
X014918Y005464D03*
X014916Y005464D03*
X014915Y005464D03*
X014914Y005464D03*
X014913Y005464D03*
X014911Y005464D03*
X014910Y005464D03*
X014909Y005464D03*
X014908Y005464D03*
X014906Y005464D03*
X014905Y005464D03*
X014904Y005464D03*
X014903Y005464D03*
X014901Y005464D03*
X014900Y005464D03*
X014899Y005464D03*
X014898Y005464D03*
X014896Y005464D03*
X014895Y005464D03*
X014894Y005464D03*
X014893Y005464D03*
X014891Y005464D03*
X014890Y005464D03*
X014889Y005464D03*
X014888Y005464D03*
X014886Y005464D03*
X014885Y005464D03*
X014884Y005464D03*
X014883Y005464D03*
X014881Y005464D03*
X014880Y005464D03*
X014879Y005464D03*
X014878Y005464D03*
X014876Y005464D03*
X014875Y005464D03*
X014874Y005464D03*
X014873Y005464D03*
X014871Y005464D03*
X014870Y005464D03*
X014869Y005464D03*
X014868Y005464D03*
X014866Y005464D03*
X014865Y005464D03*
X014864Y005464D03*
X014863Y005464D03*
X014861Y005464D03*
X014860Y005464D03*
X014859Y005464D03*
X014858Y005464D03*
X014856Y005464D03*
X014855Y005464D03*
X014854Y005464D03*
X014853Y005464D03*
X014851Y005464D03*
X014850Y005464D03*
X014849Y005464D03*
X014848Y005464D03*
X014846Y005464D03*
X014845Y005464D03*
X014844Y005464D03*
X014843Y005464D03*
X014841Y005464D03*
X014840Y005464D03*
X014839Y005464D03*
X014838Y005464D03*
X014836Y005464D03*
X014835Y005464D03*
X014834Y005464D03*
X014833Y005464D03*
X014831Y005464D03*
X014830Y005464D03*
X014829Y005464D03*
X014828Y005464D03*
X014826Y005464D03*
X014825Y005464D03*
X014824Y005464D03*
X014823Y005464D03*
X014821Y005464D03*
X014820Y005464D03*
X014819Y005464D03*
X014818Y005464D03*
X014816Y005464D03*
X014815Y005464D03*
X014814Y005464D03*
X014813Y005464D03*
X014811Y005464D03*
X014810Y005464D03*
X014809Y005464D03*
X014808Y005464D03*
X014806Y005464D03*
X014805Y005464D03*
X014804Y005464D03*
X014803Y005464D03*
X014801Y005464D03*
X014800Y005464D03*
X014799Y005464D03*
X014798Y005464D03*
X014796Y005464D03*
X014795Y005464D03*
X014794Y005464D03*
X014793Y005464D03*
X014791Y005464D03*
X014790Y005464D03*
X014789Y005464D03*
X014788Y005464D03*
X014786Y005464D03*
X014785Y005464D03*
X014784Y005464D03*
X014783Y005464D03*
X014781Y005464D03*
X014780Y005464D03*
X014779Y005464D03*
X014778Y005464D03*
X014776Y005464D03*
X014775Y005464D03*
X014774Y005464D03*
X014773Y005464D03*
X014771Y005464D03*
X014770Y005464D03*
X014769Y005464D03*
X014768Y005464D03*
X014766Y005464D03*
X014765Y005464D03*
X014764Y005464D03*
X014763Y005464D03*
X014761Y005464D03*
X014760Y005464D03*
X014759Y005464D03*
X014758Y005464D03*
X014756Y005464D03*
X014755Y005464D03*
X014754Y005464D03*
X014753Y005464D03*
X014751Y005464D03*
X014750Y005464D03*
X014749Y005464D03*
X014748Y005464D03*
X014746Y005464D03*
X014745Y005464D03*
X014744Y005464D03*
X014743Y005464D03*
X014741Y005464D03*
X014740Y005464D03*
X014739Y005464D03*
X014738Y005464D03*
X014736Y005464D03*
X014735Y005464D03*
X014734Y005464D03*
X014733Y005464D03*
X014731Y005464D03*
X014730Y005464D03*
X014729Y005464D03*
X014728Y005464D03*
X014726Y005464D03*
X014725Y005464D03*
X014724Y005464D03*
X014723Y005464D03*
X014721Y005464D03*
X014720Y005464D03*
X014719Y005464D03*
X014718Y005464D03*
X014716Y005464D03*
X014715Y005464D03*
X014714Y005464D03*
X014713Y005464D03*
X014711Y005464D03*
X014710Y005464D03*
X014709Y005464D03*
X014708Y005464D03*
X014706Y005464D03*
X014705Y005464D03*
X014704Y005464D03*
X014703Y005464D03*
X014701Y005464D03*
X014700Y005464D03*
X014699Y005464D03*
X014698Y005464D03*
X014696Y005464D03*
X014695Y005464D03*
X014694Y005464D03*
X014693Y005464D03*
X014691Y005464D03*
X014690Y005464D03*
X014689Y005464D03*
X014688Y005464D03*
X014686Y005464D03*
X014685Y005464D03*
X014684Y005464D03*
X014683Y005464D03*
X014681Y005464D03*
X014680Y005464D03*
X014679Y005464D03*
X014678Y005464D03*
X014676Y005464D03*
X014675Y005464D03*
X014674Y005464D03*
X014673Y005464D03*
X014671Y005464D03*
X014670Y005464D03*
X014669Y005464D03*
X014668Y005464D03*
X014666Y005464D03*
X014665Y005464D03*
X014664Y005464D03*
X014663Y005464D03*
X014661Y005464D03*
X014660Y005464D03*
X014659Y005464D03*
X014658Y005464D03*
X014656Y005464D03*
X014655Y005464D03*
X014654Y005464D03*
X014653Y005464D03*
X014651Y005464D03*
X014650Y005464D03*
X014649Y005464D03*
X014648Y005464D03*
X014646Y005464D03*
X014645Y005464D03*
X014644Y005464D03*
X014643Y005464D03*
X014641Y005464D03*
X014640Y005464D03*
X014639Y005464D03*
X014638Y005464D03*
X014636Y005464D03*
X014635Y005464D03*
X014634Y005464D03*
X014633Y005464D03*
X014631Y005464D03*
X014630Y005464D03*
X014629Y005464D03*
X014628Y005464D03*
X014626Y005464D03*
X014625Y005464D03*
X014624Y005464D03*
X014623Y005464D03*
X014621Y005464D03*
X014620Y005464D03*
X014619Y005464D03*
X014618Y005464D03*
X014616Y005464D03*
X014615Y005464D03*
X014614Y005464D03*
X014613Y005464D03*
X014611Y005464D03*
X014610Y005464D03*
X014609Y005464D03*
X014608Y005464D03*
X014606Y005464D03*
X014605Y005464D03*
X014604Y005464D03*
X014603Y005464D03*
X014601Y005464D03*
X014600Y005464D03*
X014599Y005464D03*
X014598Y005464D03*
X014596Y005464D03*
X014595Y005464D03*
X014594Y005464D03*
X014593Y005464D03*
X014591Y005464D03*
D345*
X014596Y006808D03*
X014598Y006808D03*
X014599Y006808D03*
X014600Y006808D03*
X014601Y006808D03*
X014603Y006808D03*
X014604Y006808D03*
X014605Y006808D03*
X014606Y006808D03*
X014608Y006808D03*
X014609Y006808D03*
X014610Y006808D03*
X014611Y006808D03*
X014613Y006808D03*
X014614Y006808D03*
X014615Y006808D03*
X014616Y006808D03*
X014618Y006808D03*
X014619Y006808D03*
X014620Y006808D03*
X014621Y006808D03*
X014623Y006808D03*
X014624Y006808D03*
X014625Y006808D03*
X014626Y006808D03*
X014628Y006808D03*
X014629Y006808D03*
X014630Y006808D03*
X014631Y006808D03*
X014633Y006808D03*
X014634Y006808D03*
X014635Y006808D03*
X014636Y006808D03*
X014638Y006808D03*
X014639Y006808D03*
X014640Y006808D03*
X014641Y006808D03*
X014643Y006808D03*
X014644Y006808D03*
X014645Y006808D03*
X014646Y006808D03*
X014648Y006808D03*
X014649Y006808D03*
X014650Y006808D03*
X014651Y006808D03*
X014653Y006808D03*
X014654Y006808D03*
X014655Y006808D03*
X014656Y006808D03*
X014658Y006808D03*
X014659Y006808D03*
X014660Y006808D03*
X014661Y006808D03*
X014663Y006808D03*
X014664Y006808D03*
X014665Y006808D03*
X014666Y006808D03*
X014668Y006808D03*
X014669Y006808D03*
X014670Y006808D03*
X014671Y006808D03*
X014673Y006808D03*
X014674Y006808D03*
X014675Y006808D03*
X014676Y006808D03*
X014678Y006808D03*
X014679Y006808D03*
X014680Y006808D03*
X014681Y006808D03*
X014683Y006808D03*
X014684Y006808D03*
X014685Y006808D03*
X014686Y006808D03*
X014688Y006808D03*
X014689Y006808D03*
X014690Y006808D03*
X014691Y006808D03*
X014693Y006808D03*
X014694Y006808D03*
X014695Y006808D03*
X014696Y006808D03*
X014698Y006808D03*
X014699Y006808D03*
X014700Y006808D03*
X014701Y006808D03*
X014703Y006808D03*
X014704Y006808D03*
X014705Y006808D03*
X014706Y006808D03*
X014708Y006808D03*
X014709Y006808D03*
X014710Y006808D03*
X014711Y006808D03*
X014713Y006808D03*
X014714Y006808D03*
X014715Y006808D03*
X014716Y006808D03*
X014718Y006808D03*
X014719Y006808D03*
X014720Y006808D03*
X014721Y006808D03*
X014723Y006808D03*
X014724Y006808D03*
X014725Y006808D03*
X014726Y006808D03*
X014728Y006808D03*
X014729Y006808D03*
X014730Y006808D03*
X014731Y006808D03*
X014733Y006808D03*
X014734Y006808D03*
X014735Y006808D03*
X014736Y006808D03*
X014738Y006808D03*
X014739Y006808D03*
X014740Y006808D03*
X014741Y006808D03*
X014743Y006808D03*
X014744Y006808D03*
X014745Y006808D03*
X014746Y006808D03*
X014748Y006808D03*
X014749Y006808D03*
X014750Y006808D03*
X014751Y006808D03*
X014753Y006808D03*
X014754Y006808D03*
X014755Y006808D03*
X014756Y006808D03*
X014758Y006808D03*
X014759Y006808D03*
X014760Y006808D03*
X014761Y006808D03*
X014763Y006808D03*
X014764Y006808D03*
X014765Y006808D03*
X014766Y006808D03*
X014768Y006808D03*
X014769Y006808D03*
X014770Y006808D03*
X014771Y006808D03*
X014773Y006808D03*
X014774Y006808D03*
X014775Y006808D03*
X014776Y006808D03*
X014778Y006808D03*
X014779Y006808D03*
X014780Y006808D03*
X014781Y006808D03*
X014783Y006808D03*
X014784Y006808D03*
X014785Y006808D03*
X014786Y006808D03*
X014788Y006808D03*
X014789Y006808D03*
X014790Y006808D03*
X014791Y006808D03*
X014793Y006808D03*
X014794Y006808D03*
X014795Y006808D03*
X014796Y006808D03*
X014798Y006808D03*
X014799Y006808D03*
X014800Y006808D03*
X014801Y006808D03*
X014803Y006808D03*
X014804Y006808D03*
X014805Y006808D03*
X014806Y006808D03*
X014808Y006808D03*
X014809Y006808D03*
X014810Y006808D03*
X014811Y006808D03*
X014813Y006808D03*
X014814Y006808D03*
X014815Y006808D03*
X014816Y006808D03*
X014818Y006808D03*
X014819Y006808D03*
X014820Y006808D03*
X014821Y006808D03*
X014823Y006808D03*
X014824Y006808D03*
X014825Y006808D03*
X014826Y006808D03*
X014828Y006808D03*
X014829Y006808D03*
X014830Y006808D03*
X014831Y006808D03*
X014833Y006808D03*
X014834Y006808D03*
X014835Y006808D03*
X014836Y006808D03*
X014838Y006808D03*
X014839Y006808D03*
X014840Y006808D03*
X014841Y006808D03*
X014843Y006808D03*
X014844Y006808D03*
X014845Y006808D03*
X014846Y006808D03*
X014848Y006808D03*
X014849Y006808D03*
X014850Y006808D03*
X014851Y006808D03*
X014853Y006808D03*
X014854Y006808D03*
X014855Y006808D03*
X014856Y006808D03*
X014858Y006808D03*
X014859Y006808D03*
X014860Y006808D03*
X014861Y006808D03*
X014863Y006808D03*
X014864Y006808D03*
X014865Y006808D03*
X014866Y006808D03*
X014868Y006808D03*
X014869Y006808D03*
X014870Y006808D03*
X014871Y006808D03*
X014873Y006808D03*
X014874Y006808D03*
X014875Y006808D03*
X014876Y006808D03*
X014878Y006808D03*
X014879Y006808D03*
X014880Y006808D03*
X014881Y006808D03*
X014883Y006808D03*
X014884Y006808D03*
X014885Y006808D03*
X014886Y006808D03*
X014888Y006808D03*
X014889Y006808D03*
X014890Y006808D03*
X014891Y006808D03*
X014893Y006808D03*
X014894Y006808D03*
X014895Y006808D03*
X014896Y006808D03*
X014898Y006808D03*
X014899Y006808D03*
X014900Y006808D03*
X014901Y006808D03*
X014903Y006808D03*
X014904Y006808D03*
X014905Y006808D03*
X014906Y006808D03*
X014908Y006808D03*
X014909Y006808D03*
X014910Y006808D03*
X014911Y006808D03*
X014913Y006808D03*
X014914Y006808D03*
X014915Y006808D03*
X014916Y006808D03*
X014918Y006808D03*
X014919Y006808D03*
X014920Y006808D03*
X014921Y006808D03*
X014923Y006808D03*
X014924Y006808D03*
X014925Y006808D03*
X014926Y006808D03*
X014928Y006808D03*
X014929Y006808D03*
X014930Y006808D03*
X014931Y006808D03*
X014933Y006808D03*
X014934Y006808D03*
X014935Y006808D03*
X014936Y006808D03*
X014938Y006808D03*
D346*
X015680Y006443D03*
X014939Y006216D03*
D347*
X014939Y006909D03*
X015946Y005576D03*
X015948Y005576D03*
D348*
X014940Y006200D03*
X015698Y006438D03*
D349*
X016156Y006913D03*
X014940Y006924D03*
X015895Y005561D03*
D350*
X014941Y006193D03*
D351*
X015574Y005554D03*
X015688Y005554D03*
X015689Y005554D03*
X015709Y005554D03*
X015869Y005554D03*
X016146Y006923D03*
X014941Y006931D03*
D352*
X015708Y006434D03*
X014943Y006190D03*
D353*
X015678Y005551D03*
X015858Y005551D03*
X015859Y005551D03*
X016143Y006927D03*
X014943Y006935D03*
D354*
X014944Y006185D03*
D355*
X015660Y005546D03*
X015719Y005546D03*
X015840Y005546D03*
X016135Y006932D03*
X016136Y006932D03*
X014944Y006940D03*
D356*
X015111Y006316D03*
X014945Y006180D03*
D357*
X015589Y005541D03*
X015641Y005541D03*
X015643Y005541D03*
X015644Y005541D03*
X015725Y005541D03*
X015823Y005541D03*
X015824Y005541D03*
X014945Y006945D03*
D358*
X015110Y006317D03*
X014946Y006176D03*
D359*
X015594Y005537D03*
X015629Y005537D03*
X015630Y005537D03*
X015731Y005537D03*
X015809Y005537D03*
X015810Y005537D03*
X014946Y006948D03*
D360*
X014948Y006172D03*
D361*
X015598Y005533D03*
X015616Y005533D03*
X015741Y005533D03*
X015796Y005533D03*
X014948Y006952D03*
D362*
X015725Y006425D03*
X014949Y006171D03*
D363*
X015600Y005531D03*
X015609Y005531D03*
X015610Y005531D03*
X015748Y005531D03*
X015749Y005531D03*
X015750Y005531D03*
X015751Y005531D03*
X015789Y005531D03*
X015790Y005531D03*
X014949Y006954D03*
D364*
X015728Y006422D03*
X014950Y006167D03*
D365*
X014950Y006957D03*
D366*
X014951Y006164D03*
D367*
X014951Y006960D03*
X016109Y006958D03*
D368*
X014953Y006161D03*
D369*
X014953Y006963D03*
D370*
X014954Y006158D03*
D371*
X014954Y006966D03*
X016103Y006963D03*
D372*
X015735Y006417D03*
X014955Y006157D03*
D373*
X014955Y006967D03*
X016101Y006965D03*
D374*
X015738Y006415D03*
X015108Y006316D03*
X014956Y006154D03*
D375*
X014956Y006970D03*
X016096Y006969D03*
X016098Y006968D03*
D376*
X014958Y006152D03*
D377*
X014958Y006973D03*
X016094Y006971D03*
D378*
X014959Y006150D03*
D379*
X014959Y006975D03*
D380*
X015624Y006241D03*
X014960Y006147D03*
D381*
X014960Y006977D03*
X016089Y006976D03*
D382*
X015743Y006410D03*
X014961Y006146D03*
D383*
X014961Y006978D03*
X016088Y006977D03*
D384*
X014963Y006144D03*
D385*
X014963Y006981D03*
D386*
X014964Y006141D03*
D387*
X014964Y006983D03*
X016083Y006981D03*
D388*
X015746Y006406D03*
X015630Y006237D03*
X015629Y006237D03*
X014965Y006140D03*
D389*
X014965Y006985D03*
D390*
X015631Y006236D03*
X014966Y006138D03*
D391*
X014966Y006987D03*
X015906Y006987D03*
D392*
X015748Y006405D03*
X014968Y006137D03*
D393*
X014968Y006988D03*
X015908Y006988D03*
X015909Y006988D03*
X016076Y006986D03*
D394*
X015634Y006235D03*
X014969Y006135D03*
D395*
X014969Y006990D03*
X015915Y006990D03*
D396*
X015106Y006317D03*
X014970Y006133D03*
X015635Y006233D03*
D397*
X015921Y006991D03*
X015923Y006991D03*
X014970Y006991D03*
D398*
X015751Y006400D03*
X014971Y006131D03*
D399*
X014971Y006993D03*
X015928Y006993D03*
X015929Y006993D03*
D400*
X015639Y006231D03*
X014973Y006129D03*
D401*
X014973Y006995D03*
X015934Y006995D03*
X015935Y006995D03*
X015936Y006995D03*
X016068Y006995D03*
D402*
X014974Y006128D03*
D403*
X014974Y006996D03*
X015896Y006996D03*
X015939Y006996D03*
D404*
X015640Y006231D03*
X014975Y006127D03*
D405*
X014975Y006998D03*
X015944Y006998D03*
D406*
X014976Y006125D03*
D407*
X014976Y007000D03*
X015894Y007000D03*
X015949Y007000D03*
X015950Y007000D03*
X016063Y007000D03*
D408*
X015755Y006395D03*
X015644Y006228D03*
X014978Y006123D03*
D409*
X014978Y007001D03*
X015954Y007001D03*
X015955Y007001D03*
X016060Y007001D03*
X016061Y007001D03*
D410*
X015961Y007003D03*
X015960Y007003D03*
X015891Y007003D03*
X014979Y007003D03*
D411*
X014980Y007003D03*
X015963Y007003D03*
X015964Y007003D03*
X016058Y007003D03*
D412*
X016054Y007005D03*
X014981Y007005D03*
D413*
X014983Y007006D03*
X015973Y007006D03*
X015974Y007006D03*
X016051Y007006D03*
D414*
X016048Y007008D03*
X015980Y007008D03*
X015886Y007008D03*
X014984Y007008D03*
D415*
X014985Y007010D03*
X015885Y007010D03*
X015984Y007010D03*
X015985Y007010D03*
X016044Y007010D03*
D416*
X016043Y007010D03*
X016041Y007010D03*
X015988Y007010D03*
X015986Y007010D03*
X014986Y007010D03*
D417*
X014988Y007012D03*
X015883Y007012D03*
X015993Y007012D03*
X015994Y007012D03*
X015995Y007012D03*
X016034Y007012D03*
X016035Y007012D03*
X016036Y007012D03*
D418*
X016028Y007013D03*
X016026Y007013D03*
X016025Y007013D03*
X016024Y007013D03*
X016023Y007013D03*
X016021Y007013D03*
X016006Y007013D03*
X016005Y007013D03*
X016004Y007013D03*
X016003Y007013D03*
X016001Y007013D03*
X015881Y007013D03*
X014989Y007013D03*
D419*
X014990Y007015D03*
X015880Y007015D03*
D420*
X014993Y007016D03*
X014991Y007016D03*
D421*
X014994Y007018D03*
X015876Y007018D03*
D422*
X015875Y007020D03*
X014995Y007020D03*
D423*
X014996Y007021D03*
D424*
X015019Y007040D03*
X015291Y005446D03*
D425*
X015021Y007042D03*
X015849Y007042D03*
D426*
X015844Y007045D03*
X015026Y007045D03*
X015296Y005440D03*
D427*
X015299Y005438D03*
X015030Y007048D03*
X015029Y007048D03*
D428*
X015031Y007049D03*
X015839Y007049D03*
D429*
X015838Y007050D03*
X015033Y007050D03*
X015300Y005435D03*
D430*
X015034Y007051D03*
X015836Y007051D03*
D431*
X015835Y007051D03*
X015035Y007051D03*
D432*
X015038Y007053D03*
X015833Y007053D03*
X015301Y005432D03*
D433*
X015039Y007054D03*
X015831Y007054D03*
D434*
X015040Y007055D03*
D435*
X015041Y007056D03*
X015829Y007056D03*
X015303Y005430D03*
D436*
X015043Y007056D03*
X015828Y007056D03*
D437*
X015826Y007057D03*
X015044Y007057D03*
D438*
X015046Y007059D03*
D439*
X015048Y007060D03*
X015049Y007060D03*
X015821Y007060D03*
D440*
X015050Y007061D03*
D441*
X015051Y007062D03*
X015819Y007062D03*
D442*
X015815Y007064D03*
X015055Y007064D03*
X015054Y007064D03*
D443*
X015056Y007065D03*
X015814Y007065D03*
D444*
X015813Y007066D03*
X015058Y007066D03*
X015306Y005420D03*
D445*
X015059Y007066D03*
X015811Y007066D03*
D446*
X015810Y007067D03*
X015060Y007067D03*
D447*
X015061Y007068D03*
D448*
X015063Y007069D03*
X015808Y007069D03*
D449*
X015805Y007070D03*
X015065Y007070D03*
D450*
X015066Y007071D03*
X015804Y007071D03*
D451*
X015803Y007071D03*
X015068Y007071D03*
X015308Y005414D03*
D452*
X015069Y007072D03*
X015801Y007072D03*
D453*
X015800Y007073D03*
X015070Y007073D03*
D454*
X015071Y007073D03*
D455*
X015073Y007075D03*
X015074Y007075D03*
X015798Y007075D03*
D456*
X015796Y007075D03*
X015075Y007075D03*
D457*
X015076Y007076D03*
X015795Y007076D03*
D458*
X015793Y007077D03*
X015078Y007077D03*
D459*
X015079Y007078D03*
X015791Y007078D03*
D460*
X015790Y007078D03*
X015080Y007078D03*
X015309Y005407D03*
D461*
X015081Y007079D03*
X015789Y007079D03*
D462*
X015788Y007080D03*
X015083Y007080D03*
D463*
X015084Y007080D03*
X015786Y007080D03*
D464*
X015785Y007081D03*
X015085Y007081D03*
D465*
X015086Y007081D03*
X015784Y007081D03*
D466*
X015783Y007082D03*
X015088Y007082D03*
D467*
X015089Y007083D03*
X015781Y007083D03*
D468*
X015780Y007083D03*
X015090Y007083D03*
D469*
X015091Y007084D03*
X015093Y007084D03*
X015779Y007084D03*
D470*
X015776Y007085D03*
X015095Y007085D03*
D471*
X015096Y007086D03*
X015775Y007086D03*
D472*
X015771Y007087D03*
X015099Y007087D03*
X015098Y007087D03*
X015310Y005398D03*
D473*
X015100Y007088D03*
X015770Y007088D03*
D474*
X015769Y007088D03*
X015101Y007088D03*
D475*
X015103Y007089D03*
X015768Y007089D03*
D476*
X015766Y007090D03*
X015104Y007090D03*
D477*
X015105Y007090D03*
X015765Y007090D03*
D478*
X015764Y007091D03*
X015106Y007091D03*
D479*
X015108Y007091D03*
X015109Y007091D03*
X015763Y007091D03*
D480*
X015109Y006316D03*
D481*
X015110Y007092D03*
X015760Y007092D03*
X015761Y007092D03*
D482*
X015759Y007093D03*
X015111Y007093D03*
X015311Y005393D03*
D483*
X015113Y006317D03*
X015710Y006432D03*
D484*
X015758Y007093D03*
X015113Y007093D03*
D485*
X015704Y006435D03*
X015114Y006316D03*
D486*
X015115Y006317D03*
D487*
X015115Y007095D03*
X015754Y007095D03*
X015755Y007095D03*
D488*
X015691Y006440D03*
X015116Y006316D03*
D489*
X015116Y007095D03*
X015118Y007095D03*
X015753Y007095D03*
D490*
X015689Y006441D03*
X015118Y006316D03*
D491*
X015119Y006316D03*
X015684Y006443D03*
D492*
X015119Y007096D03*
D493*
X015678Y006444D03*
X015120Y006316D03*
D494*
X015120Y007096D03*
X015750Y007096D03*
X015751Y007096D03*
D495*
X015674Y006445D03*
X015673Y006445D03*
X015121Y006316D03*
D496*
X015121Y007097D03*
X015749Y007097D03*
D497*
X015666Y006446D03*
X015123Y006316D03*
D498*
X015124Y007098D03*
X015123Y007098D03*
X015746Y007098D03*
X015748Y007098D03*
D499*
X015124Y006316D03*
D500*
X015125Y006317D03*
X015659Y006448D03*
D501*
X015745Y007098D03*
X015125Y007098D03*
D502*
X015654Y006449D03*
X015126Y006316D03*
D503*
X015126Y007099D03*
D504*
X015649Y006450D03*
X015128Y006317D03*
D505*
X015128Y007100D03*
X015743Y007100D03*
X015744Y007100D03*
D506*
X015129Y006317D03*
D507*
X015130Y007100D03*
X015129Y007100D03*
X015740Y007100D03*
X015741Y007100D03*
D508*
X015643Y006450D03*
X015641Y006450D03*
X015130Y006316D03*
D509*
X015131Y006316D03*
D510*
X015131Y007101D03*
X015739Y007101D03*
D511*
X015634Y006450D03*
X015133Y006316D03*
D512*
X015133Y007101D03*
X015738Y007101D03*
D513*
X015134Y006316D03*
D514*
X015134Y007102D03*
X015736Y007102D03*
D515*
X015628Y006448D03*
X015135Y006317D03*
D516*
X015135Y007103D03*
X015136Y007103D03*
X015734Y007103D03*
X015735Y007103D03*
D517*
X015136Y006316D03*
D518*
X015138Y006316D03*
D519*
X015138Y007103D03*
X015733Y007103D03*
D520*
X015139Y006316D03*
D521*
X015139Y007104D03*
X015731Y007104D03*
D522*
X015621Y006442D03*
X015140Y006317D03*
D523*
X015140Y007105D03*
X015141Y007105D03*
X015729Y007105D03*
X015730Y007105D03*
D524*
X015141Y006317D03*
D525*
X015143Y006316D03*
D526*
X015143Y007105D03*
X015728Y007105D03*
D527*
X015144Y006316D03*
D528*
X015144Y007106D03*
X015726Y007106D03*
D529*
X015145Y006316D03*
D530*
X015145Y007106D03*
X015146Y007106D03*
X015724Y007106D03*
X015725Y007106D03*
D531*
X015146Y006317D03*
D532*
X015148Y006316D03*
D533*
X015149Y007107D03*
X015148Y007107D03*
X015723Y007107D03*
D534*
X015149Y006316D03*
D535*
X015150Y006316D03*
D536*
X015150Y007108D03*
X015720Y007108D03*
X015721Y007108D03*
D537*
X015151Y006316D03*
D538*
X015151Y007108D03*
X015719Y007108D03*
D539*
X015153Y006316D03*
D540*
X015153Y007109D03*
X015716Y007109D03*
X015718Y007109D03*
D541*
X015154Y006317D03*
D542*
X015155Y007110D03*
X015154Y007110D03*
X015715Y007110D03*
D543*
X015155Y006317D03*
D544*
X015156Y006316D03*
D545*
X015156Y007110D03*
X015158Y007110D03*
X015714Y007110D03*
D546*
X015158Y006317D03*
D547*
X015159Y006316D03*
X015311Y006443D03*
X015316Y006445D03*
X015318Y006445D03*
D548*
X015159Y007111D03*
X015711Y007111D03*
X015713Y007111D03*
D549*
X015333Y006448D03*
X015331Y006448D03*
X015330Y006448D03*
X015161Y006316D03*
X015160Y006316D03*
D550*
X015160Y007111D03*
X015710Y007111D03*
D551*
X015709Y007112D03*
X015708Y007112D03*
X015163Y007112D03*
X015161Y007112D03*
D552*
X015345Y006450D03*
X015346Y006450D03*
X015348Y006450D03*
X015349Y006450D03*
X015350Y006450D03*
X015310Y006438D03*
X015163Y006316D03*
D553*
X015164Y006317D03*
X015359Y006452D03*
X015360Y006452D03*
X015361Y006452D03*
X015363Y006452D03*
X015364Y006452D03*
D554*
X015164Y007113D03*
X015706Y007113D03*
D555*
X015386Y006454D03*
X015385Y006454D03*
X015384Y006454D03*
X015383Y006454D03*
X015381Y006454D03*
X015380Y006454D03*
X015379Y006454D03*
X015165Y006316D03*
D556*
X015165Y007113D03*
X015166Y007113D03*
X015168Y007113D03*
X015704Y007113D03*
X015705Y007113D03*
D557*
X015615Y006401D03*
X015166Y006316D03*
D558*
X015168Y006317D03*
D559*
X015169Y006316D03*
D560*
X015169Y007114D03*
X015701Y007114D03*
X015703Y007114D03*
D561*
X015609Y006402D03*
X015608Y006402D03*
X015170Y006317D03*
D562*
X015170Y007115D03*
X015700Y007115D03*
D563*
X015606Y006402D03*
X015171Y006318D03*
D564*
X015171Y007115D03*
X015698Y007115D03*
X015699Y007115D03*
D565*
X015605Y006403D03*
X015173Y006319D03*
D566*
X015174Y007116D03*
X015175Y007116D03*
X015173Y007116D03*
X015696Y007116D03*
D567*
X015604Y006402D03*
X015174Y006320D03*
D568*
X015175Y006320D03*
D569*
X015176Y006321D03*
X015308Y006421D03*
X015601Y006403D03*
D570*
X015694Y007116D03*
X015695Y007116D03*
X015176Y007116D03*
D571*
X015600Y006402D03*
X015178Y006322D03*
D572*
X015179Y007117D03*
X015178Y007117D03*
X015691Y007117D03*
X015693Y007117D03*
D573*
X015599Y006403D03*
X015179Y006323D03*
D574*
X015180Y006323D03*
X015598Y006402D03*
D575*
X015690Y007118D03*
X015180Y007118D03*
D576*
X015596Y006403D03*
X015181Y006324D03*
D577*
X015181Y007118D03*
X015183Y007118D03*
X015688Y007118D03*
X015689Y007118D03*
D578*
X015594Y006403D03*
X015183Y006325D03*
D579*
X015184Y006326D03*
D580*
X015185Y007119D03*
X015184Y007119D03*
X015685Y007119D03*
X015686Y007119D03*
D581*
X015593Y006402D03*
X015591Y006402D03*
X015306Y006416D03*
X015186Y006327D03*
X015185Y006327D03*
D582*
X015186Y007120D03*
X015188Y007120D03*
X015683Y007120D03*
X015684Y007120D03*
D583*
X015590Y006403D03*
X015188Y006328D03*
D584*
X015189Y006329D03*
D585*
X015190Y007120D03*
X015189Y007120D03*
X015681Y007120D03*
D586*
X015588Y006402D03*
X015586Y006402D03*
X015585Y006402D03*
X015190Y006330D03*
D587*
X015191Y006330D03*
D588*
X015191Y007121D03*
X015193Y007121D03*
X015194Y007121D03*
X015678Y007121D03*
D589*
X015584Y006402D03*
X015305Y006411D03*
X015193Y006331D03*
D590*
X015194Y006331D03*
X015583Y006401D03*
D591*
X015195Y006332D03*
D592*
X015195Y007122D03*
X015196Y007122D03*
X015675Y007122D03*
X015676Y007122D03*
D593*
X015581Y006401D03*
X015196Y006333D03*
D594*
X015198Y006334D03*
X015199Y006334D03*
X015579Y006401D03*
D595*
X015671Y007123D03*
X015673Y007123D03*
X015674Y007123D03*
X015199Y007123D03*
X015198Y007123D03*
D596*
X015578Y006402D03*
X015200Y006335D03*
D597*
X015200Y007123D03*
X015201Y007123D03*
X015670Y007123D03*
D598*
X015576Y006401D03*
X015201Y006335D03*
D599*
X015203Y006336D03*
X015573Y006401D03*
X015574Y006401D03*
D600*
X015669Y007124D03*
X015203Y007124D03*
D601*
X015204Y006337D03*
X015205Y006337D03*
D602*
X015205Y007125D03*
X015204Y007125D03*
X015665Y007125D03*
X015666Y007125D03*
X015668Y007125D03*
D603*
X015571Y006401D03*
X015206Y006338D03*
D604*
X015206Y007125D03*
X015208Y007125D03*
X015663Y007125D03*
X015664Y007125D03*
D605*
X015570Y006401D03*
X015301Y006401D03*
X015208Y006338D03*
D606*
X015209Y006339D03*
X015569Y006401D03*
D607*
X015660Y007126D03*
X015661Y007126D03*
X015210Y007126D03*
X015209Y007126D03*
D608*
X015210Y006340D03*
D609*
X015211Y006340D03*
X015566Y006401D03*
X015568Y006401D03*
D610*
X015658Y007126D03*
X015659Y007126D03*
X015213Y007126D03*
X015211Y007126D03*
D611*
X015300Y006398D03*
X015213Y006341D03*
X015565Y006401D03*
D612*
X015564Y006401D03*
X015215Y006343D03*
X015214Y006341D03*
D613*
X015214Y007127D03*
X015656Y007127D03*
D614*
X015655Y007128D03*
X015654Y007128D03*
X015653Y007128D03*
X015218Y007128D03*
X015216Y007128D03*
X015215Y007128D03*
D615*
X015563Y006401D03*
X015218Y006343D03*
X015216Y006343D03*
D616*
X015219Y006344D03*
X015561Y006400D03*
D617*
X015650Y007128D03*
X015651Y007128D03*
X015220Y007128D03*
X015219Y007128D03*
D618*
X015299Y006396D03*
X015220Y006345D03*
X015560Y006401D03*
D619*
X015559Y006400D03*
X015298Y006394D03*
X015221Y006345D03*
D620*
X015221Y007129D03*
X015223Y007129D03*
X015224Y007129D03*
X015648Y007129D03*
X015649Y007129D03*
D621*
X015558Y006401D03*
X015223Y006346D03*
D622*
X015224Y006346D03*
X015225Y006348D03*
X015226Y006348D03*
X015296Y006393D03*
X015556Y006400D03*
D623*
X015645Y007130D03*
X015646Y007130D03*
X015226Y007130D03*
X015225Y007130D03*
D624*
X015555Y006400D03*
X015228Y006348D03*
D625*
X015228Y007130D03*
X015643Y007130D03*
X015644Y007130D03*
D626*
X015554Y006400D03*
X015295Y006390D03*
X015229Y006349D03*
D627*
X015230Y007131D03*
X015229Y007131D03*
X015640Y007131D03*
X015641Y007131D03*
D628*
X015553Y006400D03*
X015230Y006350D03*
D629*
X015231Y006350D03*
X015294Y006389D03*
X015551Y006400D03*
D630*
X015638Y007131D03*
X015639Y007131D03*
X015234Y007131D03*
X015233Y007131D03*
X015231Y007131D03*
D631*
X015550Y006400D03*
X015234Y006351D03*
X015233Y006351D03*
D632*
X015235Y006351D03*
X015236Y006353D03*
X015238Y006353D03*
X015293Y006386D03*
D633*
X015236Y007132D03*
X015235Y007132D03*
X015634Y007132D03*
X015635Y007132D03*
X015636Y007132D03*
D634*
X015633Y007133D03*
X015631Y007133D03*
X015630Y007133D03*
X015240Y007133D03*
X015239Y007133D03*
X015238Y007133D03*
D635*
X015545Y006399D03*
X015546Y006399D03*
X015240Y006354D03*
X015239Y006354D03*
D636*
X015241Y006355D03*
X015243Y006355D03*
X015290Y006385D03*
D637*
X015241Y007133D03*
X015629Y007133D03*
D638*
X015628Y007134D03*
X015626Y007134D03*
X015625Y007134D03*
X015245Y007134D03*
X015244Y007134D03*
X015243Y007134D03*
D639*
X015544Y006399D03*
X015289Y006383D03*
X015288Y006381D03*
X015245Y006356D03*
X015244Y006355D03*
D640*
X015246Y006357D03*
X015285Y006380D03*
D641*
X015249Y007135D03*
X015248Y007135D03*
X015246Y007135D03*
X015621Y007135D03*
X015623Y007135D03*
X015624Y007135D03*
D642*
X015286Y006380D03*
X015251Y006359D03*
X015249Y006358D03*
X015248Y006358D03*
D643*
X015250Y006358D03*
X015253Y006360D03*
X015283Y006377D03*
X015284Y006378D03*
D644*
X015251Y007135D03*
X015250Y007135D03*
X015619Y007135D03*
X015620Y007135D03*
D645*
X015618Y007136D03*
X015616Y007136D03*
X015615Y007136D03*
X015255Y007136D03*
X015254Y007136D03*
X015253Y007136D03*
D646*
X015281Y006376D03*
X015280Y006375D03*
X015258Y006363D03*
X015256Y006361D03*
X015255Y006360D03*
X015254Y006360D03*
D647*
X015256Y007136D03*
X015258Y007136D03*
X015614Y007136D03*
D648*
X015279Y006375D03*
X015276Y006372D03*
X015275Y006372D03*
X015274Y006371D03*
X015265Y006366D03*
X015263Y006365D03*
X015261Y006365D03*
X015260Y006363D03*
X015259Y006363D03*
D649*
X015260Y007137D03*
X015259Y007137D03*
X015261Y007137D03*
X015609Y007137D03*
X015610Y007137D03*
X015611Y007137D03*
X015613Y007137D03*
D650*
X015608Y007138D03*
X015606Y007138D03*
X015264Y007138D03*
X015263Y007138D03*
D651*
X015278Y006374D03*
X015273Y006370D03*
X015271Y006370D03*
X015270Y006369D03*
X015269Y006368D03*
X015268Y006368D03*
X015266Y006366D03*
X015264Y006365D03*
D652*
X015265Y007138D03*
X015266Y007138D03*
X015268Y007138D03*
X015269Y007138D03*
X015603Y007138D03*
X015604Y007138D03*
X015605Y007138D03*
D653*
X015601Y007139D03*
X015600Y007139D03*
X015599Y007139D03*
X015598Y007139D03*
X015273Y007139D03*
X015271Y007139D03*
X015270Y007139D03*
D654*
X015274Y007140D03*
X015275Y007140D03*
X015596Y007140D03*
D655*
X015595Y007140D03*
X015594Y007140D03*
X015593Y007140D03*
X015591Y007140D03*
X015279Y007140D03*
X015278Y007140D03*
X015276Y007140D03*
D656*
X015280Y007141D03*
X015281Y007141D03*
X015283Y007141D03*
X015588Y007141D03*
X015589Y007141D03*
X015590Y007141D03*
D657*
X015283Y005452D03*
D658*
X015284Y007141D03*
X015285Y007141D03*
X015286Y007141D03*
X015288Y007141D03*
X015584Y007141D03*
X015585Y007141D03*
X015586Y007141D03*
D659*
X015288Y005449D03*
D660*
X015289Y005448D03*
X015854Y007038D03*
D661*
X015583Y007142D03*
X015581Y007142D03*
X015580Y007142D03*
X015579Y007142D03*
X015291Y007142D03*
X015290Y007142D03*
X015289Y007142D03*
D662*
X015548Y006400D03*
X015549Y006400D03*
X015291Y006386D03*
D663*
X015851Y007040D03*
X015293Y005445D03*
D664*
X015294Y007143D03*
X015293Y007143D03*
X015576Y007143D03*
X015578Y007143D03*
D665*
X015575Y007143D03*
X015574Y007143D03*
X015573Y007143D03*
X015571Y007143D03*
X015299Y007143D03*
X015298Y007143D03*
X015296Y007143D03*
X015295Y007143D03*
D666*
X015841Y007047D03*
X015298Y005438D03*
D667*
X015300Y007144D03*
X015301Y007144D03*
X015303Y007144D03*
X015304Y007144D03*
X015566Y007144D03*
X015568Y007144D03*
X015569Y007144D03*
X015570Y007144D03*
D668*
X015575Y006402D03*
X015303Y006405D03*
D669*
X015823Y007060D03*
X015824Y007060D03*
X015304Y005426D03*
D670*
X015304Y006408D03*
X015580Y006402D03*
D671*
X015820Y007061D03*
X015305Y005424D03*
D672*
X015306Y007145D03*
X015305Y007145D03*
X015308Y007145D03*
X015309Y007145D03*
X015561Y007145D03*
X015563Y007145D03*
X015564Y007145D03*
X015565Y007145D03*
D673*
X015613Y006402D03*
X015309Y006428D03*
D674*
X015310Y007145D03*
X015311Y007145D03*
X015313Y007145D03*
X015314Y007145D03*
X015556Y007145D03*
X015558Y007145D03*
X015559Y007145D03*
X015560Y007145D03*
D675*
X015313Y006444D03*
D676*
X015314Y006445D03*
X015315Y006445D03*
D677*
X015315Y007146D03*
X015316Y007146D03*
X015318Y007146D03*
X015553Y007146D03*
X015554Y007146D03*
X015555Y007146D03*
D678*
X015321Y006446D03*
X015320Y006446D03*
X015319Y006446D03*
D679*
X015320Y007146D03*
X015319Y007146D03*
X015321Y007146D03*
X015323Y007146D03*
X015324Y007146D03*
X015548Y007146D03*
X015549Y007146D03*
X015550Y007146D03*
X015551Y007146D03*
D680*
X015325Y006446D03*
X015324Y006446D03*
X015323Y006446D03*
D681*
X015325Y007147D03*
X015326Y007147D03*
X015328Y007147D03*
X015329Y007147D03*
X015330Y007147D03*
X015541Y007147D03*
X015543Y007147D03*
X015544Y007147D03*
X015545Y007147D03*
X015546Y007147D03*
D682*
X015329Y006447D03*
X015328Y006447D03*
X015326Y006447D03*
D683*
X015331Y007148D03*
X015333Y007148D03*
X015334Y007148D03*
X015335Y007148D03*
X015336Y007148D03*
X015534Y007148D03*
X015535Y007148D03*
X015536Y007148D03*
X015538Y007148D03*
X015539Y007148D03*
X015540Y007148D03*
D684*
X015335Y006448D03*
X015334Y006448D03*
D685*
X015336Y006449D03*
X015338Y006449D03*
X015339Y006449D03*
X015340Y006449D03*
D686*
X015340Y007148D03*
X015339Y007148D03*
X015338Y007148D03*
X015341Y007148D03*
X015343Y007148D03*
X015528Y007148D03*
X015529Y007148D03*
X015530Y007148D03*
X015531Y007148D03*
X015533Y007148D03*
D687*
X015344Y006450D03*
X015343Y006450D03*
X015341Y006450D03*
D688*
X015344Y007149D03*
X015345Y007149D03*
X015346Y007149D03*
X015524Y007149D03*
X015525Y007149D03*
X015526Y007149D03*
D689*
X015523Y007150D03*
X015521Y007150D03*
X015520Y007150D03*
X015519Y007150D03*
X015518Y007150D03*
X015516Y007150D03*
X015515Y007150D03*
X015355Y007150D03*
X015354Y007150D03*
X015353Y007150D03*
X015351Y007150D03*
X015350Y007150D03*
X015349Y007150D03*
X015348Y007150D03*
D690*
X015351Y006451D03*
X015353Y006451D03*
X015354Y006451D03*
X015355Y006451D03*
D691*
X015356Y006451D03*
X015358Y006451D03*
D692*
X015359Y007150D03*
X015360Y007150D03*
X015361Y007150D03*
X015363Y007150D03*
X015364Y007150D03*
X015358Y007150D03*
X015356Y007150D03*
X015506Y007150D03*
X015508Y007150D03*
X015509Y007150D03*
X015510Y007150D03*
X015511Y007150D03*
X015513Y007150D03*
X015514Y007150D03*
D693*
X015370Y006453D03*
X015369Y006453D03*
X015368Y006453D03*
X015366Y006453D03*
X015365Y006453D03*
D694*
X015365Y007151D03*
X015366Y007151D03*
X015368Y007151D03*
X015369Y007151D03*
X015370Y007151D03*
X015371Y007151D03*
X015373Y007151D03*
X015374Y007151D03*
X015375Y007151D03*
X015496Y007151D03*
X015498Y007151D03*
X015499Y007151D03*
X015500Y007151D03*
X015501Y007151D03*
X015503Y007151D03*
X015504Y007151D03*
X015505Y007151D03*
D695*
X015378Y006453D03*
X015376Y006453D03*
X015375Y006453D03*
X015374Y006453D03*
X015373Y006453D03*
X015371Y006453D03*
X015620Y006402D03*
D696*
X015495Y007151D03*
X015494Y007151D03*
X015493Y007151D03*
X015491Y007151D03*
X015490Y007151D03*
X015489Y007151D03*
X015488Y007151D03*
X015486Y007151D03*
X015485Y007151D03*
X015484Y007151D03*
X015386Y007151D03*
X015385Y007151D03*
X015384Y007151D03*
X015383Y007151D03*
X015381Y007151D03*
X015380Y007151D03*
X015379Y007151D03*
X015378Y007151D03*
X015376Y007151D03*
D697*
X015388Y006455D03*
X015619Y006402D03*
D698*
X015483Y007152D03*
X015481Y007152D03*
X015480Y007152D03*
X015479Y007152D03*
X015478Y007152D03*
X015476Y007152D03*
X015394Y007152D03*
X015393Y007152D03*
X015391Y007152D03*
X015390Y007152D03*
X015389Y007152D03*
X015388Y007152D03*
D699*
X015389Y005818D03*
X015390Y005818D03*
X015480Y005818D03*
X015481Y005818D03*
X015483Y005818D03*
X015484Y005818D03*
D700*
X015479Y005818D03*
X015478Y005818D03*
X015476Y005818D03*
X015475Y005818D03*
X015474Y005818D03*
X015473Y005818D03*
X015471Y005818D03*
X015470Y005818D03*
X015469Y005818D03*
X015403Y005818D03*
X015401Y005818D03*
X015400Y005818D03*
X015399Y005818D03*
X015398Y005818D03*
X015396Y005818D03*
X015395Y005818D03*
X015394Y005818D03*
X015393Y005818D03*
X015391Y005818D03*
D701*
X015395Y007153D03*
X015396Y007153D03*
X015398Y007153D03*
X015399Y007153D03*
X015400Y007153D03*
X015401Y007153D03*
X015403Y007153D03*
X015404Y007153D03*
X015405Y007153D03*
X015406Y007153D03*
X015408Y007153D03*
X015409Y007153D03*
X015410Y007153D03*
X015411Y007153D03*
X015413Y007153D03*
X015414Y007153D03*
X015415Y007153D03*
X015416Y007153D03*
X015418Y007153D03*
X015419Y007153D03*
X015420Y007153D03*
X015450Y007153D03*
X015451Y007153D03*
X015453Y007153D03*
X015454Y007153D03*
X015455Y007153D03*
X015456Y007153D03*
X015458Y007153D03*
X015459Y007153D03*
X015460Y007153D03*
X015461Y007153D03*
X015463Y007153D03*
X015464Y007153D03*
X015465Y007153D03*
X015466Y007153D03*
X015468Y007153D03*
X015469Y007153D03*
X015470Y007153D03*
X015471Y007153D03*
X015473Y007153D03*
X015474Y007153D03*
X015475Y007153D03*
D702*
X015468Y005819D03*
X015466Y005819D03*
X015465Y005819D03*
X015464Y005819D03*
X015463Y005819D03*
X015461Y005819D03*
X015460Y005819D03*
X015459Y005819D03*
X015458Y005819D03*
X015456Y005819D03*
X015455Y005819D03*
X015454Y005819D03*
X015453Y005819D03*
X015451Y005819D03*
X015450Y005819D03*
X015421Y005819D03*
X015420Y005819D03*
X015419Y005819D03*
X015418Y005819D03*
X015416Y005819D03*
X015415Y005819D03*
X015414Y005819D03*
X015413Y005819D03*
X015411Y005819D03*
X015410Y005819D03*
X015409Y005819D03*
X015408Y005819D03*
X015406Y005819D03*
X015405Y005819D03*
X015404Y005819D03*
D703*
X015421Y007153D03*
X015423Y007153D03*
X015424Y007153D03*
X015425Y007153D03*
X015426Y007153D03*
X015428Y007153D03*
X015429Y007153D03*
X015430Y007153D03*
X015431Y007153D03*
X015433Y007153D03*
X015434Y007153D03*
X015435Y007153D03*
X015436Y007153D03*
X015438Y007153D03*
X015439Y007153D03*
X015440Y007153D03*
X015441Y007153D03*
X015443Y007153D03*
X015444Y007153D03*
X015445Y007153D03*
X015446Y007153D03*
X015448Y007153D03*
X015449Y007153D03*
D704*
X015449Y005820D03*
X015448Y005820D03*
X015446Y005820D03*
X015445Y005820D03*
X015444Y005820D03*
X015443Y005820D03*
X015441Y005820D03*
X015440Y005820D03*
X015439Y005820D03*
X015438Y005820D03*
X015436Y005820D03*
X015435Y005820D03*
X015434Y005820D03*
X015433Y005820D03*
X015431Y005820D03*
X015430Y005820D03*
X015429Y005820D03*
X015428Y005820D03*
X015426Y005820D03*
X015425Y005820D03*
X015424Y005820D03*
X015423Y005820D03*
D705*
X015485Y005817D03*
X015486Y005817D03*
X015488Y005817D03*
X015489Y005817D03*
X015490Y005817D03*
X015491Y005817D03*
X015493Y005817D03*
D706*
X015494Y005816D03*
X015495Y005816D03*
X015496Y005816D03*
X015498Y005816D03*
X015499Y005816D03*
D707*
X015500Y005816D03*
X015501Y005816D03*
X015503Y005816D03*
X015504Y005816D03*
X015505Y005816D03*
X015506Y005816D03*
D708*
X015508Y005815D03*
X015509Y005815D03*
X015510Y005815D03*
X015511Y005815D03*
D709*
X015513Y005815D03*
X015514Y005815D03*
D710*
X015515Y005814D03*
X015516Y005814D03*
X015518Y005814D03*
X015519Y005814D03*
X015520Y005814D03*
D711*
X015521Y005813D03*
X015523Y005813D03*
X015524Y005813D03*
X015525Y005813D03*
D712*
X015526Y005813D03*
X015528Y005813D03*
X015529Y005813D03*
X015530Y005813D03*
D713*
X015531Y005812D03*
X015533Y005812D03*
X015534Y005812D03*
D714*
X015535Y005811D03*
X015536Y005811D03*
D715*
X015538Y005811D03*
X015539Y005811D03*
X015540Y005811D03*
D716*
X015541Y005810D03*
X015543Y005810D03*
D717*
X015544Y005580D03*
X015958Y005580D03*
D718*
X015953Y005578D03*
X015545Y005578D03*
D719*
X015546Y005578D03*
X015950Y005578D03*
X015951Y005578D03*
D720*
X015945Y005576D03*
X015944Y005576D03*
X015549Y005576D03*
X015548Y005576D03*
D721*
X015550Y005575D03*
X015939Y005575D03*
X015940Y005575D03*
D722*
X015936Y005573D03*
X015935Y005573D03*
X015551Y005573D03*
D723*
X015553Y005572D03*
X015931Y005572D03*
D724*
X015554Y005571D03*
D725*
X015555Y005570D03*
X015925Y005570D03*
X015926Y005570D03*
D726*
X015921Y005569D03*
X015920Y005569D03*
X015556Y005569D03*
X016163Y006904D03*
D727*
X015916Y005568D03*
X015558Y005568D03*
D728*
X015559Y005566D03*
X015911Y005566D03*
X015913Y005566D03*
D729*
X015908Y005565D03*
X015906Y005565D03*
X015561Y005565D03*
X015560Y005565D03*
D730*
X015563Y005563D03*
X015900Y005563D03*
X015901Y005563D03*
D731*
X015899Y005563D03*
X015898Y005563D03*
X015564Y005563D03*
X016158Y006911D03*
D732*
X016155Y006915D03*
X015894Y005561D03*
X015893Y005561D03*
X015891Y005561D03*
X015565Y005561D03*
D733*
X015566Y005560D03*
X015890Y005560D03*
X016154Y006915D03*
D734*
X015889Y005560D03*
X015888Y005560D03*
X015568Y005560D03*
D735*
X015569Y005558D03*
X015701Y005558D03*
X015703Y005558D03*
X015705Y005558D03*
X015881Y005558D03*
X015883Y005558D03*
X016151Y006918D03*
D736*
X015880Y005557D03*
X015879Y005557D03*
X015700Y005557D03*
X015699Y005557D03*
X015570Y005557D03*
D737*
X015571Y005556D03*
X015696Y005556D03*
X015698Y005556D03*
X015706Y005556D03*
X015876Y005556D03*
X015878Y005556D03*
X016150Y006919D03*
X016149Y006920D03*
D738*
X015871Y005555D03*
X015870Y005555D03*
X015691Y005555D03*
X015690Y005555D03*
X015573Y005555D03*
D739*
X015575Y005553D03*
X015683Y005553D03*
X015684Y005553D03*
X015711Y005553D03*
X015864Y005553D03*
X016145Y006924D03*
D740*
X016144Y006925D03*
X015861Y005551D03*
X015860Y005551D03*
X015713Y005551D03*
X015681Y005551D03*
X015680Y005551D03*
X015679Y005551D03*
X015576Y005551D03*
D741*
X015578Y005550D03*
X015675Y005550D03*
X015676Y005550D03*
X015714Y005550D03*
X015855Y005550D03*
X015856Y005550D03*
X016141Y006928D03*
D742*
X015851Y005549D03*
X015715Y005549D03*
X015671Y005549D03*
X015580Y005549D03*
X015579Y005549D03*
D743*
X015581Y005547D03*
X015664Y005547D03*
X015665Y005547D03*
X015718Y005547D03*
X015844Y005547D03*
X015845Y005547D03*
X016138Y006931D03*
D744*
X015843Y005546D03*
X015841Y005546D03*
X015663Y005546D03*
X015661Y005546D03*
X015583Y005546D03*
D745*
X015584Y005545D03*
X015658Y005545D03*
X015659Y005545D03*
X015838Y005545D03*
X015839Y005545D03*
D746*
X015834Y005544D03*
X015833Y005544D03*
X015654Y005544D03*
X015653Y005544D03*
X015585Y005544D03*
X016133Y006935D03*
D747*
X015831Y005543D03*
X015721Y005543D03*
X015651Y005543D03*
X015650Y005543D03*
X015586Y005543D03*
D748*
X015588Y005542D03*
X015646Y005542D03*
X015648Y005542D03*
X015649Y005542D03*
X015723Y005542D03*
X015828Y005542D03*
X016131Y006937D03*
X016130Y006938D03*
D749*
X015589Y006402D03*
D750*
X016128Y006940D03*
X015821Y005540D03*
X015820Y005540D03*
X015726Y005540D03*
X015640Y005540D03*
X015590Y005540D03*
D751*
X015591Y005538D03*
X015593Y005538D03*
X015634Y005538D03*
X015635Y005538D03*
X015729Y005538D03*
X015814Y005538D03*
X015815Y005538D03*
D752*
X015806Y005536D03*
X015805Y005536D03*
X015734Y005536D03*
X015626Y005536D03*
X015625Y005536D03*
X015595Y005536D03*
X016123Y006945D03*
D753*
X015595Y006402D03*
D754*
X015596Y005535D03*
X015620Y005535D03*
X015621Y005535D03*
X015738Y005535D03*
X015800Y005535D03*
X015801Y005535D03*
D755*
X015795Y005533D03*
X015794Y005533D03*
X015744Y005533D03*
X015743Y005533D03*
X015615Y005533D03*
X015614Y005533D03*
X015599Y005533D03*
X016119Y006949D03*
D756*
X015783Y005530D03*
X015781Y005530D03*
X015760Y005530D03*
X015755Y005530D03*
X015601Y005530D03*
D757*
X015603Y005529D03*
X016114Y006953D03*
D758*
X015603Y006402D03*
D759*
X016115Y006952D03*
X015780Y005530D03*
X015779Y005530D03*
X015778Y005530D03*
X015776Y005530D03*
X015775Y005530D03*
X015774Y005530D03*
X015773Y005530D03*
X015771Y005530D03*
X015770Y005530D03*
X015769Y005530D03*
X015768Y005530D03*
X015766Y005530D03*
X015765Y005530D03*
X015764Y005530D03*
X015763Y005530D03*
X015761Y005530D03*
X015759Y005530D03*
X015758Y005530D03*
X015605Y005530D03*
X015604Y005530D03*
D760*
X015606Y005531D03*
X015608Y005531D03*
X015753Y005531D03*
X015754Y005531D03*
X015756Y005531D03*
X015784Y005531D03*
X015785Y005531D03*
X015786Y005531D03*
X015788Y005531D03*
X016116Y006951D03*
D761*
X015611Y006402D03*
X015610Y006402D03*
D762*
X016118Y006950D03*
X015793Y005532D03*
X015791Y005532D03*
X015746Y005532D03*
X015745Y005532D03*
X015613Y005532D03*
X015611Y005532D03*
D763*
X015614Y006401D03*
D764*
X015616Y006402D03*
D765*
X016120Y006948D03*
X015799Y005534D03*
X015798Y005534D03*
X015740Y005534D03*
X015739Y005534D03*
X015619Y005534D03*
X015618Y005534D03*
D766*
X015618Y006401D03*
D767*
X015621Y006244D03*
D768*
X016121Y006946D03*
X015804Y005535D03*
X015803Y005535D03*
X015736Y005535D03*
X015735Y005535D03*
X015624Y005535D03*
X015623Y005535D03*
D769*
X015623Y006242D03*
X015741Y006411D03*
D770*
X015623Y006445D03*
D771*
X015624Y006445D03*
D772*
X015625Y006240D03*
D773*
X015625Y006446D03*
D774*
X015745Y006408D03*
X015626Y006239D03*
D775*
X015626Y006447D03*
D776*
X016124Y006944D03*
X015808Y005536D03*
X015733Y005536D03*
X015628Y005536D03*
D777*
X015628Y006238D03*
D778*
X015629Y006448D03*
D779*
X015630Y006448D03*
D780*
X016125Y006943D03*
X015813Y005538D03*
X015811Y005538D03*
X015730Y005538D03*
X015633Y005538D03*
X015631Y005538D03*
D781*
X015631Y006450D03*
D782*
X015633Y006235D03*
D783*
X015633Y006450D03*
D784*
X015635Y006450D03*
X015636Y006450D03*
D785*
X016126Y006941D03*
X015818Y005539D03*
X015816Y005539D03*
X015728Y005539D03*
X015638Y005539D03*
X015636Y005539D03*
D786*
X015636Y006233D03*
D787*
X015638Y006233D03*
D788*
X015638Y006451D03*
D789*
X015639Y005540D03*
X015819Y005540D03*
D790*
X015639Y006450D03*
D791*
X015640Y006450D03*
D792*
X015641Y006230D03*
D793*
X015643Y006230D03*
X015754Y006396D03*
D794*
X015644Y006450D03*
D795*
X016129Y006939D03*
X015826Y005541D03*
X015825Y005541D03*
X015724Y005541D03*
X015645Y005541D03*
D796*
X015645Y006450D03*
D797*
X015646Y006450D03*
D798*
X015648Y006450D03*
D799*
X015650Y006449D03*
D800*
X015651Y006450D03*
D801*
X015653Y006450D03*
D802*
X016134Y006935D03*
X015836Y005545D03*
X015835Y005545D03*
X015720Y005545D03*
X015656Y005545D03*
X015655Y005545D03*
D803*
X015655Y006448D03*
D804*
X015656Y006448D03*
D805*
X015658Y006448D03*
D806*
X015660Y006448D03*
X015661Y006448D03*
D807*
X015663Y006447D03*
D808*
X015664Y006447D03*
D809*
X015665Y006446D03*
D810*
X016139Y006930D03*
X015848Y005548D03*
X015846Y005548D03*
X015716Y005548D03*
X015668Y005548D03*
X015666Y005548D03*
D811*
X015668Y006447D03*
D812*
X015669Y005548D03*
X015670Y005548D03*
X015849Y005548D03*
X015850Y005548D03*
D813*
X015669Y006446D03*
D814*
X015670Y006446D03*
D815*
X015671Y006445D03*
D816*
X016140Y006928D03*
X015854Y005550D03*
X015853Y005550D03*
X015674Y005550D03*
X015673Y005550D03*
D817*
X015675Y006445D03*
D818*
X015676Y006444D03*
D819*
X015679Y006444D03*
D820*
X015680Y007121D03*
X015679Y007121D03*
D821*
X015681Y006443D03*
D822*
X015683Y006443D03*
D823*
X015685Y005553D03*
X015686Y005553D03*
X015710Y005553D03*
X015865Y005553D03*
X015866Y005553D03*
X015868Y005553D03*
D824*
X015685Y006442D03*
D825*
X015686Y006441D03*
D826*
X015688Y006441D03*
D827*
X015690Y006441D03*
D828*
X016148Y006921D03*
X015873Y005555D03*
X015693Y005555D03*
D829*
X015693Y006440D03*
D830*
X015694Y005556D03*
X015695Y005556D03*
X015708Y005556D03*
X015874Y005556D03*
X015875Y005556D03*
D831*
X015694Y006440D03*
D832*
X015695Y006439D03*
D833*
X015696Y006438D03*
D834*
X015699Y006438D03*
D835*
X015700Y006438D03*
D836*
X015701Y006436D03*
D837*
X015703Y006436D03*
D838*
X015704Y005558D03*
X015884Y005558D03*
D839*
X015705Y006435D03*
D840*
X015706Y006434D03*
D841*
X015709Y006433D03*
D842*
X015711Y006432D03*
D843*
X015713Y006431D03*
D844*
X015714Y006431D03*
D845*
X015715Y006430D03*
D846*
X015716Y006430D03*
D847*
X015718Y006428D03*
D848*
X015719Y006428D03*
D849*
X015720Y006428D03*
D850*
X015721Y006427D03*
D851*
X015723Y006426D03*
D852*
X015724Y006425D03*
D853*
X015726Y006424D03*
D854*
X015729Y006421D03*
D855*
X015730Y006421D03*
D856*
X015731Y006420D03*
D857*
X015733Y006420D03*
D858*
X015734Y006418D03*
D859*
X015736Y006416D03*
D860*
X015739Y006414D03*
D861*
X015740Y006413D03*
D862*
X015744Y006410D03*
D863*
X015749Y006403D03*
D864*
X015750Y006401D03*
D865*
X015753Y006398D03*
D866*
X015773Y007086D03*
X015774Y007086D03*
D867*
X015799Y007074D03*
D868*
X015809Y007068D03*
D869*
X015816Y007063D03*
X015818Y007063D03*
D870*
X015829Y005543D03*
X015830Y005543D03*
D871*
X015834Y007053D03*
D872*
X015846Y007044D03*
D873*
X015848Y007043D03*
D874*
X015863Y005552D03*
D875*
X015878Y007017D03*
D876*
X015879Y007016D03*
D877*
X015884Y007011D03*
X015989Y007011D03*
X015990Y007011D03*
X016039Y007011D03*
X016040Y007011D03*
D878*
X016153Y006916D03*
X015886Y005559D03*
X015885Y005559D03*
D879*
X015888Y007007D03*
X015975Y007007D03*
X015976Y007007D03*
X016050Y007007D03*
D880*
X016053Y007006D03*
X015971Y007006D03*
X015970Y007006D03*
X015889Y007006D03*
D881*
X015890Y007004D03*
X015965Y007004D03*
X016056Y007004D03*
D882*
X015958Y007001D03*
X015956Y007001D03*
X015893Y007001D03*
D883*
X015895Y006998D03*
X015945Y006998D03*
X015946Y006998D03*
X016064Y006998D03*
D884*
X015896Y005562D03*
D885*
X015898Y006995D03*
X015933Y006995D03*
D886*
X015931Y006994D03*
X015930Y006994D03*
X015899Y006994D03*
X016069Y006994D03*
D887*
X016071Y006991D03*
X015925Y006992D03*
X015924Y006992D03*
X015900Y006992D03*
D888*
X015901Y006990D03*
X015916Y006990D03*
X015918Y006990D03*
X016074Y006989D03*
D889*
X016159Y006910D03*
X015904Y005564D03*
X015903Y005564D03*
D890*
X015903Y006988D03*
X015910Y006988D03*
X015911Y006988D03*
D891*
X015904Y006986D03*
X016079Y006985D03*
D892*
X015905Y005565D03*
D893*
X015905Y006986D03*
X016078Y006985D03*
D894*
X016160Y006908D03*
X015910Y005566D03*
X015909Y005566D03*
D895*
X015913Y006989D03*
X015914Y006989D03*
X016075Y006988D03*
D896*
X016161Y006907D03*
X015915Y005567D03*
X015914Y005567D03*
D897*
X015918Y005568D03*
X015919Y005568D03*
D898*
X015920Y006991D03*
X015919Y006991D03*
X016073Y006990D03*
D899*
X015924Y005570D03*
X015923Y005570D03*
D900*
X015926Y006993D03*
X016070Y006993D03*
D901*
X015930Y005571D03*
X015929Y005571D03*
X015928Y005571D03*
D902*
X015933Y005573D03*
X015934Y005573D03*
D903*
X015938Y005574D03*
D904*
X015938Y006996D03*
X016066Y006996D03*
D905*
X016065Y006997D03*
X015943Y006997D03*
X015941Y006997D03*
X015940Y006997D03*
D906*
X015941Y005575D03*
X015943Y005575D03*
D907*
X015948Y006999D03*
D908*
X015949Y005577D03*
D909*
X015951Y007000D03*
X015953Y007000D03*
D910*
X015954Y005579D03*
X015955Y005579D03*
X015956Y005579D03*
D911*
X015959Y005580D03*
D912*
X015959Y007002D03*
X016059Y007002D03*
D913*
X015963Y005581D03*
X015961Y005581D03*
X015960Y005581D03*
D914*
X015964Y005581D03*
D915*
X015965Y005582D03*
X015966Y005582D03*
D916*
X015968Y007005D03*
X015969Y007005D03*
X015966Y007005D03*
X016055Y007005D03*
D917*
X015969Y005583D03*
X015968Y005583D03*
D918*
X015970Y005583D03*
D919*
X015971Y005584D03*
X015973Y005584D03*
D920*
X015974Y005585D03*
X015975Y005585D03*
D921*
X015976Y005585D03*
X015978Y005585D03*
D922*
X015979Y007008D03*
X015978Y007008D03*
X016049Y007008D03*
D923*
X015980Y005586D03*
X015979Y005586D03*
D924*
X015981Y005586D03*
D925*
X015983Y007009D03*
X015981Y007009D03*
X016045Y007009D03*
X016046Y007009D03*
D926*
X015984Y005587D03*
X015983Y005587D03*
D927*
X015985Y005588D03*
X015986Y005588D03*
D928*
X015988Y005588D03*
X015989Y005588D03*
D929*
X015990Y005589D03*
D930*
X015991Y005590D03*
X015993Y005590D03*
D931*
X015991Y007011D03*
X016038Y007011D03*
D932*
X015994Y005590D03*
D933*
X015995Y005591D03*
X015996Y005591D03*
D934*
X015998Y007013D03*
X015999Y007013D03*
X016000Y007013D03*
X015996Y007013D03*
X016029Y007013D03*
X016030Y007013D03*
X016031Y007013D03*
X016033Y007013D03*
D935*
X015999Y005591D03*
X015998Y005591D03*
D936*
X016000Y005592D03*
X016001Y005592D03*
D937*
X016003Y005593D03*
X016004Y005593D03*
X016005Y005593D03*
D938*
X016006Y005594D03*
D939*
X016008Y005595D03*
X016009Y005595D03*
X016010Y005595D03*
D940*
X016011Y007014D03*
X016010Y007014D03*
X016009Y007014D03*
X016008Y007014D03*
X016013Y007014D03*
X016014Y007014D03*
X016015Y007014D03*
X016016Y007014D03*
X016018Y007014D03*
X016019Y007014D03*
X016020Y007014D03*
D941*
X016011Y005595D03*
D942*
X016013Y005596D03*
D943*
X016014Y005596D03*
X016015Y005596D03*
D944*
X016016Y005597D03*
X016018Y005597D03*
D945*
X016019Y005598D03*
X016020Y005598D03*
D946*
X016021Y005598D03*
X016023Y005598D03*
D947*
X016024Y005599D03*
D948*
X016025Y005600D03*
X016026Y005600D03*
D949*
X016028Y005600D03*
X016029Y005600D03*
D950*
X016030Y005601D03*
X016031Y005601D03*
D951*
X016033Y005601D03*
D952*
X016034Y005602D03*
D953*
X016035Y005603D03*
X016036Y005603D03*
X016038Y005603D03*
D954*
X016039Y005603D03*
D955*
X016040Y005604D03*
X016041Y005604D03*
X016043Y005604D03*
D956*
X016044Y005605D03*
D957*
X016045Y005605D03*
D958*
X016049Y005606D03*
X016050Y005606D03*
D959*
X016051Y005607D03*
X016053Y005607D03*
D960*
X016054Y005608D03*
X016055Y005608D03*
D961*
X016056Y005608D03*
D962*
X016058Y005609D03*
X016059Y005609D03*
D963*
X016060Y005610D03*
X016061Y005610D03*
D964*
X016063Y005610D03*
X016064Y005610D03*
D965*
X016065Y005611D03*
D966*
X016066Y005611D03*
X016068Y005611D03*
D967*
X016069Y005612D03*
D968*
X016070Y005613D03*
X016071Y005613D03*
D969*
X016073Y005613D03*
X016074Y005613D03*
D970*
X016075Y005614D03*
X016076Y005614D03*
D971*
X016078Y005615D03*
D972*
X016080Y006984D03*
D973*
X016081Y005616D03*
X016083Y005616D03*
D974*
X016081Y006982D03*
D975*
X016088Y005618D03*
X016085Y005616D03*
X016084Y005616D03*
D976*
X016084Y006980D03*
D977*
X016085Y006979D03*
D978*
X016089Y005618D03*
X016086Y005617D03*
D979*
X016086Y006978D03*
D980*
X016090Y005619D03*
X016091Y005619D03*
D981*
X016090Y006975D03*
D982*
X016091Y006973D03*
D983*
X016093Y005620D03*
X016094Y005620D03*
D984*
X016093Y006973D03*
D985*
X016095Y005620D03*
X016096Y005620D03*
D986*
X016095Y006971D03*
D987*
X016098Y005621D03*
X016099Y005621D03*
D988*
X016099Y006967D03*
D989*
X016100Y005621D03*
D990*
X016100Y006966D03*
D991*
X016105Y005623D03*
X016101Y005622D03*
D992*
X016103Y005623D03*
X016104Y005623D03*
X016106Y005624D03*
D993*
X016104Y006962D03*
D994*
X016105Y006961D03*
D995*
X016106Y006960D03*
D996*
X016108Y005625D03*
X016109Y005625D03*
D997*
X016108Y006959D03*
D998*
X016110Y006956D03*
D999*
X016111Y005626D03*
X016113Y005626D03*
D1000*
X016111Y006956D03*
D1001*
X016113Y006954D03*
D1002*
X016116Y005628D03*
X016118Y005628D03*
X016115Y005626D03*
X016114Y005626D03*
D1003*
X016119Y005628D03*
X016120Y005628D03*
D1004*
X016121Y005629D03*
D1005*
X016123Y005630D03*
X016124Y005630D03*
X016126Y005631D03*
D1006*
X016125Y005630D03*
X016128Y005631D03*
D1007*
X016129Y005632D03*
X016130Y005632D03*
X016131Y005632D03*
D1008*
X016133Y005633D03*
D1009*
X016134Y005633D03*
X016135Y005635D03*
X016136Y005635D03*
X016139Y005636D03*
D1010*
X016140Y005636D03*
X016138Y005635D03*
D1011*
X016144Y005638D03*
D1012*
X016145Y005638D03*
X016146Y005640D03*
D1013*
X016148Y005640D03*
X016149Y005640D03*
D1014*
X016150Y005641D03*
D1015*
X016151Y005642D03*
X016153Y005643D03*
D1016*
X016155Y005645D03*
D1017*
X016156Y005646D03*
D1018*
X016158Y005648D03*
D1019*
X016159Y005650D03*
D1020*
X016160Y005651D03*
D1021*
X016161Y005653D03*
D1022*
X016163Y005656D03*
D1023*
X016279Y006242D03*
D1024*
X016281Y006242D03*
D1025*
X016283Y006242D03*
D1026*
X016289Y006242D03*
D1027*
X016296Y006242D03*
D1028*
X016301Y006242D03*
D1029*
X016306Y006243D03*
D1030*
X016309Y006242D03*
D1031*
X016314Y006242D03*
D1032*
X016316Y006243D03*
D1033*
X016320Y006242D03*
D1034*
X016323Y006243D03*
D1035*
X016326Y006242D03*
D1036*
X016328Y006242D03*
D1037*
X016331Y006242D03*
D1038*
X016333Y006242D03*
D1039*
X016335Y006242D03*
D1040*
X016338Y006243D03*
D1041*
X016340Y006242D03*
D1042*
X016341Y006243D03*
D1043*
X016344Y006242D03*
D1044*
X016345Y006242D03*
D1045*
X016350Y006243D03*
D1046*
X016351Y006243D03*
D1047*
X016353Y006243D03*
D1048*
X016354Y006242D03*
D1049*
X016356Y006243D03*
D1050*
X016358Y006243D03*
D1051*
X016359Y006243D03*
D1052*
X016360Y006242D03*
D1053*
X016363Y006243D03*
D1054*
X016364Y006243D03*
D1055*
X016365Y006243D03*
D1056*
X016368Y006242D03*
D1057*
X016369Y006242D03*
D1058*
X016370Y006242D03*
D1059*
X016371Y006242D03*
D1060*
X016373Y006243D03*
D1061*
X016375Y006243D03*
D1062*
X016376Y006243D03*
D1063*
X016378Y006242D03*
D1064*
X016379Y006243D03*
D1065*
X016381Y006242D03*
D1066*
X016383Y006243D03*
D1067*
X016384Y006242D03*
D1068*
X016385Y006242D03*
D1069*
X016388Y006242D03*
D1070*
X016389Y006243D03*
D1071*
X016390Y006242D03*
D1072*
X016391Y006243D03*
D1073*
X016394Y006243D03*
D1074*
X016395Y006242D03*
D1075*
X016396Y006243D03*
D1076*
X016398Y006242D03*
D1077*
X016400Y006243D03*
D1078*
X016401Y006243D03*
D1079*
X016403Y006243D03*
D1080*
X016404Y006242D03*
D1081*
X016406Y006242D03*
D1082*
X016408Y006242D03*
D1083*
X016409Y006243D03*
D1084*
X016410Y006242D03*
D1085*
X016411Y006243D03*
D1086*
X016413Y006242D03*
D1087*
X016414Y006243D03*
D1088*
X016415Y006243D03*
D1089*
X016416Y006242D03*
D1090*
X016418Y006242D03*
D1091*
X016419Y006242D03*
D1092*
X016420Y006243D03*
D1093*
X016421Y006243D03*
D1094*
X016423Y006243D03*
D1095*
X016424Y006243D03*
D1096*
X016425Y006242D03*
D1097*
X016426Y006243D03*
D1098*
X016428Y006242D03*
D1099*
X016429Y006242D03*
D1100*
X016431Y006242D03*
D1101*
X016433Y006242D03*
D1102*
X016434Y006243D03*
D1103*
X016435Y006243D03*
D1104*
X016438Y006242D03*
D1105*
X016439Y006242D03*
D1106*
X016440Y006243D03*
D1107*
X016441Y006242D03*
D1108*
X016444Y006243D03*
D1109*
X016445Y006243D03*
D1110*
X016446Y006243D03*
D1111*
X016448Y006243D03*
D1112*
X016449Y006242D03*
D1113*
X016450Y006243D03*
D1114*
X016451Y006243D03*
D1115*
X016453Y006243D03*
D1116*
X016454Y006242D03*
D1117*
X016455Y006242D03*
D1118*
X016456Y006243D03*
D1119*
X016458Y006242D03*
D1120*
X016459Y006242D03*
D1121*
X016460Y006243D03*
D1122*
X016463Y006242D03*
D1123*
X016464Y006242D03*
D1124*
X016465Y006242D03*
D1125*
X016466Y006243D03*
D1126*
X016469Y006242D03*
D1127*
X016470Y006243D03*
D1128*
X016471Y006242D03*
D1129*
X016473Y006243D03*
D1130*
X016474Y006242D03*
D1131*
X016475Y006243D03*
D1132*
X016476Y006243D03*
D1133*
X016478Y006242D03*
D1134*
X016479Y006243D03*
M02*
