G75*
%MOIN*%
%OFA0B0*%
%FSLAX24Y24*%
%IPPOS*%
%LPD*%
%AMOC8*
5,1,8,0,0,1.08239X$1,22.5*
%
%ADD10C,0.0000*%
%ADD11R,0.0433X0.0394*%
%ADD12R,0.0248X0.0327*%
%ADD13R,0.0394X0.0433*%
%ADD14R,0.0870X0.0240*%
%ADD15R,0.0217X0.0531*%
%ADD16R,0.0472X0.0217*%
%ADD17R,0.0315X0.0315*%
%ADD18R,0.0630X0.0709*%
%ADD19R,0.3307X0.1969*%
%ADD20R,0.1496X0.0551*%
%ADD21C,0.0039*%
%ADD22R,0.0984X0.0315*%
D10*
X006380Y002193D02*
X022180Y002193D01*
X022224Y002195D01*
X022267Y002201D01*
X022309Y002210D01*
X022351Y002223D01*
X022391Y002240D01*
X022430Y002260D01*
X022467Y002283D01*
X022501Y002310D01*
X022534Y002339D01*
X022563Y002372D01*
X022590Y002406D01*
X022613Y002443D01*
X022633Y002482D01*
X022650Y002522D01*
X022663Y002564D01*
X022672Y002606D01*
X022678Y002649D01*
X022680Y002693D01*
X022680Y007293D01*
X022674Y007338D01*
X022664Y007383D01*
X022651Y007426D01*
X022634Y007469D01*
X022613Y007510D01*
X022590Y007549D01*
X022563Y007586D01*
X022533Y007620D01*
X022501Y007652D01*
X022466Y007681D01*
X022428Y007708D01*
X022389Y007731D01*
X022348Y007750D01*
X022305Y007766D01*
X022261Y007779D01*
X022217Y007788D01*
X022171Y007793D01*
X022126Y007795D01*
X022080Y007793D01*
X006280Y007793D01*
X006241Y007791D01*
X006202Y007785D01*
X006164Y007776D01*
X006127Y007763D01*
X006091Y007746D01*
X006058Y007726D01*
X006026Y007702D01*
X005997Y007676D01*
X005971Y007647D01*
X005947Y007615D01*
X005927Y007582D01*
X005910Y007546D01*
X005897Y007509D01*
X005888Y007471D01*
X005882Y007432D01*
X005880Y007393D01*
X005880Y002693D01*
X005882Y002649D01*
X005888Y002606D01*
X005897Y002564D01*
X005910Y002522D01*
X005927Y002482D01*
X005947Y002443D01*
X005970Y002406D01*
X005997Y002372D01*
X006026Y002339D01*
X006059Y002310D01*
X006093Y002283D01*
X006130Y002260D01*
X006169Y002240D01*
X006209Y002223D01*
X006251Y002210D01*
X006293Y002201D01*
X006336Y002195D01*
X006380Y002193D01*
X006609Y002690D02*
X006611Y002715D01*
X006617Y002739D01*
X006626Y002761D01*
X006639Y002782D01*
X006655Y002801D01*
X006674Y002817D01*
X006695Y002830D01*
X006717Y002839D01*
X006741Y002845D01*
X006766Y002847D01*
X006791Y002845D01*
X006815Y002839D01*
X006837Y002830D01*
X006858Y002817D01*
X006877Y002801D01*
X006893Y002782D01*
X006906Y002761D01*
X006915Y002739D01*
X006921Y002715D01*
X006923Y002690D01*
X006921Y002665D01*
X006915Y002641D01*
X006906Y002619D01*
X006893Y002598D01*
X006877Y002579D01*
X006858Y002563D01*
X006837Y002550D01*
X006815Y002541D01*
X006791Y002535D01*
X006766Y002533D01*
X006741Y002535D01*
X006717Y002541D01*
X006695Y002550D01*
X006674Y002563D01*
X006655Y002579D01*
X006639Y002598D01*
X006626Y002619D01*
X006617Y002641D01*
X006611Y002665D01*
X006609Y002690D01*
X006766Y002690D02*
X006768Y002715D01*
X006774Y002739D01*
X006783Y002761D01*
X006796Y002782D01*
X006812Y002801D01*
X006831Y002817D01*
X006852Y002830D01*
X006874Y002839D01*
X006898Y002845D01*
X006923Y002847D01*
X006948Y002845D01*
X006972Y002839D01*
X006994Y002830D01*
X007015Y002817D01*
X007034Y002801D01*
X007050Y002782D01*
X007063Y002761D01*
X007072Y002739D01*
X007078Y002715D01*
X007080Y002690D01*
X007078Y002665D01*
X007072Y002641D01*
X007063Y002619D01*
X007050Y002598D01*
X007034Y002579D01*
X007015Y002563D01*
X006994Y002550D01*
X006972Y002541D01*
X006948Y002535D01*
X006923Y002533D01*
X006898Y002535D01*
X006874Y002541D01*
X006852Y002550D01*
X006831Y002563D01*
X006812Y002579D01*
X006796Y002598D01*
X006783Y002619D01*
X006774Y002641D01*
X006768Y002665D01*
X006766Y002690D01*
X007081Y002690D02*
X007083Y002715D01*
X007089Y002739D01*
X007098Y002761D01*
X007111Y002782D01*
X007127Y002801D01*
X007146Y002817D01*
X007167Y002830D01*
X007189Y002839D01*
X007213Y002845D01*
X007238Y002847D01*
X007263Y002845D01*
X007287Y002839D01*
X007309Y002830D01*
X007330Y002817D01*
X007349Y002801D01*
X007365Y002782D01*
X007378Y002761D01*
X007387Y002739D01*
X007393Y002715D01*
X007395Y002690D01*
X007393Y002665D01*
X007387Y002641D01*
X007378Y002619D01*
X007365Y002598D01*
X007349Y002579D01*
X007330Y002563D01*
X007309Y002550D01*
X007287Y002541D01*
X007263Y002535D01*
X007238Y002533D01*
X007213Y002535D01*
X007189Y002541D01*
X007167Y002550D01*
X007146Y002563D01*
X007127Y002579D01*
X007111Y002598D01*
X007098Y002619D01*
X007089Y002641D01*
X007083Y002665D01*
X007081Y002690D01*
X007239Y002690D02*
X007241Y002715D01*
X007247Y002739D01*
X007256Y002761D01*
X007269Y002782D01*
X007285Y002801D01*
X007304Y002817D01*
X007325Y002830D01*
X007347Y002839D01*
X007371Y002845D01*
X007396Y002847D01*
X007421Y002845D01*
X007445Y002839D01*
X007467Y002830D01*
X007488Y002817D01*
X007507Y002801D01*
X007523Y002782D01*
X007536Y002761D01*
X007545Y002739D01*
X007551Y002715D01*
X007553Y002690D01*
X007551Y002665D01*
X007545Y002641D01*
X007536Y002619D01*
X007523Y002598D01*
X007507Y002579D01*
X007488Y002563D01*
X007467Y002550D01*
X007445Y002541D01*
X007421Y002535D01*
X007396Y002533D01*
X007371Y002535D01*
X007347Y002541D01*
X007325Y002550D01*
X007304Y002563D01*
X007285Y002579D01*
X007269Y002598D01*
X007256Y002619D01*
X007247Y002641D01*
X007241Y002665D01*
X007239Y002690D01*
X006892Y004107D02*
X006894Y004136D01*
X006900Y004164D01*
X006909Y004192D01*
X006922Y004218D01*
X006939Y004241D01*
X006958Y004263D01*
X006980Y004282D01*
X007005Y004297D01*
X007031Y004310D01*
X007059Y004318D01*
X007087Y004323D01*
X007116Y004324D01*
X007145Y004321D01*
X007173Y004314D01*
X007200Y004304D01*
X007226Y004290D01*
X007249Y004273D01*
X007270Y004253D01*
X007288Y004230D01*
X007303Y004205D01*
X007314Y004178D01*
X007322Y004150D01*
X007326Y004121D01*
X007326Y004093D01*
X007322Y004064D01*
X007314Y004036D01*
X007303Y004009D01*
X007288Y003984D01*
X007270Y003961D01*
X007249Y003941D01*
X007226Y003924D01*
X007200Y003910D01*
X007173Y003900D01*
X007145Y003893D01*
X007116Y003890D01*
X007087Y003891D01*
X007059Y003896D01*
X007031Y003904D01*
X007005Y003917D01*
X006980Y003932D01*
X006958Y003951D01*
X006939Y003973D01*
X006922Y003996D01*
X006909Y004022D01*
X006900Y004050D01*
X006894Y004078D01*
X006892Y004107D01*
X006892Y005879D02*
X006894Y005908D01*
X006900Y005936D01*
X006909Y005964D01*
X006922Y005990D01*
X006939Y006013D01*
X006958Y006035D01*
X006980Y006054D01*
X007005Y006069D01*
X007031Y006082D01*
X007059Y006090D01*
X007087Y006095D01*
X007116Y006096D01*
X007145Y006093D01*
X007173Y006086D01*
X007200Y006076D01*
X007226Y006062D01*
X007249Y006045D01*
X007270Y006025D01*
X007288Y006002D01*
X007303Y005977D01*
X007314Y005950D01*
X007322Y005922D01*
X007326Y005893D01*
X007326Y005865D01*
X007322Y005836D01*
X007314Y005808D01*
X007303Y005781D01*
X007288Y005756D01*
X007270Y005733D01*
X007249Y005713D01*
X007226Y005696D01*
X007200Y005682D01*
X007173Y005672D01*
X007145Y005665D01*
X007116Y005662D01*
X007087Y005663D01*
X007059Y005668D01*
X007031Y005676D01*
X007005Y005689D01*
X006980Y005704D01*
X006958Y005723D01*
X006939Y005745D01*
X006922Y005768D01*
X006909Y005794D01*
X006900Y005822D01*
X006894Y005850D01*
X006892Y005879D01*
X006766Y007296D02*
X006768Y007321D01*
X006774Y007345D01*
X006783Y007367D01*
X006796Y007388D01*
X006812Y007407D01*
X006831Y007423D01*
X006852Y007436D01*
X006874Y007445D01*
X006898Y007451D01*
X006923Y007453D01*
X006948Y007451D01*
X006972Y007445D01*
X006994Y007436D01*
X007015Y007423D01*
X007034Y007407D01*
X007050Y007388D01*
X007063Y007367D01*
X007072Y007345D01*
X007078Y007321D01*
X007080Y007296D01*
X007078Y007271D01*
X007072Y007247D01*
X007063Y007225D01*
X007050Y007204D01*
X007034Y007185D01*
X007015Y007169D01*
X006994Y007156D01*
X006972Y007147D01*
X006948Y007141D01*
X006923Y007139D01*
X006898Y007141D01*
X006874Y007147D01*
X006852Y007156D01*
X006831Y007169D01*
X006812Y007185D01*
X006796Y007204D01*
X006783Y007225D01*
X006774Y007247D01*
X006768Y007271D01*
X006766Y007296D01*
X006609Y007296D02*
X006611Y007321D01*
X006617Y007345D01*
X006626Y007367D01*
X006639Y007388D01*
X006655Y007407D01*
X006674Y007423D01*
X006695Y007436D01*
X006717Y007445D01*
X006741Y007451D01*
X006766Y007453D01*
X006791Y007451D01*
X006815Y007445D01*
X006837Y007436D01*
X006858Y007423D01*
X006877Y007407D01*
X006893Y007388D01*
X006906Y007367D01*
X006915Y007345D01*
X006921Y007321D01*
X006923Y007296D01*
X006921Y007271D01*
X006915Y007247D01*
X006906Y007225D01*
X006893Y007204D01*
X006877Y007185D01*
X006858Y007169D01*
X006837Y007156D01*
X006815Y007147D01*
X006791Y007141D01*
X006766Y007139D01*
X006741Y007141D01*
X006717Y007147D01*
X006695Y007156D01*
X006674Y007169D01*
X006655Y007185D01*
X006639Y007204D01*
X006626Y007225D01*
X006617Y007247D01*
X006611Y007271D01*
X006609Y007296D01*
X007081Y007296D02*
X007083Y007321D01*
X007089Y007345D01*
X007098Y007367D01*
X007111Y007388D01*
X007127Y007407D01*
X007146Y007423D01*
X007167Y007436D01*
X007189Y007445D01*
X007213Y007451D01*
X007238Y007453D01*
X007263Y007451D01*
X007287Y007445D01*
X007309Y007436D01*
X007330Y007423D01*
X007349Y007407D01*
X007365Y007388D01*
X007378Y007367D01*
X007387Y007345D01*
X007393Y007321D01*
X007395Y007296D01*
X007393Y007271D01*
X007387Y007247D01*
X007378Y007225D01*
X007365Y007204D01*
X007349Y007185D01*
X007330Y007169D01*
X007309Y007156D01*
X007287Y007147D01*
X007263Y007141D01*
X007238Y007139D01*
X007213Y007141D01*
X007189Y007147D01*
X007167Y007156D01*
X007146Y007169D01*
X007127Y007185D01*
X007111Y007204D01*
X007098Y007225D01*
X007089Y007247D01*
X007083Y007271D01*
X007081Y007296D01*
X007239Y007296D02*
X007241Y007321D01*
X007247Y007345D01*
X007256Y007367D01*
X007269Y007388D01*
X007285Y007407D01*
X007304Y007423D01*
X007325Y007436D01*
X007347Y007445D01*
X007371Y007451D01*
X007396Y007453D01*
X007421Y007451D01*
X007445Y007445D01*
X007467Y007436D01*
X007488Y007423D01*
X007507Y007407D01*
X007523Y007388D01*
X007536Y007367D01*
X007545Y007345D01*
X007551Y007321D01*
X007553Y007296D01*
X007551Y007271D01*
X007545Y007247D01*
X007536Y007225D01*
X007523Y007204D01*
X007507Y007185D01*
X007488Y007169D01*
X007467Y007156D01*
X007445Y007147D01*
X007421Y007141D01*
X007396Y007139D01*
X007371Y007141D01*
X007347Y007147D01*
X007325Y007156D01*
X007304Y007169D01*
X007285Y007185D01*
X007269Y007204D01*
X007256Y007225D01*
X007247Y007247D01*
X007241Y007271D01*
X007239Y007296D01*
D11*
X014646Y005918D03*
X015315Y005918D03*
X016446Y005993D03*
X017115Y005993D03*
X012715Y004593D03*
X012046Y004593D03*
X014646Y003293D03*
X015315Y003293D03*
X015315Y002593D03*
X014646Y002593D03*
X016446Y003993D03*
X017115Y003993D03*
D12*
X011433Y004793D03*
X010527Y004793D03*
X010033Y005493D03*
X009127Y005493D03*
D13*
X010646Y005693D03*
X011315Y005693D03*
X009915Y006193D03*
X009246Y006193D03*
X010646Y006493D03*
X011315Y006493D03*
X011315Y007293D03*
X010646Y007293D03*
X016446Y007393D03*
X017115Y007393D03*
X017115Y006693D03*
X016446Y006693D03*
X009915Y004793D03*
X009246Y004793D03*
X008915Y002793D03*
X008246Y002793D03*
X016446Y002593D03*
X017115Y002593D03*
X017115Y003293D03*
X016446Y003293D03*
D14*
X012400Y003043D03*
X012400Y002543D03*
X009750Y002543D03*
X009750Y003043D03*
X009750Y003543D03*
X009750Y004043D03*
X012400Y004043D03*
X012400Y003543D03*
D15*
X014606Y004052D03*
X014980Y004052D03*
X015354Y004052D03*
X015354Y005135D03*
X014980Y005135D03*
X014606Y005135D03*
D16*
X016268Y005367D03*
X017292Y005367D03*
X017292Y004993D03*
X017292Y004619D03*
X016268Y004619D03*
D17*
X012575Y005193D03*
X011985Y005193D03*
D18*
X009631Y007093D03*
X008529Y007093D03*
X014529Y007093D03*
X015631Y007093D03*
D19*
X020180Y006590D03*
X020180Y003396D03*
D20*
X020180Y004459D03*
X020180Y005527D03*
D21*
X020767Y005409D02*
X019586Y005409D01*
X019586Y005645D01*
X020767Y005645D01*
X020767Y005409D01*
X021948Y005606D02*
X022735Y005606D01*
X022735Y007181D01*
X021948Y007181D01*
X021948Y005606D01*
X020775Y004578D02*
X019594Y004578D01*
X019594Y004341D01*
X020775Y004341D01*
X020775Y004578D01*
X021956Y004381D02*
X021956Y002806D01*
X022743Y002806D01*
X022743Y004381D01*
X021956Y004381D01*
X018412Y004381D02*
X017625Y004381D01*
X017625Y002806D01*
X018412Y002806D01*
X018412Y004381D01*
X018405Y005606D02*
X017617Y005606D01*
X017617Y007181D01*
X018405Y007181D01*
X018405Y005606D01*
D22*
X008191Y005398D03*
X008191Y004589D03*
X008191Y003615D03*
X008191Y006391D03*
M02*
