G75*
%MOIN*%
%OFA0B0*%
%FSLAX24Y24*%
%IPPOS*%
%LPD*%
%AMOC8*
5,1,8,0,0,1.08239X$1,22.5*
%
%ADD10C,0.0000*%
%ADD11C,0.0740*%
%ADD12C,0.1266*%
%ADD13C,0.0660*%
%ADD14R,0.1496X0.0551*%
%ADD15C,0.0039*%
%ADD16C,0.0320*%
%ADD17C,0.0160*%
D10*
X006773Y003863D02*
X023643Y003863D01*
X023687Y003865D01*
X023730Y003871D01*
X023772Y003880D01*
X023814Y003893D01*
X023854Y003910D01*
X023893Y003930D01*
X023930Y003953D01*
X023964Y003980D01*
X023997Y004009D01*
X024026Y004042D01*
X024053Y004076D01*
X024076Y004113D01*
X024096Y004152D01*
X024113Y004192D01*
X024126Y004234D01*
X024135Y004276D01*
X024141Y004319D01*
X024143Y004363D01*
X024143Y010109D01*
X024141Y010152D01*
X024136Y010196D01*
X024127Y010238D01*
X024114Y010280D01*
X024098Y010320D01*
X024078Y010359D01*
X024055Y010396D01*
X024029Y010431D01*
X024000Y010463D01*
X023968Y010493D01*
X023933Y010520D01*
X023897Y010544D01*
X023858Y010564D01*
X023818Y010581D01*
X023777Y010595D01*
X023734Y010605D01*
X023691Y010611D01*
X023647Y010613D01*
X023648Y010613D02*
X006777Y010613D01*
X006723Y010611D01*
X006670Y010605D01*
X006617Y010596D01*
X006565Y010582D01*
X006514Y010565D01*
X006464Y010545D01*
X006416Y010521D01*
X006369Y010493D01*
X006325Y010463D01*
X006283Y010429D01*
X006244Y010392D01*
X006207Y010353D01*
X006173Y010311D01*
X006143Y010267D01*
X006115Y010220D01*
X006091Y010172D01*
X006071Y010122D01*
X006054Y010071D01*
X006040Y010019D01*
X006031Y009966D01*
X006025Y009913D01*
X006023Y009859D01*
X006023Y004613D01*
X006025Y004559D01*
X006031Y004506D01*
X006040Y004454D01*
X006053Y004402D01*
X006070Y004351D01*
X006091Y004301D01*
X006115Y004254D01*
X006142Y004208D01*
X006173Y004164D01*
X006206Y004122D01*
X006243Y004083D01*
X006282Y004046D01*
X006324Y004013D01*
X006368Y003982D01*
X006414Y003955D01*
X006461Y003931D01*
X006511Y003910D01*
X006562Y003893D01*
X006614Y003880D01*
X006666Y003871D01*
X006719Y003865D01*
X006773Y003863D01*
X006892Y006352D02*
X006894Y006381D01*
X006900Y006409D01*
X006909Y006437D01*
X006922Y006463D01*
X006939Y006486D01*
X006958Y006508D01*
X006980Y006527D01*
X007005Y006542D01*
X007031Y006555D01*
X007059Y006563D01*
X007087Y006568D01*
X007116Y006569D01*
X007145Y006566D01*
X007173Y006559D01*
X007200Y006549D01*
X007226Y006535D01*
X007249Y006518D01*
X007270Y006498D01*
X007288Y006475D01*
X007303Y006450D01*
X007314Y006423D01*
X007322Y006395D01*
X007326Y006366D01*
X007326Y006338D01*
X007322Y006309D01*
X007314Y006281D01*
X007303Y006254D01*
X007288Y006229D01*
X007270Y006206D01*
X007249Y006186D01*
X007226Y006169D01*
X007200Y006155D01*
X007173Y006145D01*
X007145Y006138D01*
X007116Y006135D01*
X007087Y006136D01*
X007059Y006141D01*
X007031Y006149D01*
X007005Y006162D01*
X006980Y006177D01*
X006958Y006196D01*
X006939Y006218D01*
X006922Y006241D01*
X006909Y006267D01*
X006900Y006295D01*
X006894Y006323D01*
X006892Y006352D01*
X006163Y006863D02*
X006165Y006878D01*
X006170Y006892D01*
X006179Y006904D01*
X006191Y006914D01*
X006204Y006920D01*
X006219Y006923D01*
X006234Y006922D01*
X006249Y006917D01*
X006261Y006909D01*
X006272Y006898D01*
X006279Y006885D01*
X006283Y006871D01*
X006283Y006855D01*
X006279Y006841D01*
X006272Y006828D01*
X006261Y006817D01*
X006249Y006809D01*
X006234Y006804D01*
X006219Y006803D01*
X006204Y006806D01*
X006191Y006812D01*
X006179Y006822D01*
X006170Y006834D01*
X006165Y006848D01*
X006163Y006863D01*
X006363Y006963D02*
X006365Y006978D01*
X006370Y006992D01*
X006379Y007004D01*
X006391Y007014D01*
X006404Y007020D01*
X006419Y007023D01*
X006434Y007022D01*
X006449Y007017D01*
X006461Y007009D01*
X006472Y006998D01*
X006479Y006985D01*
X006483Y006971D01*
X006483Y006955D01*
X006479Y006941D01*
X006472Y006928D01*
X006461Y006917D01*
X006449Y006909D01*
X006434Y006904D01*
X006419Y006903D01*
X006404Y006906D01*
X006391Y006912D01*
X006379Y006922D01*
X006370Y006934D01*
X006365Y006948D01*
X006363Y006963D01*
X006463Y007163D02*
X006465Y007178D01*
X006470Y007192D01*
X006479Y007204D01*
X006491Y007214D01*
X006504Y007220D01*
X006519Y007223D01*
X006534Y007222D01*
X006549Y007217D01*
X006561Y007209D01*
X006572Y007198D01*
X006579Y007185D01*
X006583Y007171D01*
X006583Y007155D01*
X006579Y007141D01*
X006572Y007128D01*
X006561Y007117D01*
X006549Y007109D01*
X006534Y007104D01*
X006519Y007103D01*
X006504Y007106D01*
X006491Y007112D01*
X006479Y007122D01*
X006470Y007134D01*
X006465Y007148D01*
X006463Y007163D01*
X006463Y007363D02*
X006465Y007378D01*
X006470Y007392D01*
X006479Y007404D01*
X006491Y007414D01*
X006504Y007420D01*
X006519Y007423D01*
X006534Y007422D01*
X006549Y007417D01*
X006561Y007409D01*
X006572Y007398D01*
X006579Y007385D01*
X006583Y007371D01*
X006583Y007355D01*
X006579Y007341D01*
X006572Y007328D01*
X006561Y007317D01*
X006549Y007309D01*
X006534Y007304D01*
X006519Y007303D01*
X006504Y007306D01*
X006491Y007312D01*
X006479Y007322D01*
X006470Y007334D01*
X006465Y007348D01*
X006463Y007363D01*
X006363Y007563D02*
X006365Y007578D01*
X006370Y007592D01*
X006379Y007604D01*
X006391Y007614D01*
X006404Y007620D01*
X006419Y007623D01*
X006434Y007622D01*
X006449Y007617D01*
X006461Y007609D01*
X006472Y007598D01*
X006479Y007585D01*
X006483Y007571D01*
X006483Y007555D01*
X006479Y007541D01*
X006472Y007528D01*
X006461Y007517D01*
X006449Y007509D01*
X006434Y007504D01*
X006419Y007503D01*
X006404Y007506D01*
X006391Y007512D01*
X006379Y007522D01*
X006370Y007534D01*
X006365Y007548D01*
X006363Y007563D01*
X006163Y007663D02*
X006165Y007678D01*
X006170Y007692D01*
X006179Y007704D01*
X006191Y007714D01*
X006204Y007720D01*
X006219Y007723D01*
X006234Y007722D01*
X006249Y007717D01*
X006261Y007709D01*
X006272Y007698D01*
X006279Y007685D01*
X006283Y007671D01*
X006283Y007655D01*
X006279Y007641D01*
X006272Y007628D01*
X006261Y007617D01*
X006249Y007609D01*
X006234Y007604D01*
X006219Y007603D01*
X006204Y007606D01*
X006191Y007612D01*
X006179Y007622D01*
X006170Y007634D01*
X006165Y007648D01*
X006163Y007663D01*
X006892Y008124D02*
X006894Y008153D01*
X006900Y008181D01*
X006909Y008209D01*
X006922Y008235D01*
X006939Y008258D01*
X006958Y008280D01*
X006980Y008299D01*
X007005Y008314D01*
X007031Y008327D01*
X007059Y008335D01*
X007087Y008340D01*
X007116Y008341D01*
X007145Y008338D01*
X007173Y008331D01*
X007200Y008321D01*
X007226Y008307D01*
X007249Y008290D01*
X007270Y008270D01*
X007288Y008247D01*
X007303Y008222D01*
X007314Y008195D01*
X007322Y008167D01*
X007326Y008138D01*
X007326Y008110D01*
X007322Y008081D01*
X007314Y008053D01*
X007303Y008026D01*
X007288Y008001D01*
X007270Y007978D01*
X007249Y007958D01*
X007226Y007941D01*
X007200Y007927D01*
X007173Y007917D01*
X007145Y007910D01*
X007116Y007907D01*
X007087Y007908D01*
X007059Y007913D01*
X007031Y007921D01*
X007005Y007934D01*
X006980Y007949D01*
X006958Y007968D01*
X006939Y007990D01*
X006922Y008013D01*
X006909Y008039D01*
X006900Y008067D01*
X006894Y008095D01*
X006892Y008124D01*
X023663Y007363D02*
X023665Y007378D01*
X023670Y007392D01*
X023679Y007404D01*
X023691Y007414D01*
X023704Y007420D01*
X023719Y007423D01*
X023734Y007422D01*
X023749Y007417D01*
X023761Y007409D01*
X023772Y007398D01*
X023779Y007385D01*
X023783Y007371D01*
X023783Y007355D01*
X023779Y007341D01*
X023772Y007328D01*
X023761Y007317D01*
X023749Y007309D01*
X023734Y007304D01*
X023719Y007303D01*
X023704Y007306D01*
X023691Y007312D01*
X023679Y007322D01*
X023670Y007334D01*
X023665Y007348D01*
X023663Y007363D01*
X023663Y007163D02*
X023665Y007178D01*
X023670Y007192D01*
X023679Y007204D01*
X023691Y007214D01*
X023704Y007220D01*
X023719Y007223D01*
X023734Y007222D01*
X023749Y007217D01*
X023761Y007209D01*
X023772Y007198D01*
X023779Y007185D01*
X023783Y007171D01*
X023783Y007155D01*
X023779Y007141D01*
X023772Y007128D01*
X023761Y007117D01*
X023749Y007109D01*
X023734Y007104D01*
X023719Y007103D01*
X023704Y007106D01*
X023691Y007112D01*
X023679Y007122D01*
X023670Y007134D01*
X023665Y007148D01*
X023663Y007163D01*
X023763Y006963D02*
X023765Y006978D01*
X023770Y006992D01*
X023779Y007004D01*
X023791Y007014D01*
X023804Y007020D01*
X023819Y007023D01*
X023834Y007022D01*
X023849Y007017D01*
X023861Y007009D01*
X023872Y006998D01*
X023879Y006985D01*
X023883Y006971D01*
X023883Y006955D01*
X023879Y006941D01*
X023872Y006928D01*
X023861Y006917D01*
X023849Y006909D01*
X023834Y006904D01*
X023819Y006903D01*
X023804Y006906D01*
X023791Y006912D01*
X023779Y006922D01*
X023770Y006934D01*
X023765Y006948D01*
X023763Y006963D01*
X023963Y006863D02*
X023965Y006878D01*
X023970Y006892D01*
X023979Y006904D01*
X023991Y006914D01*
X024004Y006920D01*
X024019Y006923D01*
X024034Y006922D01*
X024049Y006917D01*
X024061Y006909D01*
X024072Y006898D01*
X024079Y006885D01*
X024083Y006871D01*
X024083Y006855D01*
X024079Y006841D01*
X024072Y006828D01*
X024061Y006817D01*
X024049Y006809D01*
X024034Y006804D01*
X024019Y006803D01*
X024004Y006806D01*
X023991Y006812D01*
X023979Y006822D01*
X023970Y006834D01*
X023965Y006848D01*
X023963Y006863D01*
X023763Y007563D02*
X023765Y007578D01*
X023770Y007592D01*
X023779Y007604D01*
X023791Y007614D01*
X023804Y007620D01*
X023819Y007623D01*
X023834Y007622D01*
X023849Y007617D01*
X023861Y007609D01*
X023872Y007598D01*
X023879Y007585D01*
X023883Y007571D01*
X023883Y007555D01*
X023879Y007541D01*
X023872Y007528D01*
X023861Y007517D01*
X023849Y007509D01*
X023834Y007504D01*
X023819Y007503D01*
X023804Y007506D01*
X023791Y007512D01*
X023779Y007522D01*
X023770Y007534D01*
X023765Y007548D01*
X023763Y007563D01*
X023963Y007663D02*
X023965Y007678D01*
X023970Y007692D01*
X023979Y007704D01*
X023991Y007714D01*
X024004Y007720D01*
X024019Y007723D01*
X024034Y007722D01*
X024049Y007717D01*
X024061Y007709D01*
X024072Y007698D01*
X024079Y007685D01*
X024083Y007671D01*
X024083Y007655D01*
X024079Y007641D01*
X024072Y007628D01*
X024061Y007617D01*
X024049Y007609D01*
X024034Y007604D01*
X024019Y007603D01*
X024004Y007606D01*
X023991Y007612D01*
X023979Y007622D01*
X023970Y007634D01*
X023965Y007648D01*
X023963Y007663D01*
D11*
X008093Y007681D03*
X008093Y008616D03*
X008093Y006794D03*
X008093Y005860D03*
D12*
X007148Y004954D03*
X007148Y009521D03*
D13*
X008648Y009863D03*
X009648Y009863D03*
D14*
X021148Y010104D03*
X021148Y004372D03*
D15*
X021734Y004254D02*
X021734Y004490D01*
X020553Y004490D01*
X020553Y004254D01*
X021734Y004254D01*
X022916Y004450D02*
X023703Y004450D01*
X023703Y006025D01*
X022916Y006025D01*
X022916Y004450D01*
X019372Y004450D02*
X019372Y006025D01*
X018585Y006025D01*
X018585Y004450D01*
X019372Y004450D01*
X019380Y008450D02*
X018593Y008450D01*
X018593Y010025D01*
X019380Y010025D01*
X019380Y008450D01*
X020561Y009986D02*
X021742Y009986D01*
X021742Y010222D01*
X020561Y010222D01*
X020561Y009986D01*
X022923Y010025D02*
X022923Y008450D01*
X023711Y008450D01*
X023711Y010025D01*
X022923Y010025D01*
D16*
X018273Y009363D03*
X017148Y009863D03*
X016523Y009863D03*
X015898Y009488D03*
X015773Y008863D03*
X016398Y008863D03*
X016023Y008363D03*
X018473Y007938D03*
X019273Y007238D03*
X019898Y007238D03*
X019648Y007613D03*
X018773Y007113D03*
X016873Y007138D03*
X016273Y007113D03*
X014398Y006488D03*
X015898Y005988D03*
X016898Y005988D03*
X016898Y004988D03*
X016273Y004988D03*
X018273Y004638D03*
X018273Y004238D03*
X014273Y004488D03*
X012648Y004863D03*
X011898Y004863D03*
X011023Y004238D03*
X010148Y005113D03*
X011898Y005738D03*
X012148Y006488D03*
X012648Y006613D03*
X011148Y006863D03*
X011523Y007238D03*
X010448Y007063D03*
X008523Y007238D03*
X010648Y008363D03*
X012148Y008238D03*
X012648Y008363D03*
X013523Y008363D03*
X012148Y009363D03*
X011523Y009363D03*
X010748Y009363D03*
X009398Y009238D03*
X008773Y005988D03*
X017773Y010238D03*
X023773Y008038D03*
X021898Y007488D03*
X021898Y006988D03*
X020773Y007238D03*
X023773Y006438D03*
D17*
X023963Y006399D02*
X018481Y006399D01*
X018358Y006276D02*
X018610Y006528D01*
X021735Y006528D01*
X021905Y006698D01*
X021956Y006698D01*
X022062Y006742D01*
X022144Y006824D01*
X022188Y006930D01*
X022188Y007045D01*
X022144Y007152D01*
X022062Y007234D01*
X021956Y007278D01*
X021840Y007278D01*
X021734Y007234D01*
X021652Y007152D01*
X021608Y007045D01*
X021608Y006995D01*
X021561Y006948D01*
X019018Y006948D01*
X019019Y006949D01*
X019063Y007055D01*
X019063Y007170D01*
X019019Y007277D01*
X018937Y007359D01*
X018831Y007403D01*
X018715Y007403D01*
X018609Y007359D01*
X018573Y007323D01*
X018311Y007323D01*
X018188Y007200D01*
X017936Y006948D01*
X016235Y006948D01*
X015985Y007198D01*
X015983Y007200D01*
X015860Y007323D01*
X015523Y007323D01*
X015523Y010433D01*
X020270Y010433D01*
X020270Y009774D01*
X020346Y009698D01*
X021950Y009698D01*
X022026Y009774D01*
X022026Y010433D01*
X023646Y010433D01*
X023709Y010426D01*
X023823Y010377D01*
X023911Y010288D01*
X023957Y010173D01*
X023963Y010111D01*
X023963Y010110D01*
X023962Y010036D01*
X023963Y010035D01*
X023963Y007898D01*
X023887Y007866D01*
X023823Y007803D01*
X023775Y007803D01*
X023687Y007766D01*
X023619Y007699D01*
X023583Y007611D01*
X023583Y007562D01*
X023519Y007499D01*
X023483Y007411D01*
X023483Y007315D01*
X023505Y007263D01*
X023483Y007211D01*
X023483Y007115D01*
X023519Y007027D01*
X023583Y006963D01*
X023583Y006915D01*
X023619Y006827D01*
X023687Y006759D01*
X023775Y006723D01*
X023823Y006723D01*
X023887Y006659D01*
X023963Y006628D01*
X023963Y004363D01*
X023957Y004300D01*
X023909Y004185D01*
X023821Y004097D01*
X023705Y004049D01*
X023643Y004043D01*
X022026Y004043D01*
X022026Y004701D01*
X021950Y004777D01*
X020346Y004777D01*
X020270Y004701D01*
X020270Y004043D01*
X015523Y004043D01*
X015523Y006903D01*
X015686Y006903D01*
X015688Y006901D01*
X015688Y006188D01*
X015652Y006152D01*
X015608Y006045D01*
X015608Y005930D01*
X015652Y005824D01*
X015734Y005742D01*
X015840Y005698D01*
X015956Y005698D01*
X016062Y005742D01*
X016144Y005824D01*
X016188Y005930D01*
X016188Y006045D01*
X016144Y006152D01*
X016108Y006188D01*
X016108Y006528D01*
X018016Y006528D01*
X017938Y006450D01*
X017938Y005575D01*
X017561Y005198D01*
X017098Y005198D01*
X017062Y005234D01*
X016956Y005278D01*
X016840Y005278D01*
X016734Y005234D01*
X016652Y005152D01*
X016608Y005045D01*
X016608Y004930D01*
X016652Y004824D01*
X016734Y004742D01*
X016840Y004698D01*
X016956Y004698D01*
X017062Y004742D01*
X017098Y004778D01*
X017735Y004778D01*
X018235Y005278D01*
X018358Y005401D01*
X018358Y006276D01*
X018358Y006240D02*
X023963Y006240D01*
X023903Y006108D02*
X023786Y006225D01*
X023620Y006225D01*
X022998Y006225D01*
X022833Y006225D01*
X022716Y006108D01*
X022716Y004368D01*
X022833Y004251D01*
X023786Y004251D01*
X023903Y004368D01*
X023903Y006108D01*
X023903Y006082D02*
X023963Y006082D01*
X023963Y005923D02*
X023903Y005923D01*
X023903Y005765D02*
X023963Y005765D01*
X023963Y005606D02*
X023903Y005606D01*
X023903Y005448D02*
X023963Y005448D01*
X023963Y005289D02*
X023903Y005289D01*
X023903Y005131D02*
X023963Y005131D01*
X023963Y004972D02*
X023903Y004972D01*
X023903Y004814D02*
X023963Y004814D01*
X023963Y004655D02*
X023903Y004655D01*
X023903Y004497D02*
X023963Y004497D01*
X023961Y004338D02*
X023873Y004338D01*
X023904Y004180D02*
X022026Y004180D01*
X022026Y004338D02*
X022745Y004338D01*
X022716Y004497D02*
X022026Y004497D01*
X022026Y004655D02*
X022716Y004655D01*
X022716Y004814D02*
X019572Y004814D01*
X019572Y004972D02*
X022716Y004972D01*
X022716Y005131D02*
X019572Y005131D01*
X019572Y005289D02*
X022716Y005289D01*
X022716Y005448D02*
X019572Y005448D01*
X019572Y005606D02*
X022716Y005606D01*
X022716Y005765D02*
X019572Y005765D01*
X019572Y005923D02*
X022716Y005923D01*
X022716Y006082D02*
X019572Y006082D01*
X019572Y006108D02*
X019455Y006225D01*
X019290Y006225D01*
X018668Y006225D01*
X018502Y006225D01*
X018385Y006108D01*
X018385Y004368D01*
X018502Y004251D01*
X019455Y004251D01*
X019572Y004368D01*
X019572Y006108D01*
X018385Y006082D02*
X018358Y006082D01*
X018148Y006363D02*
X018523Y006738D01*
X021648Y006738D01*
X021898Y006988D01*
X022104Y007191D02*
X023483Y007191D01*
X023483Y007350D02*
X019771Y007350D01*
X019812Y007367D02*
X019894Y007449D01*
X019938Y007555D01*
X019938Y007670D01*
X019894Y007777D01*
X019812Y007859D01*
X019706Y007903D01*
X019590Y007903D01*
X019484Y007859D01*
X019448Y007823D01*
X017360Y007823D01*
X016733Y008450D01*
X016610Y008573D01*
X016223Y008573D01*
X016187Y008609D01*
X016081Y008653D01*
X015965Y008653D01*
X015859Y008609D01*
X015777Y008527D01*
X015733Y008420D01*
X015733Y008305D01*
X015777Y008199D01*
X015859Y008117D01*
X015965Y008073D01*
X016081Y008073D01*
X016187Y008117D01*
X016223Y008153D01*
X016436Y008153D01*
X017186Y007403D01*
X019448Y007403D01*
X019484Y007367D01*
X019590Y007323D01*
X019706Y007323D01*
X019812Y007367D01*
X019918Y007508D02*
X023529Y007508D01*
X023606Y007667D02*
X019938Y007667D01*
X019648Y007613D02*
X017273Y007613D01*
X016523Y008363D01*
X016023Y008363D01*
X015749Y008459D02*
X015523Y008459D01*
X015523Y008301D02*
X015735Y008301D01*
X015833Y008142D02*
X015523Y008142D01*
X015523Y007984D02*
X016605Y007984D01*
X016446Y008142D02*
X016213Y008142D01*
X016882Y008301D02*
X018460Y008301D01*
X018510Y008251D02*
X018393Y008368D01*
X018393Y010108D01*
X018510Y010225D01*
X019463Y010225D01*
X019580Y010108D01*
X019580Y008368D01*
X019463Y008251D01*
X019297Y008251D01*
X018675Y008251D01*
X018510Y008251D01*
X018393Y008459D02*
X016723Y008459D01*
X017040Y008142D02*
X023963Y008142D01*
X023963Y007984D02*
X017199Y007984D01*
X017357Y007825D02*
X019450Y007825D01*
X019845Y007825D02*
X023846Y007825D01*
X023794Y008251D02*
X023628Y008251D01*
X023006Y008251D01*
X022841Y008251D01*
X022724Y008368D01*
X022724Y010108D01*
X022841Y010225D01*
X023794Y010225D01*
X023911Y010108D01*
X023911Y008368D01*
X023794Y008251D01*
X023844Y008301D02*
X023963Y008301D01*
X023963Y008459D02*
X023911Y008459D01*
X023911Y008618D02*
X023963Y008618D01*
X023963Y008776D02*
X023911Y008776D01*
X023911Y008935D02*
X023963Y008935D01*
X023963Y009093D02*
X023911Y009093D01*
X023911Y009252D02*
X023963Y009252D01*
X023963Y009410D02*
X023911Y009410D01*
X023911Y009569D02*
X023963Y009569D01*
X023963Y009727D02*
X023911Y009727D01*
X023911Y009886D02*
X023963Y009886D01*
X023962Y010044D02*
X023911Y010044D01*
X023945Y010203D02*
X023816Y010203D01*
X023839Y010361D02*
X022026Y010361D01*
X022026Y010203D02*
X022819Y010203D01*
X022724Y010044D02*
X022026Y010044D01*
X022026Y009886D02*
X022724Y009886D01*
X022724Y009727D02*
X021979Y009727D01*
X022724Y009569D02*
X019580Y009569D01*
X019580Y009727D02*
X020317Y009727D01*
X020270Y009886D02*
X019580Y009886D01*
X019580Y010044D02*
X020270Y010044D01*
X020270Y010203D02*
X019485Y010203D01*
X020270Y010361D02*
X015523Y010361D01*
X015523Y010203D02*
X018488Y010203D01*
X018393Y010044D02*
X015523Y010044D01*
X015523Y009886D02*
X018393Y009886D01*
X018393Y009727D02*
X015523Y009727D01*
X015523Y009569D02*
X018393Y009569D01*
X018393Y009410D02*
X015523Y009410D01*
X015523Y009252D02*
X018393Y009252D01*
X018393Y009093D02*
X015523Y009093D01*
X015523Y008935D02*
X018393Y008935D01*
X018393Y008776D02*
X015523Y008776D01*
X015523Y008618D02*
X015881Y008618D01*
X016165Y008618D02*
X018393Y008618D01*
X019513Y008301D02*
X022791Y008301D01*
X022724Y008459D02*
X019580Y008459D01*
X019580Y008618D02*
X022724Y008618D01*
X022724Y008776D02*
X019580Y008776D01*
X019580Y008935D02*
X022724Y008935D01*
X022724Y009093D02*
X019580Y009093D01*
X019580Y009252D02*
X022724Y009252D01*
X022724Y009410D02*
X019580Y009410D01*
X016763Y007825D02*
X015523Y007825D01*
X015523Y007667D02*
X016922Y007667D01*
X017080Y007508D02*
X015523Y007508D01*
X015523Y007350D02*
X018600Y007350D01*
X018773Y007113D02*
X018398Y007113D01*
X018023Y006738D01*
X016148Y006738D01*
X015898Y006988D01*
X015773Y007113D01*
X013273Y007113D01*
X013273Y005488D01*
X012648Y004863D01*
X012938Y004856D02*
X013360Y005278D01*
X013483Y005401D01*
X013483Y006903D01*
X014773Y006903D01*
X014773Y004043D01*
X006773Y004043D01*
X006684Y004050D01*
X006514Y004105D01*
X006370Y004210D01*
X006265Y004354D01*
X006210Y004524D01*
X006203Y004613D01*
X006203Y006623D01*
X006271Y006623D01*
X006359Y006659D01*
X006422Y006723D01*
X006471Y006723D01*
X006559Y006759D01*
X006626Y006827D01*
X006663Y006915D01*
X006663Y006963D01*
X006726Y007027D01*
X006763Y007115D01*
X006763Y007211D01*
X006741Y007263D01*
X006763Y007315D01*
X006763Y007411D01*
X006726Y007499D01*
X006663Y007562D01*
X006663Y007611D01*
X006626Y007699D01*
X006559Y007766D01*
X006471Y007803D01*
X006422Y007803D01*
X006359Y007866D01*
X006271Y007903D01*
X006203Y007903D01*
X006203Y009859D01*
X006210Y009949D01*
X006265Y010119D01*
X006371Y010265D01*
X006516Y010370D01*
X006687Y010426D01*
X006777Y010433D01*
X014773Y010433D01*
X014773Y007323D01*
X012858Y007323D01*
X012858Y008163D01*
X012894Y008199D01*
X012938Y008305D01*
X012938Y008420D01*
X012894Y008527D01*
X012812Y008609D01*
X012706Y008653D01*
X012590Y008653D01*
X012484Y008609D01*
X012402Y008527D01*
X012363Y008433D01*
X012312Y008484D01*
X012206Y008528D01*
X012090Y008528D01*
X011984Y008484D01*
X011902Y008402D01*
X011858Y008295D01*
X011858Y008180D01*
X011902Y008074D01*
X011938Y008038D01*
X011938Y006688D01*
X011902Y006652D01*
X011858Y006545D01*
X011858Y006430D01*
X011902Y006324D01*
X011984Y006242D01*
X012090Y006198D01*
X012206Y006198D01*
X012312Y006242D01*
X012394Y006324D01*
X012438Y006430D01*
X012438Y006545D01*
X012394Y006652D01*
X012358Y006688D01*
X012358Y008038D01*
X012394Y008074D01*
X012433Y008168D01*
X012438Y008163D01*
X012438Y007026D01*
X012561Y006903D01*
X013063Y006903D01*
X013063Y005575D01*
X012641Y005153D01*
X012590Y005153D01*
X012484Y005109D01*
X012402Y005027D01*
X012358Y004920D01*
X012358Y004805D01*
X012402Y004699D01*
X012403Y004698D01*
X011485Y004698D01*
X011360Y004823D01*
X010311Y004823D01*
X010188Y004700D01*
X010061Y004573D01*
X008360Y004573D01*
X008233Y004700D01*
X008233Y005377D01*
X008296Y005403D01*
X009985Y005403D01*
X010108Y005526D01*
X010358Y005776D01*
X010358Y009526D01*
X010485Y009653D01*
X011668Y009653D01*
X011743Y009553D01*
X011687Y009609D01*
X011581Y009653D01*
X011465Y009653D01*
X011359Y009609D01*
X011277Y009527D01*
X011233Y009420D01*
X011233Y009305D01*
X011277Y009199D01*
X011313Y009163D01*
X011313Y007438D01*
X011277Y007402D01*
X011233Y007295D01*
X011233Y007180D01*
X011277Y007074D01*
X011359Y006992D01*
X011465Y006948D01*
X011581Y006948D01*
X011687Y006992D01*
X011769Y007074D01*
X011813Y007180D01*
X011813Y007295D01*
X011769Y007402D01*
X011733Y007438D01*
X011733Y009163D01*
X011769Y009199D01*
X011813Y009305D01*
X011813Y009420D01*
X011777Y009508D01*
X011858Y009399D01*
X011858Y009305D01*
X011902Y009199D01*
X011984Y009117D01*
X012090Y009073D01*
X012206Y009073D01*
X012312Y009117D01*
X012394Y009199D01*
X012438Y009305D01*
X012438Y009420D01*
X012394Y009527D01*
X012312Y009609D01*
X012206Y009653D01*
X012193Y009653D01*
X011983Y009933D01*
X011983Y009950D01*
X011932Y010001D01*
X011889Y010058D01*
X011872Y010061D01*
X011860Y010073D01*
X011788Y010073D01*
X011716Y010083D01*
X011703Y010073D01*
X010311Y010073D01*
X010108Y009870D01*
X010108Y009954D01*
X010038Y010123D01*
X009908Y010253D01*
X009739Y010323D01*
X009556Y010323D01*
X009387Y010253D01*
X009258Y010123D01*
X009188Y009954D01*
X009188Y009771D01*
X009258Y009602D01*
X009387Y009473D01*
X009556Y009403D01*
X009739Y009403D01*
X009908Y009473D01*
X009938Y009502D01*
X009938Y005950D01*
X009811Y005823D01*
X008593Y005823D01*
X008593Y005959D01*
X008517Y006143D01*
X008376Y006284D01*
X008272Y006327D01*
X008376Y006370D01*
X008517Y006511D01*
X008593Y006695D01*
X008593Y006894D01*
X008517Y007077D01*
X008376Y007218D01*
X008328Y007238D01*
X008376Y007258D01*
X008517Y007398D01*
X008593Y007582D01*
X008593Y007781D01*
X008517Y007965D01*
X008376Y008105D01*
X008335Y008122D01*
X008381Y008145D01*
X008451Y008196D01*
X008512Y008257D01*
X008563Y008327D01*
X008602Y008405D01*
X008629Y008487D01*
X008643Y008572D01*
X008643Y008606D01*
X008103Y008606D01*
X008103Y008626D01*
X008083Y008626D01*
X008083Y009166D01*
X008049Y009166D01*
X007964Y009152D01*
X007882Y009125D01*
X007804Y009086D01*
X007758Y009053D01*
X007795Y009089D01*
X007911Y009369D01*
X007911Y009673D01*
X007795Y009954D01*
X007580Y010168D01*
X007300Y010284D01*
X006996Y010284D01*
X006716Y010168D01*
X006501Y009954D01*
X006385Y009673D01*
X006385Y009369D01*
X006501Y009089D01*
X006716Y008874D01*
X006996Y008758D01*
X007300Y008758D01*
X007580Y008874D01*
X007656Y008950D01*
X007622Y008904D01*
X007583Y008827D01*
X007556Y008745D01*
X007543Y008659D01*
X007543Y008626D01*
X008083Y008626D01*
X008083Y008606D01*
X007543Y008606D01*
X007543Y008572D01*
X007556Y008487D01*
X007583Y008405D01*
X007622Y008327D01*
X007673Y008257D01*
X007734Y008196D01*
X007804Y008145D01*
X007850Y008122D01*
X007810Y008105D01*
X007669Y007965D01*
X007593Y007781D01*
X007593Y007582D01*
X007669Y007398D01*
X007810Y007258D01*
X007857Y007238D01*
X007810Y007218D01*
X007669Y007077D01*
X007593Y006894D01*
X007593Y006695D01*
X007669Y006511D01*
X007810Y006370D01*
X007914Y006327D01*
X007810Y006284D01*
X007669Y006143D01*
X007593Y005959D01*
X007593Y005760D01*
X007669Y005577D01*
X007810Y005436D01*
X007813Y005435D01*
X007813Y005343D01*
X007795Y005387D01*
X007580Y005601D01*
X007300Y005717D01*
X006996Y005717D01*
X006716Y005601D01*
X006501Y005387D01*
X006385Y005106D01*
X006385Y004803D01*
X006501Y004522D01*
X006716Y004307D01*
X006996Y004191D01*
X007300Y004191D01*
X007580Y004307D01*
X007795Y004522D01*
X007813Y004566D01*
X007813Y004526D01*
X007936Y004403D01*
X008063Y004276D01*
X008063Y004276D01*
X008186Y004153D01*
X010235Y004153D01*
X010485Y004403D01*
X011186Y004403D01*
X011311Y004278D01*
X014073Y004278D01*
X014109Y004242D01*
X014215Y004198D01*
X014331Y004198D01*
X014437Y004242D01*
X014519Y004324D01*
X014563Y004430D01*
X014563Y004481D01*
X014608Y004526D01*
X014608Y006288D01*
X014644Y006324D01*
X014688Y006430D01*
X014688Y006545D01*
X014644Y006652D01*
X014562Y006734D01*
X014456Y006778D01*
X014340Y006778D01*
X014234Y006734D01*
X014152Y006652D01*
X014108Y006545D01*
X014108Y006430D01*
X014152Y006324D01*
X014188Y006288D01*
X014188Y004766D01*
X014109Y004734D01*
X014073Y004698D01*
X012893Y004698D01*
X012894Y004699D01*
X012938Y004805D01*
X012938Y004856D01*
X012938Y004814D02*
X014188Y004814D01*
X014188Y004972D02*
X013054Y004972D01*
X013213Y005131D02*
X014188Y005131D01*
X014188Y005289D02*
X013371Y005289D01*
X013483Y005448D02*
X014188Y005448D01*
X014188Y005606D02*
X013483Y005606D01*
X013483Y005765D02*
X014188Y005765D01*
X014188Y005923D02*
X013483Y005923D01*
X013063Y005923D02*
X010358Y005923D01*
X010347Y005765D02*
X013063Y005765D01*
X013063Y005606D02*
X010188Y005606D01*
X010030Y005448D02*
X012936Y005448D01*
X012777Y005289D02*
X008233Y005289D01*
X008233Y005131D02*
X012537Y005131D01*
X012379Y004972D02*
X008233Y004972D01*
X008233Y004814D02*
X010302Y004814D01*
X010143Y004655D02*
X008277Y004655D01*
X008023Y004613D02*
X008023Y005790D01*
X008093Y005860D01*
X008340Y005613D01*
X009898Y005613D01*
X010148Y005863D01*
X010148Y009613D01*
X010398Y009863D01*
X011773Y009863D01*
X012148Y009363D01*
X012416Y009252D02*
X014773Y009252D01*
X014773Y009093D02*
X012255Y009093D01*
X012041Y009093D02*
X011733Y009093D01*
X011733Y008935D02*
X014773Y008935D01*
X014773Y008776D02*
X011733Y008776D01*
X011733Y008618D02*
X012506Y008618D01*
X012374Y008459D02*
X012336Y008459D01*
X012648Y008363D02*
X012648Y007113D01*
X013273Y007113D01*
X012858Y007350D02*
X014773Y007350D01*
X014773Y007508D02*
X012858Y007508D01*
X012858Y007667D02*
X014773Y007667D01*
X014773Y007825D02*
X012858Y007825D01*
X012858Y007984D02*
X014773Y007984D01*
X014773Y008142D02*
X012858Y008142D01*
X012936Y008301D02*
X014773Y008301D01*
X014773Y008459D02*
X012922Y008459D01*
X012790Y008618D02*
X014773Y008618D01*
X014773Y009410D02*
X012438Y009410D01*
X012352Y009569D02*
X014773Y009569D01*
X014773Y009727D02*
X012137Y009727D01*
X012018Y009886D02*
X014773Y009886D01*
X014773Y010044D02*
X011899Y010044D01*
X011731Y009569D02*
X011727Y009569D01*
X011813Y009410D02*
X011850Y009410D01*
X011523Y009363D02*
X011523Y007238D01*
X011790Y007350D02*
X011938Y007350D01*
X011938Y007508D02*
X011733Y007508D01*
X011733Y007667D02*
X011938Y007667D01*
X012358Y007667D02*
X012438Y007667D01*
X012438Y007508D02*
X012358Y007508D01*
X012358Y007350D02*
X012438Y007350D01*
X012438Y007191D02*
X012358Y007191D01*
X012358Y007033D02*
X012438Y007033D01*
X012358Y006874D02*
X013063Y006874D01*
X013063Y006716D02*
X012358Y006716D01*
X012433Y006557D02*
X013063Y006557D01*
X013063Y006399D02*
X012425Y006399D01*
X012308Y006240D02*
X013063Y006240D01*
X013063Y006082D02*
X010358Y006082D01*
X010358Y006240D02*
X011988Y006240D01*
X011871Y006399D02*
X010358Y006399D01*
X010358Y006557D02*
X011863Y006557D01*
X011938Y006716D02*
X010358Y006716D01*
X010358Y006874D02*
X011938Y006874D01*
X011938Y007033D02*
X011728Y007033D01*
X011813Y007191D02*
X011938Y007191D01*
X011318Y007033D02*
X010358Y007033D01*
X010358Y007191D02*
X011233Y007191D01*
X011255Y007350D02*
X010358Y007350D01*
X010358Y007508D02*
X011313Y007508D01*
X011313Y007667D02*
X010358Y007667D01*
X009938Y007667D02*
X008593Y007667D01*
X008562Y007508D02*
X009938Y007508D01*
X009938Y007350D02*
X008468Y007350D01*
X008403Y007191D02*
X009938Y007191D01*
X009938Y007033D02*
X008535Y007033D01*
X008593Y006874D02*
X009938Y006874D01*
X009938Y006716D02*
X008593Y006716D01*
X008536Y006557D02*
X009938Y006557D01*
X009938Y006399D02*
X008405Y006399D01*
X008419Y006240D02*
X009938Y006240D01*
X009938Y006082D02*
X008542Y006082D01*
X008593Y005923D02*
X009911Y005923D01*
X007798Y005448D02*
X007734Y005448D01*
X007657Y005606D02*
X007568Y005606D01*
X007593Y005765D02*
X006203Y005765D01*
X006203Y005923D02*
X007593Y005923D01*
X007445Y006127D02*
X007333Y006016D01*
X007187Y005955D01*
X007030Y005955D01*
X006884Y006016D01*
X006772Y006127D01*
X006712Y006273D01*
X006712Y006431D01*
X006772Y006577D01*
X006884Y006688D01*
X007030Y006749D01*
X007187Y006749D01*
X007333Y006688D01*
X007445Y006577D01*
X007505Y006431D01*
X007505Y006273D01*
X007445Y006127D01*
X007399Y006082D02*
X007643Y006082D01*
X007766Y006240D02*
X007491Y006240D01*
X007505Y006399D02*
X007781Y006399D01*
X007650Y006557D02*
X007453Y006557D01*
X007593Y006716D02*
X007266Y006716D01*
X006951Y006716D02*
X006415Y006716D01*
X006203Y006557D02*
X006764Y006557D01*
X006712Y006399D02*
X006203Y006399D01*
X006203Y006240D02*
X006726Y006240D01*
X006818Y006082D02*
X006203Y006082D01*
X006203Y005606D02*
X006728Y005606D01*
X006562Y005448D02*
X006203Y005448D01*
X006203Y005289D02*
X006461Y005289D01*
X006395Y005131D02*
X006203Y005131D01*
X006203Y004972D02*
X006385Y004972D01*
X006385Y004814D02*
X006203Y004814D01*
X006203Y004655D02*
X006446Y004655D01*
X006526Y004497D02*
X006219Y004497D01*
X006276Y004338D02*
X006685Y004338D01*
X006411Y004180D02*
X008159Y004180D01*
X008000Y004338D02*
X007611Y004338D01*
X007769Y004497D02*
X007842Y004497D01*
X008023Y004613D02*
X008273Y004363D01*
X010148Y004363D01*
X010398Y004613D01*
X011273Y004613D01*
X011398Y004488D01*
X014273Y004488D01*
X014398Y004613D01*
X014398Y006488D01*
X014675Y006399D02*
X014773Y006399D01*
X014773Y006557D02*
X014683Y006557D01*
X014773Y006716D02*
X014580Y006716D01*
X014773Y006874D02*
X013483Y006874D01*
X013483Y006716D02*
X014216Y006716D01*
X014113Y006557D02*
X013483Y006557D01*
X013483Y006399D02*
X014121Y006399D01*
X014188Y006240D02*
X013483Y006240D01*
X013483Y006082D02*
X014188Y006082D01*
X014608Y006082D02*
X014773Y006082D01*
X014773Y006240D02*
X014608Y006240D01*
X015523Y006240D02*
X015688Y006240D01*
X015688Y006399D02*
X015523Y006399D01*
X015523Y006557D02*
X015688Y006557D01*
X015688Y006716D02*
X015523Y006716D01*
X015523Y006874D02*
X015688Y006874D01*
X015898Y006988D02*
X015898Y005988D01*
X016173Y006082D02*
X017938Y006082D01*
X017938Y006240D02*
X016108Y006240D01*
X016108Y006399D02*
X017938Y006399D01*
X018148Y006363D02*
X018148Y005488D01*
X017648Y004988D01*
X016898Y004988D01*
X016608Y004972D02*
X015523Y004972D01*
X015523Y004814D02*
X016662Y004814D01*
X016643Y005131D02*
X015523Y005131D01*
X015523Y005289D02*
X017652Y005289D01*
X017811Y005448D02*
X015523Y005448D01*
X015523Y005606D02*
X017938Y005606D01*
X017938Y005765D02*
X016085Y005765D01*
X016185Y005923D02*
X017938Y005923D01*
X018358Y005923D02*
X018385Y005923D01*
X018385Y005765D02*
X018358Y005765D01*
X018358Y005606D02*
X018385Y005606D01*
X018385Y005448D02*
X018358Y005448D01*
X018385Y005289D02*
X018246Y005289D01*
X018385Y005131D02*
X018088Y005131D01*
X017929Y004972D02*
X018385Y004972D01*
X018385Y004814D02*
X017771Y004814D01*
X018385Y004655D02*
X015523Y004655D01*
X015523Y004497D02*
X018385Y004497D01*
X018415Y004338D02*
X015523Y004338D01*
X015523Y004180D02*
X020270Y004180D01*
X020270Y004338D02*
X019543Y004338D01*
X019572Y004497D02*
X020270Y004497D01*
X020270Y004655D02*
X019572Y004655D01*
X015711Y005765D02*
X015523Y005765D01*
X015523Y005923D02*
X015611Y005923D01*
X015623Y006082D02*
X015523Y006082D01*
X014773Y005923D02*
X014608Y005923D01*
X014608Y005765D02*
X014773Y005765D01*
X014773Y005606D02*
X014608Y005606D01*
X014608Y005448D02*
X014773Y005448D01*
X014773Y005289D02*
X014608Y005289D01*
X014608Y005131D02*
X014773Y005131D01*
X014773Y004972D02*
X014608Y004972D01*
X014608Y004814D02*
X014773Y004814D01*
X014773Y004655D02*
X014608Y004655D01*
X014579Y004497D02*
X014773Y004497D01*
X014773Y004338D02*
X014525Y004338D01*
X014773Y004180D02*
X010262Y004180D01*
X010420Y004338D02*
X011250Y004338D01*
X011369Y004814D02*
X012358Y004814D01*
X012148Y006488D02*
X012148Y008238D01*
X012422Y008142D02*
X012438Y008142D01*
X012438Y007984D02*
X012358Y007984D01*
X012358Y007825D02*
X012438Y007825D01*
X011938Y007825D02*
X011733Y007825D01*
X011733Y007984D02*
X011938Y007984D01*
X011874Y008142D02*
X011733Y008142D01*
X011733Y008301D02*
X011860Y008301D01*
X011959Y008459D02*
X011733Y008459D01*
X011313Y008459D02*
X010358Y008459D01*
X010358Y008301D02*
X011313Y008301D01*
X011313Y008142D02*
X010358Y008142D01*
X010358Y007984D02*
X011313Y007984D01*
X011313Y007825D02*
X010358Y007825D01*
X009938Y007825D02*
X008574Y007825D01*
X008498Y007984D02*
X009938Y007984D01*
X009938Y008142D02*
X008375Y008142D01*
X008544Y008301D02*
X009938Y008301D01*
X009938Y008459D02*
X008620Y008459D01*
X008643Y008626D02*
X008643Y008659D01*
X008629Y008745D01*
X008602Y008827D01*
X008563Y008904D01*
X008512Y008974D01*
X008451Y009035D01*
X008381Y009086D01*
X008304Y009125D01*
X008222Y009152D01*
X008136Y009166D01*
X008103Y009166D01*
X008103Y008626D01*
X008643Y008626D01*
X008619Y008776D02*
X009938Y008776D01*
X009938Y008618D02*
X008103Y008618D01*
X008083Y008618D02*
X006203Y008618D01*
X006203Y008776D02*
X006952Y008776D01*
X006655Y008935D02*
X006203Y008935D01*
X006203Y009093D02*
X006499Y009093D01*
X006434Y009252D02*
X006203Y009252D01*
X006203Y009410D02*
X006385Y009410D01*
X006385Y009569D02*
X006203Y009569D01*
X006203Y009727D02*
X006407Y009727D01*
X006473Y009886D02*
X006205Y009886D01*
X006241Y010044D02*
X006592Y010044D01*
X006799Y010203D02*
X006326Y010203D01*
X006504Y010361D02*
X008535Y010361D01*
X008528Y010360D02*
X008452Y010335D01*
X008381Y010299D01*
X008316Y010252D01*
X008259Y010195D01*
X008212Y010130D01*
X008175Y010059D01*
X008150Y009982D01*
X008138Y009903D01*
X008138Y009881D01*
X008629Y009881D01*
X008629Y009844D01*
X008138Y009844D01*
X008138Y009823D01*
X008150Y009743D01*
X008175Y009667D01*
X008212Y009595D01*
X008259Y009531D01*
X008316Y009474D01*
X008381Y009427D01*
X008452Y009390D01*
X008528Y009365D01*
X008608Y009353D01*
X008629Y009353D01*
X008629Y009844D01*
X008666Y009844D01*
X008666Y009353D01*
X008688Y009353D01*
X008767Y009365D01*
X008844Y009390D01*
X008915Y009427D01*
X008980Y009474D01*
X009037Y009531D01*
X009084Y009595D01*
X009121Y009667D01*
X009145Y009743D01*
X009158Y009823D01*
X009158Y009844D01*
X008666Y009844D01*
X008666Y009881D01*
X008629Y009881D01*
X008629Y010373D01*
X008608Y010373D01*
X008528Y010360D01*
X008629Y010361D02*
X008666Y010361D01*
X008666Y010373D02*
X008666Y009881D01*
X009158Y009881D01*
X009158Y009903D01*
X009145Y009982D01*
X009121Y010059D01*
X009084Y010130D01*
X009037Y010195D01*
X008980Y010252D01*
X008915Y010299D01*
X008844Y010335D01*
X008767Y010360D01*
X008688Y010373D01*
X008666Y010373D01*
X008761Y010361D02*
X014773Y010361D01*
X014773Y010203D02*
X009958Y010203D01*
X010071Y010044D02*
X010282Y010044D01*
X010124Y009886D02*
X010108Y009886D01*
X010401Y009569D02*
X011319Y009569D01*
X011233Y009410D02*
X010358Y009410D01*
X009938Y009410D02*
X009758Y009410D01*
X009538Y009410D02*
X008883Y009410D01*
X008666Y009410D02*
X008629Y009410D01*
X008629Y009569D02*
X008666Y009569D01*
X008666Y009727D02*
X008629Y009727D01*
X008629Y009886D02*
X008666Y009886D01*
X008666Y010044D02*
X008629Y010044D01*
X008629Y010203D02*
X008666Y010203D01*
X009029Y010203D02*
X009337Y010203D01*
X009225Y010044D02*
X009125Y010044D01*
X009158Y009886D02*
X009188Y009886D01*
X009206Y009727D02*
X009140Y009727D01*
X009065Y009569D02*
X009291Y009569D01*
X009938Y009252D02*
X007862Y009252D01*
X007819Y009093D02*
X007797Y009093D01*
X007645Y008935D02*
X007641Y008935D01*
X007567Y008776D02*
X007343Y008776D01*
X007187Y008520D02*
X007030Y008520D01*
X006884Y008460D01*
X006772Y008348D01*
X006712Y008202D01*
X006712Y008045D01*
X006772Y007899D01*
X006884Y007787D01*
X007030Y007727D01*
X007187Y007727D01*
X007333Y007787D01*
X007445Y007899D01*
X007505Y008045D01*
X007505Y008202D01*
X007445Y008348D01*
X007333Y008460D01*
X007187Y008520D01*
X007334Y008459D02*
X007565Y008459D01*
X007642Y008301D02*
X007464Y008301D01*
X007505Y008142D02*
X007810Y008142D01*
X007688Y007984D02*
X007480Y007984D01*
X007371Y007825D02*
X007611Y007825D01*
X007593Y007667D02*
X006640Y007667D01*
X006717Y007508D02*
X007623Y007508D01*
X007717Y007350D02*
X006763Y007350D01*
X006763Y007191D02*
X007783Y007191D01*
X007650Y007033D02*
X006729Y007033D01*
X006646Y006874D02*
X007593Y006874D01*
X006846Y007825D02*
X006400Y007825D01*
X006203Y007984D02*
X006737Y007984D01*
X006712Y008142D02*
X006203Y008142D01*
X006203Y008301D02*
X006753Y008301D01*
X006883Y008459D02*
X006203Y008459D01*
X008083Y008776D02*
X008103Y008776D01*
X008103Y008935D02*
X008083Y008935D01*
X008083Y009093D02*
X008103Y009093D01*
X008367Y009093D02*
X009938Y009093D01*
X009938Y008935D02*
X008541Y008935D01*
X008413Y009410D02*
X007911Y009410D01*
X007911Y009569D02*
X008231Y009569D01*
X008156Y009727D02*
X007888Y009727D01*
X007823Y009886D02*
X008138Y009886D01*
X008171Y010044D02*
X007704Y010044D01*
X007496Y010203D02*
X008267Y010203D01*
X010358Y009252D02*
X011255Y009252D01*
X011313Y009093D02*
X010358Y009093D01*
X010358Y008935D02*
X011313Y008935D01*
X011313Y008776D02*
X010358Y008776D01*
X010358Y008618D02*
X011313Y008618D01*
X011791Y009252D02*
X011880Y009252D01*
X015991Y007191D02*
X018179Y007191D01*
X018021Y007033D02*
X016150Y007033D01*
X018946Y007350D02*
X019525Y007350D01*
X019054Y007191D02*
X021691Y007191D01*
X021608Y007033D02*
X019054Y007033D01*
X021764Y006557D02*
X023963Y006557D01*
X023830Y006716D02*
X021999Y006716D01*
X022165Y006874D02*
X023600Y006874D01*
X023517Y007033D02*
X022188Y007033D01*
M02*
