%
M48
M72
T01C0.0120
T02C0.0360
T03C0.0394
T04C0.0433
T05C0.0866
%
T01
X23773Y6438
X24023Y6863
X23823Y6963
X23723Y7163
X23723Y7363
X23823Y7563
X24023Y7663
X23773Y8038
X21898Y7488
X21898Y6988
X20773Y7238
X19898Y7238
X19273Y7238
X18773Y7113
X19648Y7613
X18473Y7938
X18273Y9363
X17148Y9863
X16523Y9863
X15898Y9488
X15773Y8863
X16398Y8863
X16023Y8363
X13523Y8363
X12648Y8363
X12148Y8238
X10648Y8363
X9398Y9238
X10748Y9363
X11523Y9363
X12148Y9363
X11523Y7238
X11148Y6863
X10448Y7063
X12148Y6488
X12648Y6613
X14398Y6488
X15898Y5988
X16898Y5988
X18273Y4238
X18273Y4638
X16898Y4988
X16273Y4988
X14273Y4488
X12648Y4863
X11898Y4863
X11023Y4238
X10148Y5113
X11898Y5738
X8773Y5988
X6223Y6863
X6423Y6963
X6523Y7163
X6523Y7363
X6423Y7563
X6223Y7663
X8523Y7238
X16273Y7113
X16873Y7138
X17773Y10238
T02
X8093Y5860
X8093Y6794
X8093Y7681
X8093Y8616
T03
X8648Y9863
X9648Y9863
T04
X7109Y6352
X7109Y8124
T05
X7148Y4954
X7148Y9521
M30
