G75*
%MOIN*%
%OFA0B0*%
%FSLAX24Y24*%
%IPPOS*%
%LPD*%
%AMOC8*
5,1,8,0,0,1.08239X$1,22.5*
%
%ADD10C,0.0000*%
%ADD11C,0.0200*%
%ADD12C,0.0820*%
%ADD13C,0.1346*%
%ADD14C,0.0513*%
%ADD15C,0.0740*%
%ADD16R,0.1575X0.0630*%
%ADD17C,0.0039*%
D10*
X006773Y003863D02*
X023643Y003863D01*
X023687Y003865D01*
X023730Y003871D01*
X023772Y003880D01*
X023814Y003893D01*
X023854Y003910D01*
X023893Y003930D01*
X023930Y003953D01*
X023964Y003980D01*
X023997Y004009D01*
X024026Y004042D01*
X024053Y004076D01*
X024076Y004113D01*
X024096Y004152D01*
X024113Y004192D01*
X024126Y004234D01*
X024135Y004276D01*
X024141Y004319D01*
X024143Y004363D01*
X024143Y010109D01*
X024141Y010152D01*
X024136Y010196D01*
X024127Y010238D01*
X024114Y010280D01*
X024098Y010320D01*
X024078Y010359D01*
X024055Y010396D01*
X024029Y010431D01*
X024000Y010463D01*
X023968Y010493D01*
X023933Y010520D01*
X023897Y010544D01*
X023858Y010564D01*
X023818Y010581D01*
X023777Y010595D01*
X023734Y010605D01*
X023691Y010611D01*
X023647Y010613D01*
X023648Y010613D02*
X006777Y010613D01*
X006723Y010611D01*
X006670Y010605D01*
X006617Y010596D01*
X006565Y010582D01*
X006514Y010565D01*
X006464Y010545D01*
X006416Y010521D01*
X006369Y010493D01*
X006325Y010463D01*
X006283Y010429D01*
X006244Y010392D01*
X006207Y010353D01*
X006173Y010311D01*
X006143Y010267D01*
X006115Y010220D01*
X006091Y010172D01*
X006071Y010122D01*
X006054Y010071D01*
X006040Y010019D01*
X006031Y009966D01*
X006025Y009913D01*
X006023Y009859D01*
X006023Y004613D01*
X006025Y004559D01*
X006031Y004506D01*
X006040Y004454D01*
X006053Y004402D01*
X006070Y004351D01*
X006091Y004301D01*
X006115Y004254D01*
X006142Y004208D01*
X006173Y004164D01*
X006206Y004122D01*
X006243Y004083D01*
X006282Y004046D01*
X006324Y004013D01*
X006368Y003982D01*
X006414Y003955D01*
X006461Y003931D01*
X006511Y003910D01*
X006562Y003893D01*
X006614Y003880D01*
X006666Y003871D01*
X006719Y003865D01*
X006773Y003863D01*
X006892Y006352D02*
X006894Y006381D01*
X006900Y006409D01*
X006909Y006437D01*
X006922Y006463D01*
X006939Y006486D01*
X006958Y006508D01*
X006980Y006527D01*
X007005Y006542D01*
X007031Y006555D01*
X007059Y006563D01*
X007087Y006568D01*
X007116Y006569D01*
X007145Y006566D01*
X007173Y006559D01*
X007200Y006549D01*
X007226Y006535D01*
X007249Y006518D01*
X007270Y006498D01*
X007288Y006475D01*
X007303Y006450D01*
X007314Y006423D01*
X007322Y006395D01*
X007326Y006366D01*
X007326Y006338D01*
X007322Y006309D01*
X007314Y006281D01*
X007303Y006254D01*
X007288Y006229D01*
X007270Y006206D01*
X007249Y006186D01*
X007226Y006169D01*
X007200Y006155D01*
X007173Y006145D01*
X007145Y006138D01*
X007116Y006135D01*
X007087Y006136D01*
X007059Y006141D01*
X007031Y006149D01*
X007005Y006162D01*
X006980Y006177D01*
X006958Y006196D01*
X006939Y006218D01*
X006922Y006241D01*
X006909Y006267D01*
X006900Y006295D01*
X006894Y006323D01*
X006892Y006352D01*
X006163Y006863D02*
X006165Y006878D01*
X006170Y006892D01*
X006179Y006904D01*
X006191Y006914D01*
X006204Y006920D01*
X006219Y006923D01*
X006234Y006922D01*
X006249Y006917D01*
X006261Y006909D01*
X006272Y006898D01*
X006279Y006885D01*
X006283Y006871D01*
X006283Y006855D01*
X006279Y006841D01*
X006272Y006828D01*
X006261Y006817D01*
X006249Y006809D01*
X006234Y006804D01*
X006219Y006803D01*
X006204Y006806D01*
X006191Y006812D01*
X006179Y006822D01*
X006170Y006834D01*
X006165Y006848D01*
X006163Y006863D01*
X006363Y006963D02*
X006365Y006978D01*
X006370Y006992D01*
X006379Y007004D01*
X006391Y007014D01*
X006404Y007020D01*
X006419Y007023D01*
X006434Y007022D01*
X006449Y007017D01*
X006461Y007009D01*
X006472Y006998D01*
X006479Y006985D01*
X006483Y006971D01*
X006483Y006955D01*
X006479Y006941D01*
X006472Y006928D01*
X006461Y006917D01*
X006449Y006909D01*
X006434Y006904D01*
X006419Y006903D01*
X006404Y006906D01*
X006391Y006912D01*
X006379Y006922D01*
X006370Y006934D01*
X006365Y006948D01*
X006363Y006963D01*
X006463Y007163D02*
X006465Y007178D01*
X006470Y007192D01*
X006479Y007204D01*
X006491Y007214D01*
X006504Y007220D01*
X006519Y007223D01*
X006534Y007222D01*
X006549Y007217D01*
X006561Y007209D01*
X006572Y007198D01*
X006579Y007185D01*
X006583Y007171D01*
X006583Y007155D01*
X006579Y007141D01*
X006572Y007128D01*
X006561Y007117D01*
X006549Y007109D01*
X006534Y007104D01*
X006519Y007103D01*
X006504Y007106D01*
X006491Y007112D01*
X006479Y007122D01*
X006470Y007134D01*
X006465Y007148D01*
X006463Y007163D01*
X006463Y007363D02*
X006465Y007378D01*
X006470Y007392D01*
X006479Y007404D01*
X006491Y007414D01*
X006504Y007420D01*
X006519Y007423D01*
X006534Y007422D01*
X006549Y007417D01*
X006561Y007409D01*
X006572Y007398D01*
X006579Y007385D01*
X006583Y007371D01*
X006583Y007355D01*
X006579Y007341D01*
X006572Y007328D01*
X006561Y007317D01*
X006549Y007309D01*
X006534Y007304D01*
X006519Y007303D01*
X006504Y007306D01*
X006491Y007312D01*
X006479Y007322D01*
X006470Y007334D01*
X006465Y007348D01*
X006463Y007363D01*
X006363Y007563D02*
X006365Y007578D01*
X006370Y007592D01*
X006379Y007604D01*
X006391Y007614D01*
X006404Y007620D01*
X006419Y007623D01*
X006434Y007622D01*
X006449Y007617D01*
X006461Y007609D01*
X006472Y007598D01*
X006479Y007585D01*
X006483Y007571D01*
X006483Y007555D01*
X006479Y007541D01*
X006472Y007528D01*
X006461Y007517D01*
X006449Y007509D01*
X006434Y007504D01*
X006419Y007503D01*
X006404Y007506D01*
X006391Y007512D01*
X006379Y007522D01*
X006370Y007534D01*
X006365Y007548D01*
X006363Y007563D01*
X006163Y007663D02*
X006165Y007678D01*
X006170Y007692D01*
X006179Y007704D01*
X006191Y007714D01*
X006204Y007720D01*
X006219Y007723D01*
X006234Y007722D01*
X006249Y007717D01*
X006261Y007709D01*
X006272Y007698D01*
X006279Y007685D01*
X006283Y007671D01*
X006283Y007655D01*
X006279Y007641D01*
X006272Y007628D01*
X006261Y007617D01*
X006249Y007609D01*
X006234Y007604D01*
X006219Y007603D01*
X006204Y007606D01*
X006191Y007612D01*
X006179Y007622D01*
X006170Y007634D01*
X006165Y007648D01*
X006163Y007663D01*
X006892Y008124D02*
X006894Y008153D01*
X006900Y008181D01*
X006909Y008209D01*
X006922Y008235D01*
X006939Y008258D01*
X006958Y008280D01*
X006980Y008299D01*
X007005Y008314D01*
X007031Y008327D01*
X007059Y008335D01*
X007087Y008340D01*
X007116Y008341D01*
X007145Y008338D01*
X007173Y008331D01*
X007200Y008321D01*
X007226Y008307D01*
X007249Y008290D01*
X007270Y008270D01*
X007288Y008247D01*
X007303Y008222D01*
X007314Y008195D01*
X007322Y008167D01*
X007326Y008138D01*
X007326Y008110D01*
X007322Y008081D01*
X007314Y008053D01*
X007303Y008026D01*
X007288Y008001D01*
X007270Y007978D01*
X007249Y007958D01*
X007226Y007941D01*
X007200Y007927D01*
X007173Y007917D01*
X007145Y007910D01*
X007116Y007907D01*
X007087Y007908D01*
X007059Y007913D01*
X007031Y007921D01*
X007005Y007934D01*
X006980Y007949D01*
X006958Y007968D01*
X006939Y007990D01*
X006922Y008013D01*
X006909Y008039D01*
X006900Y008067D01*
X006894Y008095D01*
X006892Y008124D01*
X023663Y007363D02*
X023665Y007378D01*
X023670Y007392D01*
X023679Y007404D01*
X023691Y007414D01*
X023704Y007420D01*
X023719Y007423D01*
X023734Y007422D01*
X023749Y007417D01*
X023761Y007409D01*
X023772Y007398D01*
X023779Y007385D01*
X023783Y007371D01*
X023783Y007355D01*
X023779Y007341D01*
X023772Y007328D01*
X023761Y007317D01*
X023749Y007309D01*
X023734Y007304D01*
X023719Y007303D01*
X023704Y007306D01*
X023691Y007312D01*
X023679Y007322D01*
X023670Y007334D01*
X023665Y007348D01*
X023663Y007363D01*
X023663Y007163D02*
X023665Y007178D01*
X023670Y007192D01*
X023679Y007204D01*
X023691Y007214D01*
X023704Y007220D01*
X023719Y007223D01*
X023734Y007222D01*
X023749Y007217D01*
X023761Y007209D01*
X023772Y007198D01*
X023779Y007185D01*
X023783Y007171D01*
X023783Y007155D01*
X023779Y007141D01*
X023772Y007128D01*
X023761Y007117D01*
X023749Y007109D01*
X023734Y007104D01*
X023719Y007103D01*
X023704Y007106D01*
X023691Y007112D01*
X023679Y007122D01*
X023670Y007134D01*
X023665Y007148D01*
X023663Y007163D01*
X023763Y006963D02*
X023765Y006978D01*
X023770Y006992D01*
X023779Y007004D01*
X023791Y007014D01*
X023804Y007020D01*
X023819Y007023D01*
X023834Y007022D01*
X023849Y007017D01*
X023861Y007009D01*
X023872Y006998D01*
X023879Y006985D01*
X023883Y006971D01*
X023883Y006955D01*
X023879Y006941D01*
X023872Y006928D01*
X023861Y006917D01*
X023849Y006909D01*
X023834Y006904D01*
X023819Y006903D01*
X023804Y006906D01*
X023791Y006912D01*
X023779Y006922D01*
X023770Y006934D01*
X023765Y006948D01*
X023763Y006963D01*
X023963Y006863D02*
X023965Y006878D01*
X023970Y006892D01*
X023979Y006904D01*
X023991Y006914D01*
X024004Y006920D01*
X024019Y006923D01*
X024034Y006922D01*
X024049Y006917D01*
X024061Y006909D01*
X024072Y006898D01*
X024079Y006885D01*
X024083Y006871D01*
X024083Y006855D01*
X024079Y006841D01*
X024072Y006828D01*
X024061Y006817D01*
X024049Y006809D01*
X024034Y006804D01*
X024019Y006803D01*
X024004Y006806D01*
X023991Y006812D01*
X023979Y006822D01*
X023970Y006834D01*
X023965Y006848D01*
X023963Y006863D01*
X023763Y007563D02*
X023765Y007578D01*
X023770Y007592D01*
X023779Y007604D01*
X023791Y007614D01*
X023804Y007620D01*
X023819Y007623D01*
X023834Y007622D01*
X023849Y007617D01*
X023861Y007609D01*
X023872Y007598D01*
X023879Y007585D01*
X023883Y007571D01*
X023883Y007555D01*
X023879Y007541D01*
X023872Y007528D01*
X023861Y007517D01*
X023849Y007509D01*
X023834Y007504D01*
X023819Y007503D01*
X023804Y007506D01*
X023791Y007512D01*
X023779Y007522D01*
X023770Y007534D01*
X023765Y007548D01*
X023763Y007563D01*
X023963Y007663D02*
X023965Y007678D01*
X023970Y007692D01*
X023979Y007704D01*
X023991Y007714D01*
X024004Y007720D01*
X024019Y007723D01*
X024034Y007722D01*
X024049Y007717D01*
X024061Y007709D01*
X024072Y007698D01*
X024079Y007685D01*
X024083Y007671D01*
X024083Y007655D01*
X024079Y007641D01*
X024072Y007628D01*
X024061Y007617D01*
X024049Y007609D01*
X024034Y007604D01*
X024019Y007603D01*
X024004Y007606D01*
X023991Y007612D01*
X023979Y007622D01*
X023970Y007634D01*
X023965Y007648D01*
X023963Y007663D01*
D11*
X024023Y007663D03*
X023823Y007563D03*
X023723Y007363D03*
X023723Y007163D03*
X023823Y006963D03*
X024023Y006863D03*
X006523Y007163D03*
X006523Y007363D03*
X006423Y007563D03*
X006223Y007663D03*
X006423Y006963D03*
X006223Y006863D03*
D12*
X008093Y006794D03*
X008093Y005860D03*
X008093Y007681D03*
X008093Y008616D03*
D13*
X007148Y009521D03*
X007148Y004954D03*
D14*
X007109Y006352D03*
X007109Y008124D03*
D15*
X008648Y009863D03*
X009648Y009863D03*
D16*
X021148Y010104D03*
X021148Y004372D03*
D17*
X021734Y004254D02*
X021734Y004490D01*
X020553Y004490D01*
X020553Y004254D01*
X021734Y004254D01*
X022916Y004450D02*
X023703Y004450D01*
X023703Y006025D01*
X022916Y006025D01*
X022916Y004450D01*
X019372Y004450D02*
X019372Y006025D01*
X018585Y006025D01*
X018585Y004450D01*
X019372Y004450D01*
X019380Y008450D02*
X018593Y008450D01*
X018593Y010025D01*
X019380Y010025D01*
X019380Y008450D01*
X020561Y009986D02*
X021742Y009986D01*
X021742Y010222D01*
X020561Y010222D01*
X020561Y009986D01*
X022923Y010025D02*
X022923Y008450D01*
X023711Y008450D01*
X023711Y010025D01*
X022923Y010025D01*
M02*
